<svg width="16" height="16" viewBox="0 0 16 16" fill="none" xmlns="http://www.w3.org/2000/svg">
<mask id="mask0_287_9244" style="mask-type:alpha" maskUnits="userSpaceOnUse" x="0" y="0" width="16" height="16">
<rect width="16" height="16" fill="#D9D9D9"/>
</mask>
<g mask="url(#mask0_287_9244)">
<path d="M3.53817 13.6663C3.2014 13.6663 2.91634 13.5497 2.68301 13.3163C2.44967 13.083 2.33301 12.798 2.33301 12.4612V3.53817C2.33301 3.2014 2.44967 2.91634 2.68301 2.68301C2.91634 2.44967 3.2014 2.33301 3.53817 2.33301H8.53817V3.33301H3.53817C3.47829 3.33301 3.42912 3.35223 3.39067 3.39067C3.35223 3.42912 3.33301 3.47829 3.33301 3.53817V12.4612C3.33301 12.5211 3.35223 12.5702 3.39067 12.6087C3.42912 12.6471 3.47829 12.6663 3.53817 12.6663H12.4612C12.5211 12.6663 12.5702 12.6471 12.6087 12.6087C12.6471 12.5702 12.6663 12.5211 12.6663 12.4612V7.46117H13.6663V12.4612C13.6663 12.798 13.5497 13.083 13.3163 13.3163C13.083 13.5497 12.798 13.6663 12.4612 13.6663H3.53817ZM4.25617 11.1278H11.7432L9.41634 8.02534L7.41634 10.6215L5.99967 8.82017L4.25617 11.1278ZM11.333 5.99967V4.66634H9.99967V3.66634H11.333V2.33301H12.333V3.66634H13.6663V4.66634H12.333V5.99967H11.333Z" fill="#172537"/>
</g>
</svg>
