<svg width="430" height="200" viewBox="0 0 430 200" fill="none" xmlns="http://www.w3.org/2000/svg">
<rect x="0.5" y="0.5" width="429" height="199" rx="7.5" fill="white" stroke="#D0CBC6"/>
<rect x="8.5" y="8.5" width="413" height="183" rx="3.5" stroke="#FC6839" stroke-dasharray="4 4"/>
<path d="M82.4753 90.636C83.3873 90.636 84.1753 90.808 84.8393 91.152C85.5113 91.488 86.0233 91.972 86.3753 92.604C86.7353 93.236 86.9153 93.98 86.9153 94.836C86.9153 95.692 86.7353 96.436 86.3753 97.068C86.0233 97.692 85.5113 98.172 84.8393 98.508C84.1753 98.836 83.3873 99 82.4753 99H79.8713V90.636H82.4753ZM82.4753 98.1C83.5553 98.1 84.3793 97.816 84.9473 97.248C85.5153 96.672 85.7993 95.868 85.7993 94.836C85.7993 93.796 85.5113 92.984 84.9353 92.4C84.3673 91.816 83.5473 91.524 82.4753 91.524H80.9633V98.1H82.4753ZM89.4476 93.492C89.6396 93.116 89.9116 92.824 90.2636 92.616C90.6236 92.408 91.0596 92.304 91.5716 92.304V93.432H91.2836C90.0596 93.432 89.4476 94.096 89.4476 95.424V99H88.3556V92.424H89.4476V93.492ZM92.4242 95.688C92.4242 95.016 92.5602 94.428 92.8322 93.924C93.1042 93.412 93.4762 93.016 93.9482 92.736C94.4282 92.456 94.9602 92.316 95.5442 92.316C96.1202 92.316 96.6202 92.44 97.0442 92.688C97.4682 92.936 97.7842 93.248 97.9922 93.624V92.424H99.0962V99H97.9922V97.776C97.7762 98.16 97.4522 98.48 97.0202 98.736C96.5962 98.984 96.1002 99.108 95.5322 99.108C94.9482 99.108 94.4202 98.964 93.9482 98.676C93.4762 98.388 93.1042 97.984 92.8322 97.464C92.5602 96.944 92.4242 96.352 92.4242 95.688ZM97.9922 95.7C97.9922 95.204 97.8922 94.772 97.6922 94.404C97.4922 94.036 97.2202 93.756 96.8762 93.564C96.5402 93.364 96.1682 93.264 95.7602 93.264C95.3522 93.264 94.9802 93.36 94.6442 93.552C94.3082 93.744 94.0402 94.024 93.8402 94.392C93.6402 94.76 93.5402 95.192 93.5402 95.688C93.5402 96.192 93.6402 96.632 93.8402 97.008C94.0402 97.376 94.3082 97.66 94.6442 97.86C94.9802 98.052 95.3522 98.148 95.7602 98.148C96.1682 98.148 96.5402 98.052 96.8762 97.86C97.2202 97.66 97.4922 97.376 97.6922 97.008C97.8922 96.632 97.9922 96.196 97.9922 95.7ZM103.654 92.316C104.222 92.316 104.718 92.44 105.142 92.688C105.574 92.936 105.894 93.248 106.102 93.624V92.424H107.206V99.144C107.206 99.744 107.078 100.276 106.822 100.74C106.566 101.212 106.198 101.58 105.718 101.844C105.246 102.108 104.694 102.24 104.062 102.24C103.198 102.24 102.478 102.036 101.902 101.628C101.326 101.22 100.986 100.664 100.882 99.96H101.962C102.082 100.36 102.33 100.68 102.706 100.92C103.082 101.168 103.534 101.292 104.062 101.292C104.662 101.292 105.15 101.104 105.526 100.728C105.91 100.352 106.102 99.824 106.102 99.144V97.764C105.886 98.148 105.566 98.468 105.142 98.724C104.718 98.98 104.222 99.108 103.654 99.108C103.07 99.108 102.538 98.964 102.058 98.676C101.586 98.388 101.214 97.984 100.942 97.464C100.67 96.944 100.534 96.352 100.534 95.688C100.534 95.016 100.67 94.428 100.942 93.924C101.214 93.412 101.586 93.016 102.058 92.736C102.538 92.456 103.07 92.316 103.654 92.316ZM106.102 95.7C106.102 95.204 106.002 94.772 105.802 94.404C105.602 94.036 105.33 93.756 104.986 93.564C104.65 93.364 104.278 93.264 103.87 93.264C103.462 93.264 103.09 93.36 102.754 93.552C102.418 93.744 102.15 94.024 101.95 94.392C101.75 94.76 101.65 95.192 101.65 95.688C101.65 96.192 101.75 96.632 101.95 97.008C102.15 97.376 102.418 97.66 102.754 97.86C103.09 98.052 103.462 98.148 103.87 98.148C104.278 98.148 104.65 98.052 104.986 97.86C105.33 97.66 105.602 97.376 105.802 97.008C106.002 96.632 106.102 96.196 106.102 95.7ZM117.914 92.424L113.954 102.096H112.826L114.122 98.928L111.47 92.424H112.682L114.746 97.752L116.786 92.424H117.914ZM121.88 99.108C121.264 99.108 120.704 98.968 120.2 98.688C119.704 98.408 119.312 98.012 119.024 97.5C118.744 96.98 118.604 96.38 118.604 95.7C118.604 95.028 118.748 94.436 119.036 93.924C119.332 93.404 119.732 93.008 120.236 92.736C120.74 92.456 121.304 92.316 121.928 92.316C122.552 92.316 123.116 92.456 123.62 92.736C124.124 93.008 124.52 93.4 124.808 93.912C125.104 94.424 125.252 95.02 125.252 95.7C125.252 96.38 125.1 96.98 124.796 97.5C124.5 98.012 124.096 98.408 123.584 98.688C123.072 98.968 122.504 99.108 121.88 99.108ZM121.88 98.148C122.272 98.148 122.64 98.056 122.984 97.872C123.328 97.688 123.604 97.412 123.812 97.044C124.028 96.676 124.136 96.228 124.136 95.7C124.136 95.172 124.032 94.724 123.824 94.356C123.616 93.988 123.344 93.716 123.008 93.54C122.672 93.356 122.308 93.264 121.916 93.264C121.516 93.264 121.148 93.356 120.812 93.54C120.484 93.716 120.22 93.988 120.02 94.356C119.82 94.724 119.72 95.172 119.72 95.7C119.72 96.236 119.816 96.688 120.008 97.056C120.208 97.424 120.472 97.7 120.8 97.884C121.128 98.06 121.488 98.148 121.88 98.148ZM132.52 92.424V99H131.428V98.028C131.22 98.364 130.928 98.628 130.552 98.82C130.184 99.004 129.776 99.096 129.328 99.096C128.816 99.096 128.356 98.992 127.948 98.784C127.54 98.568 127.216 98.248 126.976 97.824C126.744 97.4 126.628 96.884 126.628 96.276V92.424H127.708V96.132C127.708 96.78 127.872 97.28 128.2 97.632C128.528 97.976 128.976 98.148 129.544 98.148C130.128 98.148 130.588 97.968 130.924 97.608C131.26 97.248 131.428 96.724 131.428 96.036V92.424H132.52ZM135.455 93.492C135.647 93.116 135.919 92.824 136.271 92.616C136.631 92.408 137.067 92.304 137.579 92.304V93.432H137.291C136.067 93.432 135.455 94.096 135.455 95.424V99H134.363V92.424H135.455V93.492ZM144.715 93.324H143.335V99H142.243V93.324H141.391V92.424H142.243V91.956C142.243 91.22 142.431 90.684 142.807 90.348C143.191 90.004 143.803 89.832 144.643 89.832V90.744C144.163 90.744 143.823 90.84 143.623 91.032C143.431 91.216 143.335 91.524 143.335 91.956V92.424H144.715V93.324ZM146.552 91.356C146.344 91.356 146.168 91.284 146.024 91.14C145.88 90.996 145.808 90.82 145.808 90.612C145.808 90.404 145.88 90.228 146.024 90.084C146.168 89.94 146.344 89.868 146.552 89.868C146.752 89.868 146.92 89.94 147.056 90.084C147.2 90.228 147.272 90.404 147.272 90.612C147.272 90.82 147.2 90.996 147.056 91.14C146.92 91.284 146.752 91.356 146.552 91.356ZM147.08 92.424V99H145.988V92.424H147.08ZM150.034 93.492C150.226 93.116 150.498 92.824 150.85 92.616C151.21 92.408 151.646 92.304 152.158 92.304V93.432H151.87C150.646 93.432 150.034 94.096 150.034 95.424V99H148.942V92.424H150.034V93.492ZM155.746 99.108C155.242 99.108 154.79 99.024 154.39 98.856C153.99 98.68 153.674 98.44 153.442 98.136C153.21 97.824 153.082 97.468 153.058 97.068H154.186C154.218 97.396 154.37 97.664 154.642 97.872C154.922 98.08 155.286 98.184 155.734 98.184C156.15 98.184 156.478 98.092 156.718 97.908C156.958 97.724 157.078 97.492 157.078 97.212C157.078 96.924 156.95 96.712 156.694 96.576C156.438 96.432 156.042 96.292 155.506 96.156C155.018 96.028 154.618 95.9 154.306 95.772C154.002 95.636 153.738 95.44 153.514 95.184C153.298 94.92 153.19 94.576 153.19 94.152C153.19 93.816 153.29 93.508 153.49 93.228C153.69 92.948 153.974 92.728 154.342 92.568C154.71 92.4 155.13 92.316 155.602 92.316C156.33 92.316 156.918 92.5 157.366 92.868C157.814 93.236 158.054 93.74 158.086 94.38H156.994C156.97 94.036 156.83 93.76 156.574 93.552C156.326 93.344 155.99 93.24 155.566 93.24C155.174 93.24 154.862 93.324 154.63 93.492C154.398 93.66 154.282 93.88 154.282 94.152C154.282 94.368 154.35 94.548 154.486 94.692C154.63 94.828 154.806 94.94 155.014 95.028C155.23 95.108 155.526 95.2 155.902 95.304C156.374 95.432 156.758 95.56 157.054 95.688C157.35 95.808 157.602 95.992 157.81 96.24C158.026 96.488 158.138 96.812 158.146 97.212C158.146 97.572 158.046 97.896 157.846 98.184C157.646 98.472 157.362 98.7 156.994 98.868C156.634 99.028 156.218 99.108 155.746 99.108ZM161.02 93.324V97.2C161.02 97.52 161.088 97.748 161.224 97.884C161.36 98.012 161.596 98.076 161.932 98.076H162.736V99H161.752C161.144 99 160.688 98.86 160.384 98.58C160.08 98.3 159.928 97.84 159.928 97.2V93.324H159.076V92.424H159.928V90.768H161.02V92.424H162.736V93.324H161.02ZM167.822 91.356C167.614 91.356 167.438 91.284 167.294 91.14C167.15 90.996 167.078 90.82 167.078 90.612C167.078 90.404 167.15 90.228 167.294 90.084C167.438 89.94 167.614 89.868 167.822 89.868C168.022 89.868 168.19 89.94 168.326 90.084C168.47 90.228 168.542 90.404 168.542 90.612C168.542 90.82 168.47 90.996 168.326 91.14C168.19 91.284 168.022 91.356 167.822 91.356ZM168.35 92.424V99H167.258V92.424H168.35ZM173.415 92.304C174.215 92.304 174.863 92.548 175.359 93.036C175.855 93.516 176.103 94.212 176.103 95.124V99H175.023V95.28C175.023 94.624 174.859 94.124 174.531 93.78C174.203 93.428 173.755 93.252 173.187 93.252C172.611 93.252 172.151 93.432 171.807 93.792C171.471 94.152 171.303 94.676 171.303 95.364V99H170.211V92.424H171.303V93.36C171.519 93.024 171.811 92.764 172.179 92.58C172.555 92.396 172.967 92.304 173.415 92.304ZM179.219 93.324V97.2C179.219 97.52 179.287 97.748 179.423 97.884C179.559 98.012 179.795 98.076 180.131 98.076H180.935V99H179.951C179.343 99 178.887 98.86 178.583 98.58C178.279 98.3 178.127 97.84 178.127 97.2V93.324H177.275V92.424H178.127V90.768H179.219V92.424H180.935V93.324H179.219ZM188.258 95.46C188.258 95.668 188.246 95.888 188.222 96.12H182.966C183.006 96.768 183.226 97.276 183.626 97.644C184.034 98.004 184.526 98.184 185.102 98.184C185.574 98.184 185.966 98.076 186.278 97.86C186.598 97.636 186.822 97.34 186.95 96.972H188.126C187.95 97.604 187.598 98.12 187.07 98.52C186.542 98.912 185.886 99.108 185.102 99.108C184.478 99.108 183.918 98.968 183.422 98.688C182.934 98.408 182.55 98.012 182.27 97.5C181.99 96.98 181.85 96.38 181.85 95.7C181.85 95.02 181.986 94.424 182.258 93.912C182.53 93.4 182.91 93.008 183.398 92.736C183.894 92.456 184.462 92.316 185.102 92.316C185.726 92.316 186.278 92.452 186.758 92.724C187.238 92.996 187.606 93.372 187.862 93.852C188.126 94.324 188.258 94.86 188.258 95.46ZM187.13 95.232C187.13 94.816 187.038 94.46 186.854 94.164C186.67 93.86 186.418 93.632 186.098 93.48C185.786 93.32 185.438 93.24 185.054 93.24C184.502 93.24 184.03 93.416 183.638 93.768C183.254 94.12 183.034 94.608 182.978 95.232H187.13ZM190.791 93.492C190.983 93.116 191.255 92.824 191.607 92.616C191.967 92.408 192.403 92.304 192.915 92.304V93.432H192.627C191.403 93.432 190.791 94.096 190.791 95.424V99H189.699V92.424H190.791V93.492ZM193.768 95.688C193.768 95.016 193.904 94.428 194.176 93.924C194.448 93.412 194.82 93.016 195.292 92.736C195.772 92.456 196.304 92.316 196.888 92.316C197.464 92.316 197.964 92.44 198.388 92.688C198.812 92.936 199.128 93.248 199.336 93.624V92.424H200.44V99H199.336V97.776C199.12 98.16 198.796 98.48 198.364 98.736C197.94 98.984 197.444 99.108 196.876 99.108C196.292 99.108 195.764 98.964 195.292 98.676C194.82 98.388 194.448 97.984 194.176 97.464C193.904 96.944 193.768 96.352 193.768 95.688ZM199.336 95.7C199.336 95.204 199.236 94.772 199.036 94.404C198.836 94.036 198.564 93.756 198.22 93.564C197.884 93.364 197.512 93.264 197.104 93.264C196.696 93.264 196.324 93.36 195.988 93.552C195.652 93.744 195.384 94.024 195.184 94.392C194.984 94.76 194.884 95.192 194.884 95.688C194.884 96.192 194.984 96.632 195.184 97.008C195.384 97.376 195.652 97.66 195.988 97.86C196.324 98.052 196.696 98.148 197.104 98.148C197.512 98.148 197.884 98.052 198.22 97.86C198.564 97.66 198.836 97.376 199.036 97.008C199.236 96.632 199.336 96.196 199.336 95.7ZM201.877 95.7C201.877 95.02 202.013 94.428 202.285 93.924C202.557 93.412 202.933 93.016 203.413 92.736C203.901 92.456 204.457 92.316 205.081 92.316C205.889 92.316 206.553 92.512 207.073 92.904C207.601 93.296 207.949 93.84 208.117 94.536H206.941C206.829 94.136 206.609 93.82 206.281 93.588C205.961 93.356 205.561 93.24 205.081 93.24C204.457 93.24 203.953 93.456 203.569 93.888C203.185 94.312 202.993 94.916 202.993 95.7C202.993 96.492 203.185 97.104 203.569 97.536C203.953 97.968 204.457 98.184 205.081 98.184C205.561 98.184 205.961 98.072 206.281 97.848C206.601 97.624 206.821 97.304 206.941 96.888H208.117C207.941 97.56 207.589 98.1 207.061 98.508C206.533 98.908 205.873 99.108 205.081 99.108C204.457 99.108 203.901 98.968 203.413 98.688C202.933 98.408 202.557 98.012 202.285 97.5C202.013 96.988 201.877 96.388 201.877 95.7ZM210.906 93.324V97.2C210.906 97.52 210.974 97.748 211.11 97.884C211.246 98.012 211.482 98.076 211.818 98.076H212.622V99H211.638C211.03 99 210.574 98.86 210.27 98.58C209.966 98.3 209.814 97.84 209.814 97.2V93.324H208.962V92.424H209.814V90.768H210.906V92.424H212.622V93.324H210.906ZM214.509 91.356C214.301 91.356 214.125 91.284 213.981 91.14C213.837 90.996 213.765 90.82 213.765 90.612C213.765 90.404 213.837 90.228 213.981 90.084C214.125 89.94 214.301 89.868 214.509 89.868C214.709 89.868 214.877 89.94 215.013 90.084C215.157 90.228 215.229 90.404 215.229 90.612C215.229 90.82 215.157 90.996 215.013 91.14C214.877 91.284 214.709 91.356 214.509 91.356ZM215.037 92.424V99H213.945V92.424H215.037ZM219.767 99.108C219.151 99.108 218.591 98.968 218.087 98.688C217.591 98.408 217.199 98.012 216.911 97.5C216.631 96.98 216.491 96.38 216.491 95.7C216.491 95.028 216.635 94.436 216.923 93.924C217.219 93.404 217.619 93.008 218.123 92.736C218.627 92.456 219.191 92.316 219.815 92.316C220.439 92.316 221.003 92.456 221.507 92.736C222.011 93.008 222.407 93.4 222.695 93.912C222.991 94.424 223.139 95.02 223.139 95.7C223.139 96.38 222.987 96.98 222.683 97.5C222.387 98.012 221.983 98.408 221.471 98.688C220.959 98.968 220.391 99.108 219.767 99.108ZM219.767 98.148C220.159 98.148 220.527 98.056 220.871 97.872C221.215 97.688 221.491 97.412 221.699 97.044C221.915 96.676 222.023 96.228 222.023 95.7C222.023 95.172 221.919 94.724 221.711 94.356C221.503 93.988 221.231 93.716 220.895 93.54C220.559 93.356 220.195 93.264 219.803 93.264C219.403 93.264 219.035 93.356 218.699 93.54C218.371 93.716 218.107 93.988 217.907 94.356C217.707 94.724 217.607 95.172 217.607 95.7C217.607 96.236 217.703 96.688 217.895 97.056C218.095 97.424 218.359 97.7 218.687 97.884C219.015 98.06 219.375 98.148 219.767 98.148ZM227.778 92.304C228.578 92.304 229.226 92.548 229.722 93.036C230.218 93.516 230.466 94.212 230.466 95.124V99H229.386V95.28C229.386 94.624 229.222 94.124 228.894 93.78C228.566 93.428 228.118 93.252 227.55 93.252C226.974 93.252 226.514 93.432 226.17 93.792C225.834 94.152 225.666 94.676 225.666 95.364V99H224.574V92.424H225.666V93.36C225.882 93.024 226.174 92.764 226.542 92.58C226.918 92.396 227.33 92.304 227.778 92.304ZM233.378 97.488L232.034 100.716H231.302L232.178 97.488H233.378ZM237.42 95.688C237.42 95.016 237.556 94.428 237.828 93.924C238.1 93.412 238.472 93.016 238.944 92.736C239.424 92.456 239.96 92.316 240.552 92.316C241.064 92.316 241.54 92.436 241.98 92.676C242.42 92.908 242.756 93.216 242.988 93.6V90.12H244.092V99H242.988V97.764C242.772 98.156 242.452 98.48 242.028 98.736C241.604 98.984 241.108 99.108 240.54 99.108C239.956 99.108 239.424 98.964 238.944 98.676C238.472 98.388 238.1 97.984 237.828 97.464C237.556 96.944 237.42 96.352 237.42 95.688ZM242.988 95.7C242.988 95.204 242.888 94.772 242.688 94.404C242.488 94.036 242.216 93.756 241.872 93.564C241.536 93.364 241.164 93.264 240.756 93.264C240.348 93.264 239.976 93.36 239.64 93.552C239.304 93.744 239.036 94.024 238.836 94.392C238.636 94.76 238.536 95.192 238.536 95.688C238.536 96.192 238.636 96.632 238.836 97.008C239.036 97.376 239.304 97.66 239.64 97.86C239.976 98.052 240.348 98.148 240.756 98.148C241.164 98.148 241.536 98.052 241.872 97.86C242.216 97.66 242.488 97.376 242.688 97.008C242.888 96.632 242.988 96.196 242.988 95.7ZM251.938 95.46C251.938 95.668 251.926 95.888 251.902 96.12H246.646C246.686 96.768 246.906 97.276 247.306 97.644C247.714 98.004 248.206 98.184 248.782 98.184C249.254 98.184 249.646 98.076 249.958 97.86C250.278 97.636 250.502 97.34 250.63 96.972H251.806C251.63 97.604 251.278 98.12 250.75 98.52C250.222 98.912 249.566 99.108 248.782 99.108C248.158 99.108 247.598 98.968 247.102 98.688C246.614 98.408 246.23 98.012 245.95 97.5C245.67 96.98 245.53 96.38 245.53 95.7C245.53 95.02 245.666 94.424 245.938 93.912C246.21 93.4 246.59 93.008 247.078 92.736C247.574 92.456 248.142 92.316 248.782 92.316C249.406 92.316 249.958 92.452 250.438 92.724C250.918 92.996 251.286 93.372 251.542 93.852C251.806 94.324 251.938 94.86 251.938 95.46ZM250.81 95.232C250.81 94.816 250.718 94.46 250.534 94.164C250.35 93.86 250.098 93.632 249.778 93.48C249.466 93.32 249.118 93.24 248.734 93.24C248.182 93.24 247.71 93.416 247.318 93.768C246.934 94.12 246.714 94.608 246.658 95.232H250.81ZM261.287 92.304C261.799 92.304 262.255 92.412 262.655 92.628C263.055 92.836 263.371 93.152 263.603 93.576C263.835 94 263.951 94.516 263.951 95.124V99H262.871V95.28C262.871 94.624 262.707 94.124 262.379 93.78C262.059 93.428 261.623 93.252 261.071 93.252C260.503 93.252 260.051 93.436 259.715 93.804C259.379 94.164 259.211 94.688 259.211 95.376V99H258.131V95.28C258.131 94.624 257.967 94.124 257.639 93.78C257.319 93.428 256.883 93.252 256.331 93.252C255.763 93.252 255.311 93.436 254.975 93.804C254.639 94.164 254.471 94.688 254.471 95.376V99H253.379V92.424H254.471V93.372C254.687 93.028 254.975 92.764 255.335 92.58C255.703 92.396 256.107 92.304 256.547 92.304C257.099 92.304 257.587 92.428 258.011 92.676C258.435 92.924 258.751 93.288 258.959 93.768C259.143 93.304 259.447 92.944 259.871 92.688C260.295 92.432 260.767 92.304 261.287 92.304ZM268.61 99.108C267.994 99.108 267.434 98.968 266.93 98.688C266.434 98.408 266.042 98.012 265.754 97.5C265.474 96.98 265.334 96.38 265.334 95.7C265.334 95.028 265.478 94.436 265.766 93.924C266.062 93.404 266.462 93.008 266.966 92.736C267.47 92.456 268.034 92.316 268.658 92.316C269.282 92.316 269.846 92.456 270.35 92.736C270.854 93.008 271.25 93.4 271.538 93.912C271.834 94.424 271.982 95.02 271.982 95.7C271.982 96.38 271.83 96.98 271.526 97.5C271.23 98.012 270.826 98.408 270.314 98.688C269.802 98.968 269.234 99.108 268.61 99.108ZM268.61 98.148C269.002 98.148 269.37 98.056 269.714 97.872C270.058 97.688 270.334 97.412 270.542 97.044C270.758 96.676 270.866 96.228 270.866 95.7C270.866 95.172 270.762 94.724 270.554 94.356C270.346 93.988 270.074 93.716 269.738 93.54C269.402 93.356 269.038 93.264 268.646 93.264C268.246 93.264 267.878 93.356 267.542 93.54C267.214 93.716 266.95 93.988 266.75 94.356C266.55 94.724 266.45 95.172 266.45 95.7C266.45 96.236 266.546 96.688 266.738 97.056C266.938 97.424 267.202 97.7 267.53 97.884C267.858 98.06 268.218 98.148 268.61 98.148ZM279.485 99.108C278.869 99.108 278.309 98.968 277.805 98.688C277.309 98.408 276.917 98.012 276.629 97.5C276.349 96.98 276.209 96.38 276.209 95.7C276.209 95.028 276.353 94.436 276.641 93.924C276.937 93.404 277.337 93.008 277.841 92.736C278.345 92.456 278.909 92.316 279.533 92.316C280.157 92.316 280.721 92.456 281.225 92.736C281.729 93.008 282.125 93.4 282.413 93.912C282.709 94.424 282.857 95.02 282.857 95.7C282.857 96.38 282.705 96.98 282.401 97.5C282.105 98.012 281.701 98.408 281.189 98.688C280.677 98.968 280.109 99.108 279.485 99.108ZM279.485 98.148C279.877 98.148 280.245 98.056 280.589 97.872C280.933 97.688 281.209 97.412 281.417 97.044C281.633 96.676 281.741 96.228 281.741 95.7C281.741 95.172 281.637 94.724 281.429 94.356C281.221 93.988 280.949 93.716 280.613 93.54C280.277 93.356 279.913 93.264 279.521 93.264C279.121 93.264 278.753 93.356 278.417 93.54C278.089 93.716 277.825 93.988 277.625 94.356C277.425 94.724 277.325 95.172 277.325 95.7C277.325 96.236 277.421 96.688 277.613 97.056C277.813 97.424 278.077 97.7 278.405 97.884C278.733 98.06 279.093 98.148 279.485 98.148ZM285.385 93.492C285.577 93.116 285.849 92.824 286.201 92.616C286.561 92.408 286.997 92.304 287.509 92.304V93.432H287.221C285.997 93.432 285.385 94.096 285.385 95.424V99H284.293V92.424H285.385V93.492ZM293.301 93.324V97.2C293.301 97.52 293.369 97.748 293.505 97.884C293.641 98.012 293.877 98.076 294.213 98.076H295.017V99H294.033C293.425 99 292.969 98.86 292.665 98.58C292.361 98.3 292.209 97.84 292.209 97.2V93.324H291.357V92.424H292.209V90.768H293.301V92.424H295.017V93.324H293.301ZM299.208 99.108C298.592 99.108 298.032 98.968 297.528 98.688C297.032 98.408 296.64 98.012 296.352 97.5C296.072 96.98 295.932 96.38 295.932 95.7C295.932 95.028 296.076 94.436 296.364 93.924C296.66 93.404 297.06 93.008 297.564 92.736C298.068 92.456 298.632 92.316 299.256 92.316C299.88 92.316 300.444 92.456 300.948 92.736C301.452 93.008 301.848 93.4 302.136 93.912C302.432 94.424 302.58 95.02 302.58 95.7C302.58 96.38 302.428 96.98 302.124 97.5C301.828 98.012 301.424 98.408 300.912 98.688C300.4 98.968 299.832 99.108 299.208 99.108ZM299.208 98.148C299.6 98.148 299.968 98.056 300.312 97.872C300.656 97.688 300.932 97.412 301.14 97.044C301.356 96.676 301.464 96.228 301.464 95.7C301.464 95.172 301.36 94.724 301.152 94.356C300.944 93.988 300.672 93.716 300.336 93.54C300 93.356 299.636 93.264 299.244 93.264C298.844 93.264 298.476 93.356 298.14 93.54C297.812 93.716 297.548 93.988 297.348 94.356C297.148 94.724 297.048 95.172 297.048 95.7C297.048 96.236 297.144 96.688 297.336 97.056C297.536 97.424 297.8 97.7 298.128 97.884C298.456 98.06 298.816 98.148 299.208 98.148ZM309.848 92.424V99H308.756V98.028C308.548 98.364 308.256 98.628 307.88 98.82C307.512 99.004 307.104 99.096 306.656 99.096C306.144 99.096 305.684 98.992 305.276 98.784C304.868 98.568 304.544 98.248 304.304 97.824C304.072 97.4 303.956 96.884 303.956 96.276V92.424H305.036V96.132C305.036 96.78 305.2 97.28 305.528 97.632C305.856 97.976 306.304 98.148 306.872 98.148C307.456 98.148 307.916 97.968 308.252 97.608C308.588 97.248 308.756 96.724 308.756 96.036V92.424H309.848ZM312.784 93.492C312.976 93.116 313.248 92.824 313.6 92.616C313.96 92.408 314.396 92.304 314.908 92.304V93.432H314.62C313.396 93.432 312.784 94.096 312.784 95.424V99H311.692V92.424H312.784V93.492ZM322.631 92.304C323.127 92.304 323.575 92.412 323.975 92.628C324.375 92.836 324.687 93.152 324.911 93.576C325.143 94 325.259 94.516 325.259 95.124V99H324.179V95.28C324.179 94.624 324.015 94.124 323.687 93.78C323.359 93.428 322.911 93.252 322.343 93.252C321.767 93.252 321.307 93.432 320.963 93.792C320.627 94.152 320.459 94.676 320.459 95.364V99H319.367V90.12H320.459V93.36C320.675 93.024 320.971 92.764 321.347 92.58C321.731 92.396 322.159 92.304 322.631 92.304ZM333.043 95.46C333.043 95.668 333.031 95.888 333.007 96.12H327.751C327.791 96.768 328.011 97.276 328.411 97.644C328.819 98.004 329.311 98.184 329.887 98.184C330.359 98.184 330.751 98.076 331.063 97.86C331.383 97.636 331.607 97.34 331.735 96.972H332.911C332.735 97.604 332.383 98.12 331.855 98.52C331.327 98.912 330.671 99.108 329.887 99.108C329.263 99.108 328.703 98.968 328.207 98.688C327.719 98.408 327.335 98.012 327.055 97.5C326.775 96.98 326.635 96.38 326.635 95.7C326.635 95.02 326.771 94.424 327.043 93.912C327.315 93.4 327.695 93.008 328.183 92.736C328.679 92.456 329.247 92.316 329.887 92.316C330.511 92.316 331.063 92.452 331.543 92.724C332.023 92.996 332.391 93.372 332.647 93.852C332.911 94.324 333.043 94.86 333.043 95.46ZM331.915 95.232C331.915 94.816 331.823 94.46 331.639 94.164C331.455 93.86 331.203 93.632 330.883 93.48C330.571 93.32 330.223 93.24 329.839 93.24C329.287 93.24 328.815 93.416 328.423 93.768C328.039 94.12 327.819 94.608 327.763 95.232H331.915ZM335.577 93.492C335.769 93.116 336.041 92.824 336.393 92.616C336.753 92.408 337.189 92.304 337.701 92.304V93.432H337.413C336.189 93.432 335.577 94.096 335.577 95.424V99H334.485V92.424H335.577V93.492ZM344.961 95.46C344.961 95.668 344.949 95.888 344.925 96.12H339.669C339.709 96.768 339.929 97.276 340.329 97.644C340.737 98.004 341.229 98.184 341.805 98.184C342.277 98.184 342.669 98.076 342.981 97.86C343.301 97.636 343.525 97.34 343.653 96.972H344.829C344.653 97.604 344.301 98.12 343.773 98.52C343.245 98.912 342.589 99.108 341.805 99.108C341.181 99.108 340.621 98.968 340.125 98.688C339.637 98.408 339.253 98.012 338.973 97.5C338.693 96.98 338.553 96.38 338.553 95.7C338.553 95.02 338.689 94.424 338.961 93.912C339.233 93.4 339.613 93.008 340.101 92.736C340.597 92.456 341.165 92.316 341.805 92.316C342.429 92.316 342.981 92.452 343.461 92.724C343.941 92.996 344.309 93.372 344.565 93.852C344.829 94.324 344.961 94.86 344.961 95.46ZM343.833 95.232C343.833 94.816 343.741 94.46 343.557 94.164C343.373 93.86 343.121 93.632 342.801 93.48C342.489 93.32 342.141 93.24 341.757 93.24C341.205 93.24 340.733 93.416 340.341 93.768C339.957 94.12 339.737 94.608 339.681 95.232H343.833ZM347.819 90.636L347.687 96.636H346.775L346.643 90.636H347.819ZM347.279 99.072C347.071 99.072 346.895 99 346.751 98.856C346.607 98.712 346.535 98.536 346.535 98.328C346.535 98.12 346.607 97.944 346.751 97.8C346.895 97.656 347.071 97.584 347.279 97.584C347.479 97.584 347.647 97.656 347.783 97.8C347.927 97.944 347.999 98.12 347.999 98.328C347.999 98.536 347.927 98.712 347.783 98.856C347.647 99 347.479 99.072 347.279 99.072Z" fill="black"/>
</svg>
