<svg width="335" height="335" viewBox="0 0 335 335" fill="none" xmlns="http://www.w3.org/2000/svg">
<rect x="0.5" y="0.5" width="333.706" height="334" rx="15.5" fill="white" stroke="#D0CBC6"/>
<path d="M33.8797 39.084C33.2957 39.084 32.7677 38.984 32.2957 38.784C31.8317 38.584 31.4637 38.296 31.1917 37.92C30.9197 37.544 30.7797 37.1 30.7717 36.588H32.5717C32.5957 36.932 32.7157 37.204 32.9317 37.404C33.1557 37.604 33.4597 37.704 33.8437 37.704C34.2357 37.704 34.5437 37.612 34.7677 37.428C34.9917 37.236 35.1037 36.988 35.1037 36.684C35.1037 36.436 35.0277 36.232 34.8757 36.072C34.7237 35.912 34.5317 35.788 34.2997 35.7C34.0757 35.604 33.7637 35.5 33.3637 35.388C32.8197 35.228 32.3757 35.072 32.0317 34.92C31.6957 34.76 31.4037 34.524 31.1557 34.212C30.9157 33.892 30.7957 33.468 30.7957 32.94C30.7957 32.444 30.9197 32.012 31.1677 31.644C31.4157 31.276 31.7637 30.996 32.2117 30.804C32.6597 30.604 33.1717 30.504 33.7477 30.504C34.6117 30.504 35.3117 30.716 35.8477 31.14C36.3917 31.556 36.6917 32.14 36.7477 32.892H34.8997C34.8837 32.604 34.7597 32.368 34.5277 32.184C34.3037 31.992 34.0037 31.896 33.6277 31.896C33.2997 31.896 33.0357 31.98 32.8357 32.148C32.6437 32.316 32.5477 32.56 32.5477 32.88C32.5477 33.104 32.6197 33.292 32.7637 33.444C32.9157 33.588 33.0997 33.708 33.3157 33.804C33.5397 33.892 33.8517 33.996 34.2517 34.116C34.7957 34.276 35.2397 34.436 35.5837 34.596C35.9277 34.756 36.2237 34.996 36.4717 35.316C36.7197 35.636 36.8437 36.056 36.8437 36.576C36.8437 37.024 36.7277 37.44 36.4957 37.824C36.2637 38.208 35.9237 38.516 35.4757 38.748C35.0277 38.972 34.4957 39.084 33.8797 39.084ZM40.2562 33.732V36.948C40.2562 37.172 40.3082 37.336 40.4122 37.44C40.5242 37.536 40.7082 37.584 40.9642 37.584H41.7442V39H40.6882C39.2722 39 38.5642 38.312 38.5642 36.936V33.732H37.7722V32.352H38.5642V30.708H40.2562V32.352H41.7442V33.732H40.2562ZM42.5205 35.652C42.5205 34.98 42.6525 34.384 42.9165 33.864C43.1885 33.344 43.5525 32.944 44.0085 32.664C44.4725 32.384 44.9885 32.244 45.5565 32.244C46.0525 32.244 46.4845 32.344 46.8525 32.544C47.2285 32.744 47.5285 32.996 47.7525 33.3V32.352H49.4445V39H47.7525V38.028C47.5365 38.34 47.2365 38.6 46.8525 38.808C46.4765 39.008 46.0405 39.108 45.5445 39.108C44.9845 39.108 44.4725 38.964 44.0085 38.676C43.5525 38.388 43.1885 37.984 42.9165 37.464C42.6525 36.936 42.5205 36.332 42.5205 35.652ZM47.7525 35.676C47.7525 35.268 47.6725 34.92 47.5125 34.632C47.3525 34.336 47.1365 34.112 46.8645 33.96C46.5925 33.8 46.3005 33.72 45.9885 33.72C45.6765 33.72 45.3885 33.796 45.1245 33.948C44.8605 34.1 44.6445 34.324 44.4765 34.62C44.3165 34.908 44.2365 35.252 44.2365 35.652C44.2365 36.052 44.3165 36.404 44.4765 36.708C44.6445 37.004 44.8605 37.232 45.1245 37.392C45.3965 37.552 45.6845 37.632 45.9885 37.632C46.3005 37.632 46.5925 37.556 46.8645 37.404C47.1365 37.244 47.3525 37.02 47.5125 36.732C47.6725 36.436 47.7525 36.084 47.7525 35.676ZM52.7653 33.384C52.9813 33.032 53.2613 32.756 53.6053 32.556C53.9573 32.356 54.3573 32.256 54.8053 32.256V34.02H54.3613C53.8333 34.02 53.4333 34.144 53.1613 34.392C52.8973 34.64 52.7653 35.072 52.7653 35.688V39H51.0853V32.352H52.7653V33.384ZM57.8929 33.732V36.948C57.8929 37.172 57.9449 37.336 58.0489 37.44C58.1609 37.536 58.3449 37.584 58.6009 37.584H59.3809V39H58.3249C56.9089 39 56.2009 38.312 56.2009 36.936V33.732H55.4089V32.352H56.2009V30.708H57.8929V32.352H59.3809V33.732H57.8929ZM65.1286 33.324C65.3446 33.004 65.6406 32.744 66.0166 32.544C66.4006 32.344 66.8366 32.244 67.3246 32.244C67.8926 32.244 68.4046 32.384 68.8606 32.664C69.3246 32.944 69.6886 33.344 69.9526 33.864C70.2246 34.376 70.3606 34.972 70.3606 35.652C70.3606 36.332 70.2246 36.936 69.9526 37.464C69.6886 37.984 69.3246 38.388 68.8606 38.676C68.4046 38.964 67.8926 39.108 67.3246 39.108C66.8286 39.108 66.3926 39.012 66.0166 38.82C65.6486 38.62 65.3526 38.364 65.1286 38.052V39H63.4486V30.12H65.1286V33.324ZM68.6446 35.652C68.6446 35.252 68.5606 34.908 68.3926 34.62C68.2326 34.324 68.0166 34.1 67.7446 33.948C67.4806 33.796 67.1926 33.72 66.8806 33.72C66.5766 33.72 66.2886 33.8 66.0166 33.96C65.7526 34.112 65.5366 34.336 65.3686 34.632C65.2086 34.928 65.1286 35.276 65.1286 35.676C65.1286 36.076 65.2086 36.424 65.3686 36.72C65.5366 37.016 65.7526 37.244 66.0166 37.404C66.2886 37.556 66.5766 37.632 66.8806 37.632C67.1926 37.632 67.4806 37.552 67.7446 37.392C68.0166 37.232 68.2326 37.004 68.3926 36.708C68.5606 36.412 68.6446 36.06 68.6446 35.652ZM77.9414 32.352L73.8254 42.144H72.0374L73.4774 38.832L70.8134 32.352H72.6974L74.4134 36.996L76.1534 32.352H77.9414ZM81.2744 35.652C81.2744 34.98 81.4064 34.384 81.6704 33.864C81.9424 33.344 82.3104 32.944 82.7744 32.664C83.2384 32.384 83.7544 32.244 84.3224 32.244C84.7544 32.244 85.1664 32.34 85.5584 32.532C85.9504 32.716 86.2624 32.964 86.4944 33.276V30.12H88.1984V39H86.4944V38.016C86.2864 38.344 85.9944 38.608 85.6184 38.808C85.2424 39.008 84.8064 39.108 84.3104 39.108C83.7504 39.108 83.2384 38.964 82.7744 38.676C82.3104 38.388 81.9424 37.984 81.6704 37.464C81.4064 36.936 81.2744 36.332 81.2744 35.652ZM86.5064 35.676C86.5064 35.268 86.4264 34.92 86.2664 34.632C86.1064 34.336 85.8904 34.112 85.6184 33.96C85.3464 33.8 85.0544 33.72 84.7424 33.72C84.4304 33.72 84.1424 33.796 83.8784 33.948C83.6144 34.1 83.3984 34.324 83.2304 34.62C83.0704 34.908 82.9904 35.252 82.9904 35.652C82.9904 36.052 83.0704 36.404 83.2304 36.708C83.3984 37.004 83.6144 37.232 83.8784 37.392C84.1504 37.552 84.4384 37.632 84.7424 37.632C85.0544 37.632 85.3464 37.556 85.6184 37.404C85.8904 37.244 86.1064 37.02 86.2664 36.732C86.4264 36.436 86.5064 36.084 86.5064 35.676ZM91.5192 33.384C91.7352 33.032 92.0152 32.756 92.3592 32.556C92.7112 32.356 93.1112 32.256 93.5592 32.256V34.02H93.1152C92.5872 34.02 92.1872 34.144 91.9152 34.392C91.6512 34.64 91.5192 35.072 91.5192 35.688V39H89.8392V32.352H91.5192V33.384ZM94.2588 35.652C94.2588 34.98 94.3908 34.384 94.6548 33.864C94.9268 33.344 95.2908 32.944 95.7468 32.664C96.2108 32.384 96.7268 32.244 97.2948 32.244C97.7908 32.244 98.2228 32.344 98.5908 32.544C98.9668 32.744 99.2668 32.996 99.4908 33.3V32.352H101.183V39H99.4908V38.028C99.2748 38.34 98.9748 38.6 98.5908 38.808C98.2148 39.008 97.7788 39.108 97.2828 39.108C96.7228 39.108 96.2108 38.964 95.7468 38.676C95.2908 38.388 94.9268 37.984 94.6548 37.464C94.3908 36.936 94.2588 36.332 94.2588 35.652ZM99.4908 35.676C99.4908 35.268 99.4108 34.92 99.2508 34.632C99.0908 34.336 98.8748 34.112 98.6028 33.96C98.3308 33.8 98.0388 33.72 97.7268 33.72C97.4148 33.72 97.1268 33.796 96.8628 33.948C96.5988 34.1 96.3828 34.324 96.2148 34.62C96.0548 34.908 95.9748 35.252 95.9748 35.652C95.9748 36.052 96.0548 36.404 96.2148 36.708C96.3828 37.004 96.5988 37.232 96.8628 37.392C97.1348 37.552 97.4228 37.632 97.7268 37.632C98.0388 37.632 98.3308 37.556 98.6028 37.404C98.8748 37.244 99.0908 37.02 99.2508 36.732C99.4108 36.436 99.4908 36.084 99.4908 35.676ZM105.428 32.244C105.924 32.244 106.36 32.344 106.736 32.544C107.112 32.736 107.408 32.988 107.624 33.3V32.352H109.316V39.048C109.316 39.664 109.192 40.212 108.944 40.692C108.696 41.18 108.324 41.564 107.828 41.844C107.332 42.132 106.732 42.276 106.028 42.276C105.084 42.276 104.308 42.056 103.7 41.616C103.1 41.176 102.76 40.576 102.68 39.816H104.348C104.436 40.12 104.624 40.36 104.912 40.536C105.208 40.72 105.564 40.812 105.98 40.812C106.468 40.812 106.864 40.664 107.168 40.368C107.472 40.08 107.624 39.64 107.624 39.048V38.016C107.408 38.328 107.108 38.588 106.724 38.796C106.348 39.004 105.916 39.108 105.428 39.108C104.868 39.108 104.356 38.964 103.892 38.676C103.428 38.388 103.06 37.984 102.788 37.464C102.524 36.936 102.392 36.332 102.392 35.652C102.392 34.98 102.524 34.384 102.788 33.864C103.06 33.344 103.424 32.944 103.88 32.664C104.344 32.384 104.86 32.244 105.428 32.244ZM107.624 35.676C107.624 35.268 107.544 34.92 107.384 34.632C107.224 34.336 107.008 34.112 106.736 33.96C106.464 33.8 106.172 33.72 105.86 33.72C105.548 33.72 105.26 33.796 104.996 33.948C104.732 34.1 104.516 34.324 104.348 34.62C104.188 34.908 104.108 35.252 104.108 35.652C104.108 36.052 104.188 36.404 104.348 36.708C104.516 37.004 104.732 37.232 104.996 37.392C105.268 37.552 105.556 37.632 105.86 37.632C106.172 37.632 106.464 37.556 106.736 37.404C107.008 37.244 107.224 37.02 107.384 36.732C107.544 36.436 107.624 36.084 107.624 35.676ZM113.56 32.244C114.056 32.244 114.492 32.344 114.868 32.544C115.244 32.736 115.54 32.988 115.756 33.3V32.352H117.448V39.048C117.448 39.664 117.324 40.212 117.076 40.692C116.828 41.18 116.456 41.564 115.96 41.844C115.464 42.132 114.864 42.276 114.16 42.276C113.216 42.276 112.44 42.056 111.832 41.616C111.232 41.176 110.892 40.576 110.812 39.816H112.48C112.568 40.12 112.756 40.36 113.044 40.536C113.34 40.72 113.696 40.812 114.112 40.812C114.6 40.812 114.996 40.664 115.3 40.368C115.604 40.08 115.756 39.64 115.756 39.048V38.016C115.54 38.328 115.24 38.588 114.856 38.796C114.48 39.004 114.048 39.108 113.56 39.108C113 39.108 112.488 38.964 112.024 38.676C111.56 38.388 111.192 37.984 110.92 37.464C110.656 36.936 110.524 36.332 110.524 35.652C110.524 34.98 110.656 34.384 110.92 33.864C111.192 33.344 111.556 32.944 112.012 32.664C112.476 32.384 112.992 32.244 113.56 32.244ZM115.756 35.676C115.756 35.268 115.676 34.92 115.516 34.632C115.356 34.336 115.14 34.112 114.868 33.96C114.596 33.8 114.304 33.72 113.992 33.72C113.68 33.72 113.392 33.796 113.128 33.948C112.864 34.1 112.648 34.324 112.48 34.62C112.32 34.908 112.24 35.252 112.24 35.652C112.24 36.052 112.32 36.404 112.48 36.708C112.648 37.004 112.864 37.232 113.128 37.392C113.4 37.552 113.688 37.632 113.992 37.632C114.304 37.632 114.596 37.556 114.868 37.404C115.14 37.244 115.356 37.02 115.516 36.732C115.676 36.436 115.756 36.084 115.756 35.676ZM119.941 31.56C119.645 31.56 119.397 31.468 119.197 31.284C119.005 31.092 118.909 30.856 118.909 30.576C118.909 30.296 119.005 30.064 119.197 29.88C119.397 29.688 119.645 29.592 119.941 29.592C120.237 29.592 120.481 29.688 120.673 29.88C120.873 30.064 120.973 30.296 120.973 30.576C120.973 30.856 120.873 31.092 120.673 31.284C120.481 31.468 120.237 31.56 119.941 31.56ZM120.769 32.352V39H119.089V32.352H120.769ZM126.113 32.256C126.905 32.256 127.545 32.508 128.033 33.012C128.521 33.508 128.765 34.204 128.765 35.1V39H127.085V35.328C127.085 34.8 126.953 34.396 126.689 34.116C126.425 33.828 126.065 33.684 125.609 33.684C125.145 33.684 124.777 33.828 124.505 34.116C124.241 34.396 124.109 34.8 124.109 35.328V39H122.429V32.352H124.109V33.18C124.333 32.892 124.617 32.668 124.961 32.508C125.313 32.34 125.697 32.256 126.113 32.256ZM132.967 32.244C133.463 32.244 133.899 32.344 134.275 32.544C134.651 32.736 134.947 32.988 135.163 33.3V32.352H136.855V39.048C136.855 39.664 136.731 40.212 136.483 40.692C136.235 41.18 135.863 41.564 135.367 41.844C134.871 42.132 134.271 42.276 133.567 42.276C132.623 42.276 131.847 42.056 131.239 41.616C130.639 41.176 130.299 40.576 130.219 39.816H131.887C131.975 40.12 132.163 40.36 132.451 40.536C132.747 40.72 133.103 40.812 133.519 40.812C134.007 40.812 134.403 40.664 134.707 40.368C135.011 40.08 135.163 39.64 135.163 39.048V38.016C134.947 38.328 134.647 38.588 134.263 38.796C133.887 39.004 133.455 39.108 132.967 39.108C132.407 39.108 131.895 38.964 131.431 38.676C130.967 38.388 130.599 37.984 130.327 37.464C130.063 36.936 129.931 36.332 129.931 35.652C129.931 34.98 130.063 34.384 130.327 33.864C130.599 33.344 130.963 32.944 131.419 32.664C131.883 32.384 132.399 32.244 132.967 32.244ZM135.163 35.676C135.163 35.268 135.083 34.92 134.923 34.632C134.763 34.336 134.547 34.112 134.275 33.96C134.003 33.8 133.711 33.72 133.399 33.72C133.087 33.72 132.799 33.796 132.535 33.948C132.271 34.1 132.055 34.324 131.887 34.62C131.727 34.908 131.647 35.252 131.647 35.652C131.647 36.052 131.727 36.404 131.887 36.708C132.055 37.004 132.271 37.232 132.535 37.392C132.807 37.552 133.095 37.632 133.399 37.632C133.711 37.632 134.003 37.556 134.275 37.404C134.547 37.244 134.763 37.02 134.923 36.732C135.083 36.436 135.163 36.084 135.163 35.676ZM140.923 35.676C140.923 34.988 141.063 34.388 141.343 33.876C141.623 33.356 142.011 32.956 142.507 32.676C143.003 32.388 143.571 32.244 144.211 32.244C145.035 32.244 145.715 32.452 146.251 32.868C146.795 33.276 147.159 33.852 147.343 34.596H145.531C145.435 34.308 145.271 34.084 145.039 33.924C144.815 33.756 144.535 33.672 144.199 33.672C143.719 33.672 143.339 33.848 143.059 34.2C142.779 34.544 142.639 35.036 142.639 35.676C142.639 36.308 142.779 36.8 143.059 37.152C143.339 37.496 143.719 37.668 144.199 37.668C144.879 37.668 145.323 37.364 145.531 36.756H147.343C147.159 37.476 146.795 38.048 146.251 38.472C145.707 38.896 145.027 39.108 144.211 39.108C143.571 39.108 143.003 38.968 142.507 38.688C142.011 38.4 141.623 38 141.343 37.488C141.063 36.968 140.923 36.364 140.923 35.676ZM151.526 39.108C150.886 39.108 150.31 38.968 149.798 38.688C149.286 38.4 148.882 37.996 148.586 37.476C148.298 36.956 148.154 36.356 148.154 35.676C148.154 34.996 148.302 34.396 148.598 33.876C148.902 33.356 149.314 32.956 149.834 32.676C150.354 32.388 150.934 32.244 151.574 32.244C152.214 32.244 152.794 32.388 153.314 32.676C153.834 32.956 154.242 33.356 154.538 33.876C154.842 34.396 154.994 34.996 154.994 35.676C154.994 36.356 154.838 36.956 154.526 37.476C154.222 37.996 153.806 38.4 153.278 38.688C152.758 38.968 152.174 39.108 151.526 39.108ZM151.526 37.644C151.83 37.644 152.114 37.572 152.378 37.428C152.65 37.276 152.866 37.052 153.026 36.756C153.186 36.46 153.266 36.1 153.266 35.676C153.266 35.044 153.098 34.56 152.762 34.224C152.434 33.88 152.03 33.708 151.55 33.708C151.07 33.708 150.666 33.88 150.338 34.224C150.018 34.56 149.858 35.044 149.858 35.676C149.858 36.308 150.014 36.796 150.326 37.14C150.646 37.476 151.046 37.644 151.526 37.644ZM159.91 32.256C160.702 32.256 161.342 32.508 161.83 33.012C162.318 33.508 162.562 34.204 162.562 35.1V39H160.882V35.328C160.882 34.8 160.75 34.396 160.486 34.116C160.222 33.828 159.862 33.684 159.406 33.684C158.942 33.684 158.574 33.828 158.302 34.116C158.038 34.396 157.906 34.8 157.906 35.328V39H156.226V32.352H157.906V33.18C158.13 32.892 158.414 32.668 158.758 32.508C159.11 32.34 159.494 32.256 159.91 32.256ZM166.116 33.732V36.948C166.116 37.172 166.168 37.336 166.272 37.44C166.384 37.536 166.568 37.584 166.824 37.584H167.604V39H166.548C165.132 39 164.424 38.312 164.424 36.936V33.732H163.632V32.352H164.424V30.708H166.116V32.352H167.604V33.732H166.116ZM174.992 35.532C174.992 35.772 174.976 35.988 174.944 36.18H170.084C170.124 36.66 170.292 37.036 170.588 37.308C170.884 37.58 171.248 37.716 171.68 37.716C172.304 37.716 172.748 37.448 173.012 36.912H174.824C174.632 37.552 174.264 38.08 173.72 38.496C173.176 38.904 172.508 39.108 171.716 39.108C171.076 39.108 170.5 38.968 169.988 38.688C169.484 38.4 169.088 37.996 168.8 37.476C168.52 36.956 168.38 36.356 168.38 35.676C168.38 34.988 168.52 34.384 168.8 33.864C169.08 33.344 169.472 32.944 169.976 32.664C170.48 32.384 171.06 32.244 171.716 32.244C172.348 32.244 172.912 32.38 173.408 32.652C173.912 32.924 174.3 33.312 174.572 33.816C174.852 34.312 174.992 34.884 174.992 35.532ZM173.252 35.052C173.244 34.62 173.088 34.276 172.784 34.02C172.48 33.756 172.108 33.624 171.668 33.624C171.252 33.624 170.9 33.752 170.612 34.008C170.332 34.256 170.16 34.604 170.096 35.052H173.252ZM179.902 32.256C180.694 32.256 181.334 32.508 181.822 33.012C182.31 33.508 182.554 34.204 182.554 35.1V39H180.874V35.328C180.874 34.8 180.742 34.396 180.478 34.116C180.214 33.828 179.854 33.684 179.398 33.684C178.934 33.684 178.566 33.828 178.294 34.116C178.03 34.396 177.898 34.8 177.898 35.328V39H176.218V32.352H177.898V33.18C178.122 32.892 178.406 32.668 178.75 32.508C179.102 32.34 179.486 32.256 179.902 32.256ZM186.108 33.732V36.948C186.108 37.172 186.16 37.336 186.264 37.44C186.376 37.536 186.56 37.584 186.816 37.584H187.596V39H186.54C185.124 39 184.416 38.312 184.416 36.936V33.732H183.624V32.352H184.416V30.708H186.108V32.352H187.596V33.732H186.108ZM191.231 35.652C191.231 34.98 191.363 34.384 191.627 33.864C191.899 33.344 192.263 32.944 192.719 32.664C193.183 32.384 193.699 32.244 194.267 32.244C194.763 32.244 195.195 32.344 195.563 32.544C195.939 32.744 196.239 32.996 196.463 33.3V32.352H198.155V39H196.463V38.028C196.247 38.34 195.947 38.6 195.563 38.808C195.187 39.008 194.751 39.108 194.255 39.108C193.695 39.108 193.183 38.964 192.719 38.676C192.263 38.388 191.899 37.984 191.627 37.464C191.363 36.936 191.231 36.332 191.231 35.652ZM196.463 35.676C196.463 35.268 196.383 34.92 196.223 34.632C196.063 34.336 195.847 34.112 195.575 33.96C195.303 33.8 195.011 33.72 194.699 33.72C194.387 33.72 194.099 33.796 193.835 33.948C193.571 34.1 193.355 34.324 193.187 34.62C193.027 34.908 192.947 35.252 192.947 35.652C192.947 36.052 193.027 36.404 193.187 36.708C193.355 37.004 193.571 37.232 193.835 37.392C194.107 37.552 194.395 37.632 194.699 37.632C195.011 37.632 195.303 37.556 195.575 37.404C195.847 37.244 196.063 37.02 196.223 36.732C196.383 36.436 196.463 36.084 196.463 35.676ZM203.48 32.256C204.272 32.256 204.912 32.508 205.4 33.012C205.888 33.508 206.132 34.204 206.132 35.1V39H204.452V35.328C204.452 34.8 204.32 34.396 204.056 34.116C203.792 33.828 203.432 33.684 202.976 33.684C202.512 33.684 202.144 33.828 201.872 34.116C201.608 34.396 201.476 34.8 201.476 35.328V39H199.796V32.352H201.476V33.18C201.7 32.892 201.984 32.668 202.328 32.508C202.68 32.34 203.064 32.256 203.48 32.256ZM207.298 35.652C207.298 34.98 207.43 34.384 207.694 33.864C207.966 33.344 208.334 32.944 208.798 32.664C209.262 32.384 209.778 32.244 210.346 32.244C210.778 32.244 211.19 32.34 211.582 32.532C211.974 32.716 212.286 32.964 212.518 33.276V30.12H214.222V39H212.518V38.016C212.31 38.344 212.018 38.608 211.642 38.808C211.266 39.008 210.83 39.108 210.334 39.108C209.774 39.108 209.262 38.964 208.798 38.676C208.334 38.388 207.966 37.984 207.694 37.464C207.43 36.936 207.298 36.332 207.298 35.652ZM212.53 35.676C212.53 35.268 212.45 34.92 212.29 34.632C212.13 34.336 211.914 34.112 211.642 33.96C211.37 33.8 211.078 33.72 210.766 33.72C210.454 33.72 210.166 33.796 209.902 33.948C209.638 34.1 209.422 34.324 209.254 34.62C209.094 34.908 209.014 35.252 209.014 35.652C209.014 36.052 209.094 36.404 209.254 36.708C209.422 37.004 209.638 37.232 209.902 37.392C210.174 37.552 210.462 37.632 210.766 37.632C211.078 37.632 211.37 37.556 211.642 37.404C211.914 37.244 212.13 37.02 212.29 36.732C212.45 36.436 212.53 36.084 212.53 35.676ZM219.574 31.56C219.278 31.56 219.03 31.468 218.83 31.284C218.638 31.092 218.542 30.856 218.542 30.576C218.542 30.296 218.638 30.064 218.83 29.88C219.03 29.688 219.278 29.592 219.574 29.592C219.87 29.592 220.114 29.688 220.306 29.88C220.506 30.064 220.606 30.296 220.606 30.576C220.606 30.856 220.506 31.092 220.306 31.284C220.114 31.468 219.87 31.56 219.574 31.56ZM220.402 32.352V39H218.722V32.352H220.402ZM225.746 32.256C226.538 32.256 227.178 32.508 227.666 33.012C228.154 33.508 228.398 34.204 228.398 35.1V39H226.718V35.328C226.718 34.8 226.586 34.396 226.322 34.116C226.058 33.828 225.698 33.684 225.242 33.684C224.778 33.684 224.41 33.828 224.138 34.116C223.874 34.396 223.742 34.8 223.742 35.328V39H222.062V32.352H223.742V33.18C223.966 32.892 224.25 32.668 224.594 32.508C224.946 32.34 225.33 32.256 225.746 32.256ZM231.951 33.732V36.948C231.951 37.172 232.003 37.336 232.107 37.44C232.219 37.536 232.403 37.584 232.659 37.584H233.439V39H232.383C230.967 39 230.259 38.312 230.259 36.936V33.732H229.467V32.352H230.259V30.708H231.951V32.352H233.439V33.732H231.951ZM240.828 35.532C240.828 35.772 240.812 35.988 240.78 36.18H235.92C235.96 36.66 236.128 37.036 236.424 37.308C236.72 37.58 237.084 37.716 237.516 37.716C238.14 37.716 238.584 37.448 238.848 36.912H240.66C240.468 37.552 240.1 38.08 239.556 38.496C239.012 38.904 238.344 39.108 237.552 39.108C236.912 39.108 236.336 38.968 235.824 38.688C235.32 38.4 234.924 37.996 234.636 37.476C234.356 36.956 234.216 36.356 234.216 35.676C234.216 34.988 234.356 34.384 234.636 33.864C234.916 33.344 235.308 32.944 235.812 32.664C236.316 32.384 236.896 32.244 237.552 32.244C238.184 32.244 238.748 32.38 239.244 32.652C239.748 32.924 240.136 33.312 240.408 33.816C240.688 34.312 240.828 34.884 240.828 35.532ZM239.088 35.052C239.08 34.62 238.924 34.276 238.62 34.02C238.316 33.756 237.944 33.624 237.504 33.624C237.088 33.624 236.736 33.752 236.448 34.008C236.168 34.256 235.996 34.604 235.932 35.052H239.088ZM243.734 33.384C243.95 33.032 244.23 32.756 244.574 32.556C244.926 32.356 245.326 32.256 245.774 32.256V34.02H245.33C244.802 34.02 244.402 34.144 244.13 34.392C243.866 34.64 243.734 35.072 243.734 35.688V39H242.054V32.352H243.734V33.384ZM246.474 35.652C246.474 34.98 246.606 34.384 246.87 33.864C247.142 33.344 247.506 32.944 247.962 32.664C248.426 32.384 248.942 32.244 249.51 32.244C250.006 32.244 250.438 32.344 250.806 32.544C251.182 32.744 251.482 32.996 251.706 33.3V32.352H253.398V39H251.706V38.028C251.49 38.34 251.19 38.6 250.806 38.808C250.43 39.008 249.994 39.108 249.498 39.108C248.938 39.108 248.426 38.964 247.962 38.676C247.506 38.388 247.142 37.984 246.87 37.464C246.606 36.936 246.474 36.332 246.474 35.652ZM251.706 35.676C251.706 35.268 251.626 34.92 251.466 34.632C251.306 34.336 251.09 34.112 250.818 33.96C250.546 33.8 250.254 33.72 249.942 33.72C249.63 33.72 249.342 33.796 249.078 33.948C248.814 34.1 248.598 34.324 248.43 34.62C248.27 34.908 248.19 35.252 248.19 35.652C248.19 36.052 248.27 36.404 248.43 36.708C248.598 37.004 248.814 37.232 249.078 37.392C249.35 37.552 249.638 37.632 249.942 37.632C250.254 37.632 250.546 37.556 250.818 37.404C251.09 37.244 251.306 37.02 251.466 36.732C251.626 36.436 251.706 36.084 251.706 35.676ZM254.606 35.676C254.606 34.988 254.746 34.388 255.026 33.876C255.306 33.356 255.694 32.956 256.19 32.676C256.686 32.388 257.254 32.244 257.894 32.244C258.718 32.244 259.398 32.452 259.934 32.868C260.478 33.276 260.842 33.852 261.026 34.596H259.214C259.118 34.308 258.954 34.084 258.722 33.924C258.498 33.756 258.218 33.672 257.882 33.672C257.402 33.672 257.022 33.848 256.742 34.2C256.462 34.544 256.322 35.036 256.322 35.676C256.322 36.308 256.462 36.8 256.742 37.152C257.022 37.496 257.402 37.668 257.882 37.668C258.562 37.668 259.006 37.364 259.214 36.756H261.026C260.842 37.476 260.478 38.048 259.934 38.472C259.39 38.896 258.71 39.108 257.894 39.108C257.254 39.108 256.686 38.968 256.19 38.688C255.694 38.4 255.306 38 255.026 37.488C254.746 36.968 254.606 36.364 254.606 35.676ZM264.213 33.732V36.948C264.213 37.172 264.265 37.336 264.369 37.44C264.481 37.536 264.665 37.584 264.921 37.584H265.701V39H264.645C263.229 39 262.521 38.312 262.521 36.936V33.732H261.729V32.352H262.521V30.708H264.213V32.352H265.701V33.732H264.213ZM267.762 31.56C267.466 31.56 267.218 31.468 267.018 31.284C266.826 31.092 266.73 30.856 266.73 30.576C266.73 30.296 266.826 30.064 267.018 29.88C267.218 29.688 267.466 29.592 267.762 29.592C268.058 29.592 268.302 29.688 268.494 29.88C268.694 30.064 268.794 30.296 268.794 30.576C268.794 30.856 268.694 31.092 268.494 31.284C268.302 31.468 268.058 31.56 267.762 31.56ZM268.59 32.352V39H266.91V32.352H268.59ZM273.201 39.108C272.561 39.108 271.985 38.968 271.473 38.688C270.961 38.4 270.557 37.996 270.261 37.476C269.973 36.956 269.829 36.356 269.829 35.676C269.829 34.996 269.977 34.396 270.273 33.876C270.577 33.356 270.989 32.956 271.509 32.676C272.029 32.388 272.609 32.244 273.249 32.244C273.889 32.244 274.469 32.388 274.989 32.676C275.509 32.956 275.917 33.356 276.213 33.876C276.517 34.396 276.669 34.996 276.669 35.676C276.669 36.356 276.513 36.956 276.201 37.476C275.897 37.996 275.481 38.4 274.953 38.688C274.433 38.968 273.849 39.108 273.201 39.108ZM273.201 37.644C273.505 37.644 273.789 37.572 274.053 37.428C274.325 37.276 274.541 37.052 274.701 36.756C274.861 36.46 274.941 36.1 274.941 35.676C274.941 35.044 274.773 34.56 274.437 34.224C274.109 33.88 273.705 33.708 273.225 33.708C272.745 33.708 272.341 33.88 272.013 34.224C271.693 34.56 271.533 35.044 271.533 35.676C271.533 36.308 271.689 36.796 272.001 37.14C272.321 37.476 272.721 37.644 273.201 37.644ZM281.586 32.256C282.378 32.256 283.018 32.508 283.506 33.012C283.994 33.508 284.238 34.204 284.238 35.1V39H282.558V35.328C282.558 34.8 282.426 34.396 282.162 34.116C281.898 33.828 281.538 33.684 281.082 33.684C280.618 33.684 280.25 33.828 279.978 34.116C279.714 34.396 279.582 34.8 279.582 35.328V39H277.902V32.352H279.582V33.18C279.806 32.892 280.09 32.668 280.434 32.508C280.786 32.34 281.17 32.256 281.586 32.256ZM288.379 39.108C287.835 39.108 287.347 39.012 286.915 38.82C286.483 38.62 286.139 38.352 285.883 38.016C285.635 37.68 285.499 37.308 285.475 36.9H287.167C287.199 37.156 287.323 37.368 287.539 37.536C287.763 37.704 288.039 37.788 288.367 37.788C288.687 37.788 288.935 37.724 289.111 37.596C289.295 37.468 289.387 37.304 289.387 37.104C289.387 36.888 289.275 36.728 289.051 36.624C288.835 36.512 288.487 36.392 288.007 36.264C287.511 36.144 287.103 36.02 286.783 35.892C286.471 35.764 286.199 35.568 285.967 35.304C285.743 35.04 285.631 34.684 285.631 34.236C285.631 33.868 285.735 33.532 285.943 33.228C286.159 32.924 286.463 32.684 286.855 32.508C287.255 32.332 287.723 32.244 288.259 32.244C289.051 32.244 289.683 32.444 290.155 32.844C290.627 33.236 290.887 33.768 290.935 34.44H289.327C289.303 34.176 289.191 33.968 288.991 33.816C288.799 33.656 288.539 33.576 288.211 33.576C287.907 33.576 287.671 33.632 287.503 33.744C287.343 33.856 287.263 34.012 287.263 34.212C287.263 34.436 287.375 34.608 287.599 34.728C287.823 34.84 288.171 34.956 288.643 35.076C289.123 35.196 289.519 35.32 289.831 35.448C290.143 35.576 290.411 35.776 290.635 36.048C290.867 36.312 290.987 36.664 290.995 37.104C290.995 37.488 290.887 37.832 290.671 38.136C290.463 38.44 290.159 38.68 289.759 38.856C289.367 39.024 288.907 39.108 288.379 39.108ZM117.412 57.108C116.772 57.108 116.196 56.968 115.684 56.688C115.172 56.4 114.768 55.996 114.472 55.476C114.184 54.956 114.04 54.356 114.04 53.676C114.04 52.996 114.188 52.396 114.484 51.876C114.788 51.356 115.2 50.956 115.72 50.676C116.24 50.388 116.82 50.244 117.46 50.244C118.1 50.244 118.68 50.388 119.2 50.676C119.72 50.956 120.128 51.356 120.424 51.876C120.728 52.396 120.88 52.996 120.88 53.676C120.88 54.356 120.724 54.956 120.412 55.476C120.108 55.996 119.692 56.4 119.164 56.688C118.644 56.968 118.06 57.108 117.412 57.108ZM117.412 55.644C117.716 55.644 118 55.572 118.264 55.428C118.536 55.276 118.752 55.052 118.912 54.756C119.072 54.46 119.152 54.1 119.152 53.676C119.152 53.044 118.984 52.56 118.648 52.224C118.32 51.88 117.916 51.708 117.436 51.708C116.956 51.708 116.552 51.88 116.224 52.224C115.904 52.56 115.744 53.044 115.744 53.676C115.744 54.308 115.9 54.796 116.212 55.14C116.532 55.476 116.932 55.644 117.412 55.644ZM125.797 50.256C126.589 50.256 127.229 50.508 127.717 51.012C128.205 51.508 128.449 52.204 128.449 53.1V57H126.769V53.328C126.769 52.8 126.637 52.396 126.373 52.116C126.109 51.828 125.749 51.684 125.293 51.684C124.829 51.684 124.461 51.828 124.189 52.116C123.925 52.396 123.793 52.8 123.793 53.328V57H122.113V50.352H123.793V51.18C124.017 50.892 124.301 50.668 124.645 50.508C124.997 50.34 125.381 50.256 125.797 50.256ZM134.862 51.732V54.948C134.862 55.172 134.914 55.336 135.018 55.44C135.13 55.536 135.314 55.584 135.57 55.584H136.35V57H135.294C133.878 57 133.17 56.312 133.17 54.936V51.732H132.378V50.352H133.17V48.708H134.862V50.352H136.35V51.732H134.862ZM140.51 57.108C139.87 57.108 139.294 56.968 138.782 56.688C138.27 56.4 137.866 55.996 137.57 55.476C137.282 54.956 137.138 54.356 137.138 53.676C137.138 52.996 137.286 52.396 137.582 51.876C137.886 51.356 138.298 50.956 138.818 50.676C139.338 50.388 139.918 50.244 140.558 50.244C141.198 50.244 141.778 50.388 142.298 50.676C142.818 50.956 143.226 51.356 143.522 51.876C143.826 52.396 143.978 52.996 143.978 53.676C143.978 54.356 143.822 54.956 143.51 55.476C143.206 55.996 142.79 56.4 142.262 56.688C141.742 56.968 141.158 57.108 140.51 57.108ZM140.51 55.644C140.814 55.644 141.098 55.572 141.362 55.428C141.634 55.276 141.85 55.052 142.01 54.756C142.17 54.46 142.25 54.1 142.25 53.676C142.25 53.044 142.082 52.56 141.746 52.224C141.418 51.88 141.014 51.708 140.534 51.708C140.054 51.708 139.65 51.88 139.322 52.224C139.002 52.56 138.842 53.044 138.842 53.676C138.842 54.308 138.998 54.796 139.31 55.14C139.63 55.476 140.03 55.644 140.51 55.644ZM150.026 51.732V54.948C150.026 55.172 150.078 55.336 150.182 55.44C150.294 55.536 150.478 55.584 150.734 55.584H151.514V57H150.458C149.042 57 148.334 56.312 148.334 54.936V51.732H147.542V50.352H148.334V48.708H150.026V50.352H151.514V51.732H150.026ZM156.466 50.256C156.97 50.256 157.418 50.368 157.81 50.592C158.202 50.808 158.506 51.132 158.722 51.564C158.946 51.988 159.058 52.5 159.058 53.1V57H157.378V53.328C157.378 52.8 157.246 52.396 156.982 52.116C156.718 51.828 156.358 51.684 155.902 51.684C155.438 51.684 155.07 51.828 154.798 52.116C154.534 52.396 154.402 52.8 154.402 53.328V57H152.722V48.12H154.402V51.18C154.618 50.892 154.906 50.668 155.266 50.508C155.626 50.34 156.026 50.256 156.466 50.256ZM166.836 53.532C166.836 53.772 166.82 53.988 166.788 54.18H161.928C161.968 54.66 162.136 55.036 162.432 55.308C162.728 55.58 163.092 55.716 163.524 55.716C164.148 55.716 164.592 55.448 164.856 54.912H166.668C166.476 55.552 166.108 56.08 165.564 56.496C165.02 56.904 164.352 57.108 163.56 57.108C162.92 57.108 162.344 56.968 161.832 56.688C161.328 56.4 160.932 55.996 160.644 55.476C160.364 54.956 160.224 54.356 160.224 53.676C160.224 52.988 160.364 52.384 160.644 51.864C160.924 51.344 161.316 50.944 161.82 50.664C162.324 50.384 162.904 50.244 163.56 50.244C164.192 50.244 164.756 50.38 165.252 50.652C165.756 50.924 166.144 51.312 166.416 51.816C166.696 52.312 166.836 52.884 166.836 53.532ZM165.096 53.052C165.088 52.62 164.932 52.276 164.628 52.02C164.324 51.756 163.952 51.624 163.512 51.624C163.096 51.624 162.744 51.752 162.456 52.008C162.176 52.256 162.004 52.604 161.94 53.052H165.096ZM173.465 57.108C172.921 57.108 172.433 57.012 172.001 56.82C171.569 56.62 171.225 56.352 170.969 56.016C170.721 55.68 170.585 55.308 170.561 54.9H172.253C172.285 55.156 172.409 55.368 172.625 55.536C172.849 55.704 173.125 55.788 173.453 55.788C173.773 55.788 174.021 55.724 174.197 55.596C174.381 55.468 174.473 55.304 174.473 55.104C174.473 54.888 174.361 54.728 174.137 54.624C173.921 54.512 173.573 54.392 173.093 54.264C172.597 54.144 172.189 54.02 171.869 53.892C171.557 53.764 171.285 53.568 171.053 53.304C170.829 53.04 170.717 52.684 170.717 52.236C170.717 51.868 170.821 51.532 171.029 51.228C171.245 50.924 171.549 50.684 171.941 50.508C172.341 50.332 172.809 50.244 173.345 50.244C174.137 50.244 174.769 50.444 175.241 50.844C175.713 51.236 175.973 51.768 176.021 52.44H174.413C174.389 52.176 174.277 51.968 174.077 51.816C173.885 51.656 173.625 51.576 173.297 51.576C172.993 51.576 172.757 51.632 172.589 51.744C172.429 51.856 172.349 52.012 172.349 52.212C172.349 52.436 172.461 52.608 172.685 52.728C172.909 52.84 173.257 52.956 173.729 53.076C174.209 53.196 174.605 53.32 174.917 53.448C175.229 53.576 175.497 53.776 175.721 54.048C175.953 54.312 176.073 54.664 176.081 55.104C176.081 55.488 175.973 55.832 175.757 56.136C175.549 56.44 175.245 56.68 174.845 56.856C174.453 57.024 173.993 57.108 173.465 57.108ZM179.416 51.732V54.948C179.416 55.172 179.468 55.336 179.572 55.44C179.684 55.536 179.868 55.584 180.124 55.584H180.904V57H179.848C178.432 57 177.724 56.312 177.724 54.936V51.732H176.932V50.352H177.724V48.708H179.416V50.352H180.904V51.732H179.416ZM181.681 53.652C181.681 52.98 181.813 52.384 182.077 51.864C182.349 51.344 182.713 50.944 183.169 50.664C183.633 50.384 184.149 50.244 184.717 50.244C185.213 50.244 185.645 50.344 186.013 50.544C186.389 50.744 186.689 50.996 186.913 51.3V50.352H188.605V57H186.913V56.028C186.697 56.34 186.397 56.6 186.013 56.808C185.637 57.008 185.201 57.108 184.705 57.108C184.145 57.108 183.633 56.964 183.169 56.676C182.713 56.388 182.349 55.984 182.077 55.464C181.813 54.936 181.681 54.332 181.681 53.652ZM186.913 53.676C186.913 53.268 186.833 52.92 186.673 52.632C186.513 52.336 186.297 52.112 186.025 51.96C185.753 51.8 185.461 51.72 185.149 51.72C184.837 51.72 184.549 51.796 184.285 51.948C184.021 52.1 183.805 52.324 183.637 52.62C183.477 52.908 183.397 53.252 183.397 53.652C183.397 54.052 183.477 54.404 183.637 54.708C183.805 55.004 184.021 55.232 184.285 55.392C184.557 55.552 184.845 55.632 185.149 55.632C185.461 55.632 185.753 55.556 186.025 55.404C186.297 55.244 186.513 55.02 186.673 54.732C186.833 54.436 186.913 54.084 186.913 53.676ZM192.849 50.244C193.345 50.244 193.781 50.344 194.157 50.544C194.533 50.736 194.829 50.988 195.045 51.3V50.352H196.737V57.048C196.737 57.664 196.613 58.212 196.365 58.692C196.117 59.18 195.745 59.564 195.249 59.844C194.753 60.132 194.153 60.276 193.449 60.276C192.505 60.276 191.729 60.056 191.121 59.616C190.521 59.176 190.181 58.576 190.101 57.816H191.769C191.857 58.12 192.045 58.36 192.333 58.536C192.629 58.72 192.985 58.812 193.401 58.812C193.889 58.812 194.285 58.664 194.589 58.368C194.893 58.08 195.045 57.64 195.045 57.048V56.016C194.829 56.328 194.529 56.588 194.145 56.796C193.769 57.004 193.337 57.108 192.849 57.108C192.289 57.108 191.777 56.964 191.313 56.676C190.849 56.388 190.481 55.984 190.209 55.464C189.945 54.936 189.813 54.332 189.813 53.652C189.813 52.98 189.945 52.384 190.209 51.864C190.481 51.344 190.845 50.944 191.301 50.664C191.765 50.384 192.281 50.244 192.849 50.244ZM195.045 53.676C195.045 53.268 194.965 52.92 194.805 52.632C194.645 52.336 194.429 52.112 194.157 51.96C193.885 51.8 193.593 51.72 193.281 51.72C192.969 51.72 192.681 51.796 192.417 51.948C192.153 52.1 191.937 52.324 191.769 52.62C191.609 52.908 191.529 53.252 191.529 53.652C191.529 54.052 191.609 54.404 191.769 54.708C191.937 55.004 192.153 55.232 192.417 55.392C192.689 55.552 192.977 55.632 193.281 55.632C193.593 55.632 193.885 55.556 194.157 55.404C194.429 55.244 194.645 55.02 194.805 54.732C194.965 54.436 195.045 54.084 195.045 53.676ZM204.558 53.532C204.558 53.772 204.542 53.988 204.51 54.18H199.65C199.69 54.66 199.858 55.036 200.154 55.308C200.45 55.58 200.814 55.716 201.246 55.716C201.87 55.716 202.314 55.448 202.578 54.912H204.39C204.198 55.552 203.83 56.08 203.286 56.496C202.742 56.904 202.074 57.108 201.282 57.108C200.642 57.108 200.066 56.968 199.554 56.688C199.05 56.4 198.654 55.996 198.366 55.476C198.086 54.956 197.946 54.356 197.946 53.676C197.946 52.988 198.086 52.384 198.366 51.864C198.646 51.344 199.038 50.944 199.542 50.664C200.046 50.384 200.626 50.244 201.282 50.244C201.914 50.244 202.478 50.38 202.974 50.652C203.478 50.924 203.866 51.312 204.138 51.816C204.418 52.312 204.558 52.884 204.558 53.532ZM202.818 53.052C202.81 52.62 202.654 52.276 202.35 52.02C202.046 51.756 201.674 51.624 201.234 51.624C200.818 51.624 200.466 51.752 200.178 52.008C199.898 52.256 199.726 52.604 199.662 53.052H202.818ZM206.529 57.084C206.225 57.084 205.973 56.992 205.773 56.808C205.581 56.616 205.485 56.38 205.485 56.1C205.485 55.82 205.581 55.588 205.773 55.404C205.973 55.212 206.225 55.116 206.529 55.116C206.825 55.116 207.069 55.212 207.261 55.404C207.453 55.588 207.549 55.82 207.549 56.1C207.549 56.38 207.453 56.616 207.261 56.808C207.069 56.992 206.825 57.084 206.529 57.084Z" fill="black"/>
<rect x="221.129" y="105.404" width="85.7762" height="89.7794" rx="6.06617" fill="white" stroke="#D0CBC6" stroke-width="0.808823"/>
<path d="M220.724 151.086C47.9743 151.086 37.2607 178.411 25.7827 192.51C14.3047 206.608 22.7553 240.086 53.0181 240.086" stroke="#FC6839" stroke-width="2" stroke-dasharray="6 6"/>
<circle cx="220.971" cy="151.02" r="4.02002" fill="#FC6839"/>
<circle cx="307.309" cy="151.02" r="4.02002" fill="#FC6839"/>
<rect x="48.8605" y="212.572" width="236.985" height="50.9558" rx="6.06617" fill="white"/>
<rect x="48.8605" y="212.572" width="236.985" height="50.9558" rx="6.06617" stroke="#D0CBC6" stroke-width="0.808823"/>
<mask id="mask0_1478_32280" style="mask-type:alpha" maskUnits="userSpaceOnUse" x="61" y="231" width="14" height="14">
<rect x="61.3975" y="231.578" width="12.9412" height="12.9412" fill="#D9D9D9"/>
</mask>
<g mask="url(#mask0_1478_32280)">
<path d="M66.2503 242.362C65.9537 242.362 65.6999 242.256 65.4889 242.045C65.2776 241.834 65.1719 241.58 65.1719 241.283C65.1719 240.987 65.2776 240.733 65.4889 240.521C65.6999 240.31 65.9537 240.205 66.2503 240.205C66.5469 240.205 66.8008 240.31 67.0122 240.521C67.2232 240.733 67.3287 240.987 67.3287 241.283C67.3287 241.58 67.2232 241.834 67.0122 242.045C66.8008 242.256 66.5469 242.362 66.2503 242.362ZM69.4856 242.362C69.189 242.362 68.9352 242.256 68.7242 242.045C68.5129 241.834 68.4072 241.58 68.4072 241.283C68.4072 240.987 68.5129 240.733 68.7242 240.521C68.9352 240.31 69.189 240.205 69.4856 240.205C69.7822 240.205 70.0361 240.31 70.2475 240.521C70.4585 240.733 70.564 240.987 70.564 241.283C70.564 241.58 70.4585 241.834 70.2475 242.045C70.0361 242.256 69.7822 242.362 69.4856 242.362ZM66.2503 239.127C65.9537 239.127 65.6999 239.021 65.4889 238.809C65.2776 238.598 65.1719 238.345 65.1719 238.048C65.1719 237.752 65.2776 237.498 65.4889 237.286C65.6999 237.075 65.9537 236.97 66.2503 236.97C66.5469 236.97 66.8008 237.075 67.0122 237.286C67.2232 237.498 67.3287 237.752 67.3287 238.048C67.3287 238.345 67.2232 238.598 67.0122 238.809C66.8008 239.021 66.5469 239.127 66.2503 239.127ZM69.4856 239.127C69.189 239.127 68.9352 239.021 68.7242 238.809C68.5129 238.598 68.4072 238.345 68.4072 238.048C68.4072 237.752 68.5129 237.498 68.7242 237.286C68.9352 237.075 69.189 236.97 69.4856 236.97C69.7822 236.97 70.0361 237.075 70.2475 237.286C70.4585 237.498 70.564 237.752 70.564 238.048C70.564 238.345 70.4585 238.598 70.2475 238.809C70.0361 239.021 69.7822 239.127 69.4856 239.127ZM66.2503 235.891C65.9537 235.891 65.6999 235.786 65.4889 235.574C65.2776 235.363 65.1719 235.109 65.1719 234.813C65.1719 234.516 65.2776 234.262 65.4889 234.051C65.6999 233.84 65.9537 233.734 66.2503 233.734C66.5469 233.734 66.8008 233.84 67.0122 234.051C67.2232 234.262 67.3287 234.516 67.3287 234.813C67.3287 235.109 67.2232 235.363 67.0122 235.574C66.8008 235.786 66.5469 235.891 66.2503 235.891ZM69.4856 235.891C69.189 235.891 68.9352 235.786 68.7242 235.574C68.5129 235.363 68.4072 235.109 68.4072 234.813C68.4072 234.516 68.5129 234.262 68.7242 234.051C68.9352 233.84 69.189 233.734 69.4856 233.734C69.7822 233.734 70.0361 233.84 70.2475 234.051C70.4585 234.262 70.564 234.516 70.564 234.813C70.564 235.109 70.4585 235.363 70.2475 235.574C70.0361 235.786 69.7822 235.891 69.4856 235.891Z" fill="#8D8A87"/>
</g>
<rect x="87.3384" y="225.168" width="25.8823" height="25.8823" rx="4.85294" fill="#D1E5FF"/>
<circle cx="48.4561" cy="240.09" r="4.02002" fill="#FC6839"/>
</svg>
