<svg width="811" height="587" viewBox="0 0 811 587" fill="none" xmlns="http://www.w3.org/2000/svg">
<g filter="url(#filter0_d_1470_32122)">
<rect x="0.545898" y="0.574219" width="809.954" height="570" rx="31.5" fill="white" stroke="#D0CBC6"/>
<path d="M176.36 47.9394L171.68 64.6914H167.72L164.576 52.7634L161.288 64.6914L157.352 64.7154L152.84 47.9394H156.44L159.392 60.9474L162.8 47.9394H166.544L169.76 60.8754L172.736 47.9394H176.36ZM190.913 57.7554C190.913 58.2354 190.881 58.6674 190.817 59.0514H181.097C181.177 60.0114 181.513 60.7634 182.105 61.3074C182.697 61.8514 183.425 62.1234 184.289 62.1234C185.537 62.1234 186.425 61.5874 186.953 60.5154H190.577C190.193 61.7954 189.457 62.8514 188.369 63.6834C187.281 64.4994 185.945 64.9074 184.361 64.9074C183.081 64.9074 181.929 64.6274 180.905 64.0674C179.897 63.4914 179.105 62.6834 178.529 61.6434C177.969 60.6034 177.689 59.4034 177.689 58.0434C177.689 56.6674 177.969 55.4594 178.529 54.4194C179.089 53.3794 179.873 52.5794 180.881 52.0194C181.889 51.4594 183.049 51.1794 184.361 51.1794C185.625 51.1794 186.753 51.4514 187.745 51.9954C188.753 52.5394 189.529 53.3154 190.073 54.3234C190.633 55.3154 190.913 56.4594 190.913 57.7554ZM187.433 56.7954C187.417 55.9314 187.105 55.2434 186.497 54.7314C185.889 54.2034 185.145 53.9394 184.265 53.9394C183.433 53.9394 182.729 54.1954 182.153 54.7074C181.593 55.2034 181.249 55.8994 181.121 56.7954H187.433ZM196.726 46.9314V64.6914H193.366V46.9314H196.726ZM199.182 58.0434C199.182 56.6674 199.462 55.4674 200.022 54.4434C200.582 53.4034 201.358 52.6034 202.35 52.0434C203.342 51.4674 204.478 51.1794 205.758 51.1794C207.406 51.1794 208.766 51.5954 209.838 52.4274C210.926 53.2434 211.654 54.3954 212.022 55.8834H208.398C208.206 55.3074 207.878 54.8594 207.414 54.5394C206.966 54.2034 206.406 54.0354 205.734 54.0354C204.774 54.0354 204.014 54.3874 203.454 55.0914C202.894 55.7794 202.614 56.7634 202.614 58.0434C202.614 59.3074 202.894 60.2914 203.454 60.9954C204.014 61.6834 204.774 62.0274 205.734 62.0274C207.094 62.0274 207.982 61.4194 208.398 60.2034H212.022C211.654 61.6434 210.926 62.7874 209.838 63.6354C208.75 64.4834 207.39 64.9074 205.758 64.9074C204.478 64.9074 203.342 64.6274 202.35 64.0674C201.358 63.4914 200.582 62.6914 200.022 61.6674C199.462 60.6274 199.182 59.4194 199.182 58.0434ZM220.387 64.9074C219.107 64.9074 217.955 64.6274 216.931 64.0674C215.907 63.4914 215.099 62.6834 214.507 61.6434C213.931 60.6034 213.643 59.4034 213.643 58.0434C213.643 56.6834 213.939 55.4834 214.531 54.4434C215.139 53.4034 215.963 52.6034 217.003 52.0434C218.043 51.4674 219.203 51.1794 220.483 51.1794C221.763 51.1794 222.923 51.4674 223.963 52.0434C225.003 52.6034 225.819 53.4034 226.411 54.4434C227.019 55.4834 227.323 56.6834 227.323 58.0434C227.323 59.4034 227.011 60.6034 226.387 61.6434C225.779 62.6834 224.947 63.4914 223.891 64.0674C222.851 64.6274 221.683 64.9074 220.387 64.9074ZM220.387 61.9794C220.995 61.9794 221.563 61.8354 222.091 61.5474C222.635 61.2434 223.067 60.7954 223.387 60.2034C223.707 59.6114 223.867 58.8914 223.867 58.0434C223.867 56.7794 223.531 55.8114 222.859 55.1394C222.203 54.4514 221.395 54.1074 220.435 54.1074C219.475 54.1074 218.667 54.4514 218.011 55.1394C217.371 55.8114 217.051 56.7794 217.051 58.0434C217.051 59.3074 217.363 60.2834 217.987 60.9714C218.627 61.6434 219.427 61.9794 220.387 61.9794ZM246.3 51.2034C247.932 51.2034 249.244 51.7074 250.236 52.7154C251.244 53.7074 251.748 55.0994 251.748 56.8914V64.6914H248.388V57.3474C248.388 56.3074 248.124 55.5154 247.596 54.9714C247.068 54.4114 246.348 54.1314 245.436 54.1314C244.524 54.1314 243.796 54.4114 243.252 54.9714C242.724 55.5154 242.46 56.3074 242.46 57.3474V64.6914H239.1V57.3474C239.1 56.3074 238.836 55.5154 238.308 54.9714C237.78 54.4114 237.06 54.1314 236.148 54.1314C235.22 54.1314 234.484 54.4114 233.94 54.9714C233.412 55.5154 233.148 56.3074 233.148 57.3474V64.6914H229.788V51.3954H233.148V53.0034C233.58 52.4434 234.132 52.0034 234.804 51.6834C235.492 51.3634 236.244 51.2034 237.06 51.2034C238.1 51.2034 239.028 51.4274 239.844 51.8754C240.66 52.3074 241.292 52.9314 241.74 53.7474C242.172 52.9794 242.796 52.3634 243.612 51.8994C244.444 51.4354 245.34 51.2034 246.3 51.2034ZM267.296 57.7554C267.296 58.2354 267.264 58.6674 267.2 59.0514H257.48C257.56 60.0114 257.896 60.7634 258.488 61.3074C259.08 61.8514 259.808 62.1234 260.672 62.1234C261.92 62.1234 262.808 61.5874 263.336 60.5154H266.96C266.576 61.7954 265.84 62.8514 264.752 63.6834C263.664 64.4994 262.328 64.9074 260.744 64.9074C259.464 64.9074 258.312 64.6274 257.288 64.0674C256.28 63.4914 255.488 62.6834 254.912 61.6434C254.352 60.6034 254.072 59.4034 254.072 58.0434C254.072 56.6674 254.352 55.4594 254.912 54.4194C255.472 53.3794 256.256 52.5794 257.264 52.0194C258.272 51.4594 259.432 51.1794 260.744 51.1794C262.008 51.1794 263.136 51.4514 264.128 51.9954C265.136 52.5394 265.912 53.3154 266.456 54.3234C267.016 55.3154 267.296 56.4594 267.296 57.7554ZM263.816 56.7954C263.8 55.9314 263.488 55.2434 262.88 54.7314C262.272 54.2034 261.528 53.9394 260.648 53.9394C259.816 53.9394 259.112 54.1954 258.536 54.7074C257.976 55.2034 257.632 55.8994 257.504 56.7954H263.816ZM279.38 54.1554V60.5874C279.38 61.0354 279.484 61.3634 279.692 61.5714C279.916 61.7634 280.284 61.8594 280.796 61.8594H282.356V64.6914H280.244C277.412 64.6914 275.996 63.3154 275.996 60.5634V54.1554H274.412V51.3954H275.996V48.1074H279.38V51.3954H282.356V54.1554H279.38ZM290.676 64.9074C289.396 64.9074 288.244 64.6274 287.22 64.0674C286.196 63.4914 285.388 62.6834 284.796 61.6434C284.22 60.6034 283.932 59.4034 283.932 58.0434C283.932 56.6834 284.228 55.4834 284.82 54.4434C285.428 53.4034 286.252 52.6034 287.292 52.0434C288.332 51.4674 289.492 51.1794 290.772 51.1794C292.052 51.1794 293.212 51.4674 294.252 52.0434C295.292 52.6034 296.108 53.4034 296.7 54.4434C297.308 55.4834 297.612 56.6834 297.612 58.0434C297.612 59.4034 297.3 60.6034 296.676 61.6434C296.068 62.6834 295.236 63.4914 294.18 64.0674C293.14 64.6274 291.972 64.9074 290.676 64.9074ZM290.676 61.9794C291.284 61.9794 291.852 61.8354 292.38 61.5474C292.924 61.2434 293.356 60.7954 293.676 60.2034C293.996 59.6114 294.156 58.8914 294.156 58.0434C294.156 56.7794 293.82 55.8114 293.148 55.1394C292.492 54.4514 291.684 54.1074 290.724 54.1074C289.764 54.1074 288.956 54.4514 288.3 55.1394C287.66 55.8114 287.34 56.7794 287.34 58.0434C287.34 59.3074 287.652 60.2834 288.276 60.9714C288.916 61.6434 289.716 61.9794 290.676 61.9794ZM309.708 54.1554V60.5874C309.708 61.0354 309.812 61.3634 310.02 61.5714C310.244 61.7634 310.612 61.8594 311.124 61.8594H312.684V64.6914H310.572C307.74 64.6914 306.324 63.3154 306.324 60.5634V54.1554H304.74V51.3954H306.324V48.1074H309.708V51.3954H312.684V54.1554H309.708ZM322.588 51.2034C323.596 51.2034 324.492 51.4274 325.276 51.8754C326.06 52.3074 326.668 52.9554 327.1 53.8194C327.548 54.6674 327.772 55.6914 327.772 56.8914V64.6914H324.412V57.3474C324.412 56.2914 324.148 55.4834 323.62 54.9234C323.092 54.3474 322.372 54.0594 321.46 54.0594C320.532 54.0594 319.796 54.3474 319.252 54.9234C318.724 55.4834 318.46 56.2914 318.46 57.3474V64.6914H315.1V46.9314H318.46V53.0514C318.892 52.4754 319.468 52.0274 320.188 51.7074C320.908 51.3714 321.708 51.2034 322.588 51.2034ZM343.328 57.7554C343.328 58.2354 343.296 58.6674 343.232 59.0514H333.512C333.592 60.0114 333.928 60.7634 334.52 61.3074C335.112 61.8514 335.84 62.1234 336.704 62.1234C337.952 62.1234 338.84 61.5874 339.368 60.5154H342.992C342.608 61.7954 341.872 62.8514 340.784 63.6834C339.696 64.4994 338.36 64.9074 336.776 64.9074C335.496 64.9074 334.344 64.6274 333.32 64.0674C332.312 63.4914 331.52 62.6834 330.944 61.6434C330.384 60.6034 330.104 59.4034 330.104 58.0434C330.104 56.6674 330.384 55.4594 330.944 54.4194C331.504 53.3794 332.288 52.5794 333.296 52.0194C334.304 51.4594 335.464 51.1794 336.776 51.1794C338.04 51.1794 339.168 51.4514 340.16 51.9954C341.168 52.5394 341.944 53.3154 342.488 54.3234C343.048 55.3154 343.328 56.4594 343.328 57.7554ZM339.848 56.7954C339.832 55.9314 339.52 55.2434 338.912 54.7314C338.304 54.2034 337.56 53.9394 336.68 53.9394C335.848 53.9394 335.144 54.1954 334.568 54.7074C334.008 55.2034 333.664 55.8994 333.536 56.7954H339.848ZM357.355 47.9394C359.115 47.9394 360.659 48.2834 361.987 48.9714C363.331 49.6594 364.363 50.6434 365.083 51.9234C365.819 53.1874 366.187 54.6594 366.187 56.3394C366.187 58.0194 365.819 59.4914 365.083 60.7554C364.363 62.0034 363.331 62.9714 361.987 63.6594C360.659 64.3474 359.115 64.6914 357.355 64.6914H351.499V47.9394H357.355ZM357.235 61.8354C358.995 61.8354 360.355 61.3554 361.315 60.3954C362.275 59.4354 362.755 58.0834 362.755 56.3394C362.755 54.5954 362.275 53.2354 361.315 52.2594C360.355 51.2674 358.995 50.7714 357.235 50.7714H354.859V61.8354H357.235ZM370.406 49.8114C369.814 49.8114 369.318 49.6274 368.918 49.2594C368.534 48.8754 368.342 48.4034 368.342 47.8434C368.342 47.2834 368.534 46.8194 368.918 46.4514C369.318 46.0674 369.814 45.8754 370.406 45.8754C370.998 45.8754 371.486 46.0674 371.87 46.4514C372.27 46.8194 372.47 47.2834 372.47 47.8434C372.47 48.4034 372.27 48.8754 371.87 49.2594C371.486 49.6274 370.998 49.8114 370.406 49.8114ZM372.062 51.3954V64.6914H368.702V51.3954H372.062ZM380.47 64.9074C379.382 64.9074 378.406 64.7154 377.542 64.3314C376.678 63.9314 375.99 63.3954 375.478 62.7234C374.982 62.0514 374.71 61.3074 374.662 60.4914H378.046C378.11 61.0034 378.358 61.4274 378.79 61.7634C379.238 62.0994 379.79 62.2674 380.446 62.2674C381.086 62.2674 381.582 62.1394 381.934 61.8834C382.302 61.6274 382.486 61.2994 382.486 60.8994C382.486 60.4674 382.262 60.1474 381.814 59.9394C381.382 59.7154 380.686 59.4754 379.726 59.2194C378.734 58.9794 377.918 58.7314 377.278 58.4754C376.654 58.2194 376.11 57.8274 375.646 57.2994C375.198 56.7714 374.974 56.0594 374.974 55.1634C374.974 54.4274 375.182 53.7554 375.598 53.1474C376.03 52.5394 376.638 52.0594 377.422 51.7074C378.222 51.3554 379.158 51.1794 380.23 51.1794C381.814 51.1794 383.078 51.5794 384.022 52.3794C384.966 53.1634 385.486 54.2274 385.582 55.5714H382.366C382.318 55.0434 382.094 54.6274 381.694 54.3234C381.31 54.0034 380.79 53.8434 380.134 53.8434C379.526 53.8434 379.054 53.9554 378.718 54.1794C378.398 54.4034 378.238 54.7154 378.238 55.1154C378.238 55.5634 378.462 55.9074 378.91 56.1474C379.358 56.3714 380.054 56.6034 380.998 56.8434C381.958 57.0834 382.75 57.3314 383.374 57.5874C383.998 57.8434 384.534 58.2434 384.982 58.7874C385.446 59.3154 385.686 60.0194 385.702 60.8994C385.702 61.6674 385.486 62.3554 385.054 62.9634C384.638 63.5714 384.03 64.0514 383.23 64.4034C382.446 64.7394 381.526 64.9074 380.47 64.9074ZM387.596 58.0434C387.596 56.6674 387.876 55.4674 388.436 54.4434C388.996 53.4034 389.772 52.6034 390.764 52.0434C391.756 51.4674 392.892 51.1794 394.172 51.1794C395.82 51.1794 397.18 51.5954 398.252 52.4274C399.34 53.2434 400.068 54.3954 400.436 55.8834H396.812C396.62 55.3074 396.292 54.8594 395.828 54.5394C395.38 54.2034 394.82 54.0354 394.148 54.0354C393.188 54.0354 392.428 54.3874 391.868 55.0914C391.308 55.7794 391.028 56.7634 391.028 58.0434C391.028 59.3074 391.308 60.2914 391.868 60.9954C392.428 61.6834 393.188 62.0274 394.148 62.0274C395.508 62.0274 396.396 61.4194 396.812 60.2034H400.436C400.068 61.6434 399.34 62.7874 398.252 63.6354C397.164 64.4834 395.804 64.9074 394.172 64.9074C392.892 64.9074 391.756 64.6274 390.764 64.0674C389.772 63.4914 388.996 62.6914 388.436 61.6674C387.876 60.6274 387.596 59.4194 387.596 58.0434ZM408.801 64.9074C407.521 64.9074 406.369 64.6274 405.345 64.0674C404.321 63.4914 403.513 62.6834 402.921 61.6434C402.345 60.6034 402.057 59.4034 402.057 58.0434C402.057 56.6834 402.353 55.4834 402.945 54.4434C403.553 53.4034 404.377 52.6034 405.417 52.0434C406.457 51.4674 407.617 51.1794 408.897 51.1794C410.177 51.1794 411.337 51.4674 412.377 52.0434C413.417 52.6034 414.233 53.4034 414.825 54.4434C415.433 55.4834 415.737 56.6834 415.737 58.0434C415.737 59.4034 415.425 60.6034 414.801 61.6434C414.193 62.6834 413.361 63.4914 412.305 64.0674C411.265 64.6274 410.097 64.9074 408.801 64.9074ZM408.801 61.9794C409.409 61.9794 409.977 61.8354 410.505 61.5474C411.049 61.2434 411.481 60.7954 411.801 60.2034C412.121 59.6114 412.281 58.8914 412.281 58.0434C412.281 56.7794 411.945 55.8114 411.273 55.1394C410.617 54.4514 409.809 54.1074 408.849 54.1074C407.889 54.1074 407.081 54.4514 406.425 55.1394C405.785 55.8114 405.465 56.7794 405.465 58.0434C405.465 59.3074 405.777 60.2834 406.401 60.9714C407.041 61.6434 407.841 61.9794 408.801 61.9794ZM423.746 61.5954L427.106 51.3954H430.682L425.762 64.6914H421.682L416.786 51.3954H420.386L423.746 61.5954ZM444.929 57.7554C444.929 58.2354 444.897 58.6674 444.833 59.0514H435.113C435.193 60.0114 435.529 60.7634 436.121 61.3074C436.713 61.8514 437.441 62.1234 438.305 62.1234C439.553 62.1234 440.441 61.5874 440.969 60.5154H444.593C444.209 61.7954 443.473 62.8514 442.385 63.6834C441.297 64.4994 439.961 64.9074 438.377 64.9074C437.097 64.9074 435.945 64.6274 434.921 64.0674C433.913 63.4914 433.121 62.6834 432.545 61.6434C431.985 60.6034 431.705 59.4034 431.705 58.0434C431.705 56.6674 431.985 55.4594 432.545 54.4194C433.105 53.3794 433.889 52.5794 434.897 52.0194C435.905 51.4594 437.065 51.1794 438.377 51.1794C439.641 51.1794 440.769 51.4514 441.761 51.9954C442.769 52.5394 443.545 53.3154 444.089 54.3234C444.649 55.3154 444.929 56.4594 444.929 57.7554ZM441.449 56.7954C441.433 55.9314 441.121 55.2434 440.513 54.7314C439.905 54.2034 439.161 53.9394 438.281 53.9394C437.449 53.9394 436.745 54.1954 436.169 54.7074C435.609 55.2034 435.265 55.8994 435.137 56.7954H441.449ZM450.742 53.4594C451.174 52.7554 451.734 52.2034 452.422 51.8034C453.126 51.4034 453.926 51.2034 454.822 51.2034V54.7314H453.934C452.878 54.7314 452.078 54.9794 451.534 55.4754C451.006 55.9714 450.742 56.8354 450.742 58.0674V64.6914H447.382V51.3954H450.742V53.4594ZM469.805 51.3954L461.573 70.9794H457.997L460.877 64.3554L455.549 51.3954H459.317L462.749 60.6834L466.229 51.3954H469.805ZM483.191 47.9394C484.951 47.9394 486.495 48.2834 487.823 48.9714C489.167 49.6594 490.199 50.6434 490.919 51.9234C491.655 53.1874 492.023 54.6594 492.023 56.3394C492.023 58.0194 491.655 59.4914 490.919 60.7554C490.199 62.0034 489.167 62.9714 487.823 63.6594C486.495 64.3474 484.951 64.6914 483.191 64.6914H477.335V47.9394H483.191ZM483.071 61.8354C484.831 61.8354 486.191 61.3554 487.151 60.3954C488.111 59.4354 488.591 58.0834 488.591 56.3394C488.591 54.5954 488.111 53.2354 487.151 52.2594C486.191 51.2674 484.831 50.7714 483.071 50.7714H480.695V61.8354H483.071ZM506.898 57.7554C506.898 58.2354 506.866 58.6674 506.802 59.0514H497.082C497.162 60.0114 497.498 60.7634 498.09 61.3074C498.682 61.8514 499.41 62.1234 500.274 62.1234C501.522 62.1234 502.41 61.5874 502.938 60.5154H506.562C506.178 61.7954 505.442 62.8514 504.354 63.6834C503.266 64.4994 501.93 64.9074 500.346 64.9074C499.066 64.9074 497.914 64.6274 496.89 64.0674C495.882 63.4914 495.09 62.6834 494.514 61.6434C493.954 60.6034 493.674 59.4034 493.674 58.0434C493.674 56.6674 493.954 55.4594 494.514 54.4194C495.074 53.3794 495.858 52.5794 496.866 52.0194C497.874 51.4594 499.034 51.1794 500.346 51.1794C501.61 51.1794 502.738 51.4514 503.73 51.9954C504.738 52.5394 505.514 53.3154 506.058 54.3234C506.618 55.3154 506.898 56.4594 506.898 57.7554ZM503.418 56.7954C503.402 55.9314 503.09 55.2434 502.482 54.7314C501.874 54.2034 501.13 53.9394 500.25 53.9394C499.418 53.9394 498.714 54.1954 498.138 54.7074C497.578 55.2034 497.234 55.8994 497.106 56.7954H503.418ZM525.862 51.2034C527.494 51.2034 528.806 51.7074 529.798 52.7154C530.806 53.7074 531.31 55.0994 531.31 56.8914V64.6914H527.95V57.3474C527.95 56.3074 527.686 55.5154 527.158 54.9714C526.63 54.4114 525.91 54.1314 524.998 54.1314C524.086 54.1314 523.358 54.4114 522.814 54.9714C522.286 55.5154 522.022 56.3074 522.022 57.3474V64.6914H518.662V57.3474C518.662 56.3074 518.398 55.5154 517.87 54.9714C517.342 54.4114 516.622 54.1314 515.71 54.1314C514.782 54.1314 514.046 54.4114 513.502 54.9714C512.974 55.5154 512.71 56.3074 512.71 57.3474V64.6914H509.35V51.3954H512.71V53.0034C513.142 52.4434 513.694 52.0034 514.366 51.6834C515.054 51.3634 515.806 51.2034 516.622 51.2034C517.662 51.2034 518.59 51.4274 519.406 51.8754C520.222 52.3074 520.854 52.9314 521.302 53.7474C521.734 52.9794 522.358 52.3634 523.174 51.8994C524.006 51.4354 524.902 51.2034 525.862 51.2034ZM540.403 64.9074C539.123 64.9074 537.971 64.6274 536.947 64.0674C535.923 63.4914 535.115 62.6834 534.523 61.6434C533.947 60.6034 533.659 59.4034 533.659 58.0434C533.659 56.6834 533.955 55.4834 534.547 54.4434C535.155 53.4034 535.979 52.6034 537.019 52.0434C538.059 51.4674 539.219 51.1794 540.499 51.1794C541.779 51.1794 542.939 51.4674 543.979 52.0434C545.019 52.6034 545.835 53.4034 546.427 54.4434C547.035 55.4834 547.339 56.6834 547.339 58.0434C547.339 59.4034 547.027 60.6034 546.403 61.6434C545.795 62.6834 544.963 63.4914 543.907 64.0674C542.867 64.6274 541.699 64.9074 540.403 64.9074ZM540.403 61.9794C541.011 61.9794 541.579 61.8354 542.107 61.5474C542.651 61.2434 543.083 60.7954 543.403 60.2034C543.723 59.6114 543.883 58.8914 543.883 58.0434C543.883 56.7794 543.547 55.8114 542.875 55.1394C542.219 54.4514 541.411 54.1074 540.451 54.1074C539.491 54.1074 538.683 54.4514 538.027 55.1394C537.387 55.8114 537.067 56.7794 537.067 58.0434C537.067 59.3074 537.379 60.2834 538.003 60.9714C538.643 61.6434 539.443 61.9794 540.403 61.9794ZM565.026 56.0994C565.97 56.2754 566.746 56.7474 567.354 57.5154C567.962 58.2834 568.266 59.1634 568.266 60.1554C568.266 61.0514 568.042 61.8434 567.594 62.5314C567.162 63.2034 566.53 63.7314 565.698 64.1154C564.866 64.4994 563.882 64.6914 562.746 64.6914H555.522V47.9394H562.434C563.57 47.9394 564.546 48.1234 565.362 48.4914C566.194 48.8594 566.818 49.3714 567.234 50.0274C567.666 50.6834 567.882 51.4274 567.882 52.2594C567.882 53.2354 567.618 54.0514 567.09 54.7074C566.578 55.3634 565.89 55.8274 565.026 56.0994ZM558.882 54.8514H561.954C562.754 54.8514 563.37 54.6754 563.802 54.3234C564.234 53.9554 564.45 53.4354 564.45 52.7634C564.45 52.0914 564.234 51.5714 563.802 51.2034C563.37 50.8354 562.754 50.6514 561.954 50.6514H558.882V54.8514ZM562.266 61.9554C563.082 61.9554 563.714 61.7634 564.162 61.3794C564.626 60.9954 564.858 60.4514 564.858 59.7474C564.858 59.0274 564.618 58.4674 564.138 58.0674C563.658 57.6514 563.01 57.4434 562.194 57.4434H558.882V61.9554H562.266ZM583.496 51.3954V64.6914H580.112V63.0114C579.68 63.5874 579.112 64.0434 578.408 64.3794C577.72 64.6994 576.968 64.8594 576.152 64.8594C575.112 64.8594 574.192 64.6434 573.392 64.2114C572.592 63.7634 571.96 63.1154 571.496 62.2674C571.048 61.4034 570.824 60.3794 570.824 59.1954V51.3954H574.184V58.7154C574.184 59.7714 574.448 60.5874 574.976 61.1634C575.504 61.7234 576.224 62.0034 577.136 62.0034C578.064 62.0034 578.792 61.7234 579.32 61.1634C579.848 60.5874 580.112 59.7714 580.112 58.7154V51.3954H583.496ZM588.515 49.8114C587.923 49.8114 587.427 49.6274 587.027 49.2594C586.643 48.8754 586.451 48.4034 586.451 47.8434C586.451 47.2834 586.643 46.8194 587.027 46.4514C587.427 46.0674 587.923 45.8754 588.515 45.8754C589.107 45.8754 589.595 46.0674 589.979 46.4514C590.379 46.8194 590.579 47.2834 590.579 47.8434C590.579 48.4034 590.379 48.8754 589.979 49.2594C589.595 49.6274 589.107 49.8114 588.515 49.8114ZM590.171 51.3954V64.6914H586.811V51.3954H590.171ZM596.851 46.9314V64.6914H593.491V46.9314H596.851ZM599.307 57.9954C599.307 56.6514 599.571 55.4594 600.099 54.4194C600.643 53.3794 601.379 52.5794 602.307 52.0194C603.235 51.4594 604.267 51.1794 605.403 51.1794C606.267 51.1794 607.091 51.3714 607.875 51.7554C608.659 52.1234 609.283 52.6194 609.747 53.2434V46.9314H613.155V64.6914H609.747V62.7234C609.331 63.3794 608.747 63.9074 607.995 64.3074C607.243 64.7074 606.371 64.9074 605.379 64.9074C604.259 64.9074 603.235 64.6194 602.307 64.0434C601.379 63.4674 600.643 62.6594 600.099 61.6194C599.571 60.5634 599.307 59.3554 599.307 57.9954ZM609.771 58.0434C609.771 57.2274 609.611 56.5314 609.291 55.9554C608.971 55.3634 608.539 54.9154 607.995 54.6114C607.451 54.2914 606.867 54.1314 606.243 54.1314C605.619 54.1314 605.043 54.2834 604.515 54.5874C603.987 54.8914 603.555 55.3394 603.219 55.9314C602.899 56.5074 602.739 57.1954 602.739 57.9954C602.739 58.7954 602.899 59.4994 603.219 60.1074C603.555 60.6994 603.987 61.1554 604.515 61.4754C605.059 61.7954 605.635 61.9554 606.243 61.9554C606.867 61.9554 607.451 61.8034 607.995 61.4994C608.539 61.1794 608.971 60.7314 609.291 60.1554C609.611 59.5634 609.771 58.8594 609.771 58.0434ZM628.796 57.7554C628.796 58.2354 628.764 58.6674 628.7 59.0514H618.98C619.06 60.0114 619.396 60.7634 619.988 61.3074C620.58 61.8514 621.308 62.1234 622.172 62.1234C623.42 62.1234 624.308 61.5874 624.836 60.5154H628.46C628.076 61.7954 627.34 62.8514 626.252 63.6834C625.164 64.4994 623.828 64.9074 622.244 64.9074C620.964 64.9074 619.812 64.6274 618.788 64.0674C617.78 63.4914 616.988 62.6834 616.412 61.6434C615.852 60.6034 615.572 59.4034 615.572 58.0434C615.572 56.6674 615.852 55.4594 616.412 54.4194C616.972 53.3794 617.756 52.5794 618.764 52.0194C619.772 51.4594 620.932 51.1794 622.244 51.1794C623.508 51.1794 624.636 51.4514 625.628 51.9954C626.636 52.5394 627.412 53.3154 627.956 54.3234C628.516 55.3154 628.796 56.4594 628.796 57.7554ZM625.316 56.7954C625.3 55.9314 624.988 55.2434 624.38 54.7314C623.772 54.2034 623.028 53.9394 622.148 53.9394C621.316 53.9394 620.612 54.1954 620.036 54.7074C619.476 55.2034 619.132 55.8994 619.004 56.7954H625.316ZM634.609 53.4594C635.041 52.7554 635.601 52.2034 636.289 51.8034C636.993 51.4034 637.793 51.2034 638.689 51.2034V54.7314H637.801C636.745 54.7314 635.945 54.9794 635.401 55.4754C634.873 55.9714 634.609 56.8354 634.609 58.0674V64.6914H631.249V51.3954H634.609V53.4594ZM645.296 47.6514L644.912 59.2434H642.08L641.672 47.6514H645.296ZM643.568 64.8594C642.96 64.8594 642.456 64.6754 642.056 64.3074C641.672 63.9234 641.48 63.4514 641.48 62.8914C641.48 62.3314 641.672 61.8674 642.056 61.4994C642.456 61.1154 642.96 60.9234 643.568 60.9234C644.16 60.9234 644.648 61.1154 645.032 61.4994C645.416 61.8674 645.608 62.3314 645.608 62.8914C645.608 63.4514 645.416 63.9234 645.032 64.3074C644.648 64.6754 644.16 64.8594 643.568 64.8594Z" fill="black"/>
<path d="M181.331 86.6606V87.9626H178.741V96.3906H177.145V87.9626H174.541V86.6606H181.331ZM186.937 88.5506C187.525 88.5506 188.048 88.6766 188.505 88.9286C188.972 89.1806 189.336 89.554 189.597 90.0486C189.868 90.5433 190.003 91.1406 190.003 91.8406V96.3906H188.421V92.0786C188.421 91.388 188.249 90.8606 187.903 90.4966C187.558 90.1233 187.087 89.9366 186.489 89.9366C185.892 89.9366 185.416 90.1233 185.061 90.4966C184.716 90.8606 184.543 91.388 184.543 92.0786V96.3906H182.947V86.0306H184.543V89.5726C184.814 89.246 185.155 88.994 185.565 88.8166C185.985 88.6393 186.443 88.5506 186.937 88.5506ZM199.109 92.3446C199.109 92.634 199.091 92.8953 199.053 93.1286H193.159C193.206 93.7446 193.435 94.2393 193.845 94.6126C194.256 94.986 194.76 95.1726 195.357 95.1726C196.216 95.1726 196.823 94.8133 197.177 94.0946H198.899C198.666 94.804 198.241 95.3873 197.625 95.8446C197.019 96.2926 196.263 96.5166 195.357 96.5166C194.62 96.5166 193.957 96.3533 193.369 96.0266C192.791 95.6906 192.333 95.224 191.997 94.6266C191.671 94.02 191.507 93.32 191.507 92.5266C191.507 91.7333 191.666 91.038 191.983 90.4406C192.31 89.834 192.763 89.3673 193.341 89.0406C193.929 88.714 194.601 88.5506 195.357 88.5506C196.085 88.5506 196.734 88.7093 197.303 89.0266C197.873 89.344 198.316 89.792 198.633 90.3706C198.951 90.94 199.109 91.598 199.109 92.3446ZM197.443 91.8406C197.434 91.2526 197.224 90.7813 196.813 90.4266C196.403 90.072 195.894 89.8946 195.287 89.8946C194.737 89.8946 194.265 90.072 193.873 90.4266C193.481 90.772 193.248 91.2433 193.173 91.8406H197.443ZM202.276 89.7966C202.509 89.4046 202.817 89.1013 203.2 88.8866C203.592 88.6626 204.054 88.5506 204.586 88.5506V90.2026H204.18C203.555 90.2026 203.079 90.3613 202.752 90.6786C202.435 90.996 202.276 91.5466 202.276 92.3306V96.3906H200.68V88.6766H202.276V89.7966ZM213.123 92.3446C213.123 92.634 213.104 92.8953 213.067 93.1286H207.173C207.22 93.7446 207.448 94.2393 207.859 94.6126C208.27 94.986 208.774 95.1726 209.371 95.1726C210.23 95.1726 210.836 94.8133 211.191 94.0946H212.913C212.68 94.804 212.255 95.3873 211.639 95.8446C211.032 96.2926 210.276 96.5166 209.371 96.5166C208.634 96.5166 207.971 96.3533 207.383 96.0266C206.804 95.6906 206.347 95.224 206.011 94.6266C205.684 94.02 205.521 93.32 205.521 92.5266C205.521 91.7333 205.68 91.038 205.997 90.4406C206.324 89.834 206.776 89.3673 207.355 89.0406C207.943 88.714 208.615 88.5506 209.371 88.5506C210.099 88.5506 210.748 88.7093 211.317 89.0266C211.886 89.344 212.33 89.792 212.647 90.3706C212.964 90.94 213.123 91.598 213.123 92.3446ZM211.457 91.8406C211.448 91.2526 211.238 90.7813 210.827 90.4266C210.416 90.072 209.908 89.8946 209.301 89.8946C208.75 89.8946 208.279 90.072 207.887 90.4266C207.495 90.772 207.262 91.2433 207.187 91.8406H211.457ZM219.142 87.6546C218.853 87.6546 218.61 87.5566 218.414 87.3606C218.218 87.1646 218.12 86.922 218.12 86.6326C218.12 86.3433 218.218 86.1006 218.414 85.9046C218.61 85.7086 218.853 85.6106 219.142 85.6106C219.422 85.6106 219.66 85.7086 219.856 85.9046C220.052 86.1006 220.15 86.3433 220.15 86.6326C220.15 86.922 220.052 87.1646 219.856 87.3606C219.66 87.5566 219.422 87.6546 219.142 87.6546ZM219.926 88.6766V96.3906H218.33V88.6766H219.926ZM224.822 96.5166C224.215 96.5166 223.669 96.4093 223.184 96.1946C222.708 95.9706 222.33 95.672 222.05 95.2986C221.77 94.916 221.62 94.4913 221.602 94.0246H223.254C223.282 94.3513 223.436 94.6266 223.716 94.8506C224.005 95.0653 224.364 95.1726 224.794 95.1726C225.242 95.1726 225.587 95.0886 225.83 94.9206C226.082 94.7433 226.208 94.5193 226.208 94.2486C226.208 93.9593 226.068 93.7446 225.788 93.6046C225.517 93.4646 225.083 93.3106 224.486 93.1426C223.907 92.984 223.436 92.83 223.072 92.6806C222.708 92.5313 222.39 92.3026 222.12 91.9946C221.858 91.6866 221.728 91.2806 221.728 90.7766C221.728 90.366 221.849 89.9926 222.092 89.6566C222.334 89.3113 222.68 89.0406 223.128 88.8446C223.585 88.6486 224.108 88.5506 224.696 88.5506C225.573 88.5506 226.278 88.7746 226.81 89.2226C227.351 89.6613 227.64 90.2633 227.678 91.0286H226.082C226.054 90.6833 225.914 90.408 225.662 90.2026C225.41 89.9973 225.069 89.8946 224.64 89.8946C224.22 89.8946 223.898 89.974 223.674 90.1326C223.45 90.2913 223.338 90.5013 223.338 90.7626C223.338 90.968 223.412 91.1406 223.562 91.2806C223.711 91.4206 223.893 91.5326 224.108 91.6166C224.322 91.6913 224.64 91.7893 225.06 91.9106C225.62 92.06 226.077 92.214 226.432 92.3726C226.796 92.522 227.108 92.746 227.37 93.0446C227.631 93.3433 227.766 93.74 227.776 94.2346C227.776 94.6733 227.654 95.0653 227.412 95.4106C227.169 95.756 226.824 96.0266 226.376 96.2226C225.937 96.4186 225.419 96.5166 224.822 96.5166ZM242.475 88.5506C243.082 88.5506 243.623 88.6766 244.099 88.9286C244.584 89.1806 244.962 89.554 245.233 90.0486C245.513 90.5433 245.653 91.1406 245.653 91.8406V96.3906H244.071V92.0786C244.071 91.388 243.898 90.8606 243.553 90.4966C243.208 90.1233 242.736 89.9366 242.139 89.9366C241.542 89.9366 241.066 90.1233 240.711 90.4966C240.366 90.8606 240.193 91.388 240.193 92.0786V96.3906H238.611V92.0786C238.611 91.388 238.438 90.8606 238.093 90.4966C237.748 90.1233 237.276 89.9366 236.679 89.9366C236.082 89.9366 235.606 90.1233 235.251 90.4966C234.906 90.8606 234.733 91.388 234.733 92.0786V96.3906H233.137V88.6766H234.733V89.5586C234.994 89.2413 235.326 88.994 235.727 88.8166C236.128 88.6393 236.558 88.5506 237.015 88.5506C237.631 88.5506 238.182 88.6813 238.667 88.9426C239.152 89.204 239.526 89.582 239.787 90.0766C240.02 89.61 240.384 89.2413 240.879 88.9706C241.374 88.6906 241.906 88.5506 242.475 88.5506ZM251.03 96.5166C250.302 96.5166 249.644 96.3533 249.056 96.0266C248.468 95.6906 248.006 95.224 247.67 94.6266C247.334 94.02 247.166 93.32 247.166 92.5266C247.166 91.7426 247.338 91.0473 247.684 90.4406C248.029 89.834 248.5 89.3673 249.098 89.0406C249.695 88.714 250.362 88.5506 251.1 88.5506C251.837 88.5506 252.504 88.714 253.102 89.0406C253.699 89.3673 254.17 89.834 254.516 90.4406C254.861 91.0473 255.034 91.7426 255.034 92.5266C255.034 93.3106 254.856 94.006 254.502 94.6126C254.147 95.2193 253.662 95.6906 253.046 96.0266C252.439 96.3533 251.767 96.5166 251.03 96.5166ZM251.03 95.1306C251.44 95.1306 251.823 95.0326 252.178 94.8366C252.542 94.6406 252.836 94.3466 253.06 93.9546C253.284 93.5626 253.396 93.0866 253.396 92.5266C253.396 91.9666 253.288 91.4953 253.074 91.1126C252.859 90.7206 252.574 90.4266 252.22 90.2306C251.865 90.0346 251.482 89.9366 251.072 89.9366C250.661 89.9366 250.278 90.0346 249.924 90.2306C249.578 90.4266 249.303 90.7206 249.098 91.1126C248.892 91.4953 248.79 91.9666 248.79 92.5266C248.79 93.3573 249 94.0013 249.42 94.4586C249.849 94.9066 250.386 95.1306 251.03 95.1306ZM258.208 89.7966C258.441 89.4046 258.749 89.1013 259.132 88.8866C259.524 88.6626 259.986 88.5506 260.518 88.5506V90.2026H260.112C259.486 90.2026 259.01 90.3613 258.684 90.6786C258.366 90.996 258.208 91.5466 258.208 92.3306V96.3906H256.612V88.6766H258.208V89.7966ZM269.055 92.3446C269.055 92.634 269.036 92.8953 268.999 93.1286H263.105C263.151 93.7446 263.38 94.2393 263.791 94.6126C264.201 94.986 264.705 95.1726 265.303 95.1726C266.161 95.1726 266.768 94.8133 267.123 94.0946H268.845C268.611 94.804 268.187 95.3873 267.571 95.8446C266.964 96.2926 266.208 96.5166 265.303 96.5166C264.565 96.5166 263.903 96.3533 263.315 96.0266C262.736 95.6906 262.279 95.224 261.943 94.6266C261.616 94.02 261.453 93.32 261.453 92.5266C261.453 91.7333 261.611 91.038 261.929 90.4406C262.255 89.834 262.708 89.3673 263.287 89.0406C263.875 88.714 264.547 88.5506 265.303 88.5506C266.031 88.5506 266.679 88.7093 267.249 89.0266C267.818 89.344 268.261 89.792 268.579 90.3706C268.896 90.94 269.055 91.598 269.055 92.3446ZM267.389 91.8406C267.379 91.2526 267.169 90.7813 266.759 90.4266C266.348 90.072 265.839 89.8946 265.233 89.8946C264.682 89.8946 264.211 90.072 263.819 90.4266C263.427 90.772 263.193 91.2433 263.119 91.8406H267.389ZM276.124 89.9786V94.2486C276.124 94.538 276.189 94.748 276.32 94.8786C276.46 95 276.693 95.0606 277.02 95.0606H278V96.3906H276.74C276.021 96.3906 275.471 96.2226 275.088 95.8866C274.705 95.5506 274.514 95.0046 274.514 94.2486V89.9786H273.604V88.6766H274.514V86.7586H276.124V88.6766H278V89.9786H276.124ZM283.461 88.5506C284.049 88.5506 284.572 88.6766 285.029 88.9286C285.496 89.1806 285.86 89.554 286.121 90.0486C286.392 90.5433 286.527 91.1406 286.527 91.8406V96.3906H284.945V92.0786C284.945 91.388 284.772 90.8606 284.427 90.4966C284.082 90.1233 283.61 89.9366 283.013 89.9366C282.416 89.9366 281.94 90.1233 281.585 90.4966C281.24 90.8606 281.067 91.388 281.067 92.0786V96.3906H279.471V86.0306H281.067V89.5726C281.338 89.246 281.678 88.994 282.089 88.8166C282.509 88.6393 282.966 88.5506 283.461 88.5506ZM288.031 92.4986C288.031 91.724 288.189 91.038 288.507 90.4406C288.833 89.8433 289.272 89.3813 289.823 89.0546C290.383 88.7186 290.999 88.5506 291.671 88.5506C292.277 88.5506 292.805 88.672 293.253 88.9146C293.71 89.148 294.074 89.442 294.345 89.7966V88.6766H295.955V96.3906H294.345V95.2426C294.074 95.6066 293.705 95.91 293.239 96.1526C292.772 96.3953 292.24 96.5166 291.643 96.5166C290.98 96.5166 290.373 96.3486 289.823 96.0126C289.272 95.6673 288.833 95.1913 288.507 94.5846C288.189 93.9686 288.031 93.2733 288.031 92.4986ZM294.345 92.5266C294.345 91.9946 294.233 91.5326 294.009 91.1406C293.794 90.7486 293.509 90.45 293.155 90.2446C292.8 90.0393 292.417 89.9366 292.007 89.9366C291.596 89.9366 291.213 90.0393 290.859 90.2446C290.504 90.4406 290.215 90.7346 289.991 91.1266C289.776 91.5093 289.669 91.9666 289.669 92.4986C289.669 93.0306 289.776 93.4973 289.991 93.8986C290.215 94.3 290.504 94.608 290.859 94.8226C291.223 95.028 291.605 95.1306 292.007 95.1306C292.417 95.1306 292.8 95.028 293.155 94.8226C293.509 94.6173 293.794 94.3186 294.009 93.9266C294.233 93.5253 294.345 93.0586 294.345 92.5266ZM301.943 88.5506C302.55 88.5506 303.091 88.6766 303.567 88.9286C304.052 89.1806 304.43 89.554 304.701 90.0486C304.972 90.5433 305.107 91.1406 305.107 91.8406V96.3906H303.525V92.0786C303.525 91.388 303.352 90.8606 303.007 90.4966C302.662 90.1233 302.19 89.9366 301.593 89.9366C300.996 89.9366 300.52 90.1233 300.165 90.4966C299.82 90.8606 299.647 91.388 299.647 92.0786V96.3906H298.051V88.6766H299.647V89.5586C299.908 89.2413 300.24 88.994 300.641 88.8166C301.052 88.6393 301.486 88.5506 301.943 88.5506ZM314.125 96.5166C313.397 96.5166 312.739 96.3533 312.151 96.0266C311.563 95.6906 311.101 95.224 310.765 94.6266C310.429 94.02 310.261 93.32 310.261 92.5266C310.261 91.7426 310.434 91.0473 310.779 90.4406C311.125 89.834 311.596 89.3673 312.193 89.0406C312.791 88.714 313.458 88.5506 314.195 88.5506C314.933 88.5506 315.6 88.714 316.197 89.0406C316.795 89.3673 317.266 89.834 317.611 90.4406C317.957 91.0473 318.129 91.7426 318.129 92.5266C318.129 93.3106 317.952 94.006 317.597 94.6126C317.243 95.2193 316.757 95.6906 316.141 96.0266C315.535 96.3533 314.863 96.5166 314.125 96.5166ZM314.125 95.1306C314.536 95.1306 314.919 95.0326 315.273 94.8366C315.637 94.6406 315.931 94.3466 316.155 93.9546C316.379 93.5626 316.491 93.0866 316.491 92.5266C316.491 91.9666 316.384 91.4953 316.169 91.1126C315.955 90.7206 315.67 90.4266 315.315 90.2306C314.961 90.0346 314.578 89.9366 314.167 89.9366C313.757 89.9366 313.374 90.0346 313.019 90.2306C312.674 90.4266 312.399 90.7206 312.193 91.1126C311.988 91.4953 311.885 91.9666 311.885 92.5266C311.885 93.3573 312.095 94.0013 312.515 94.4586C312.945 94.9066 313.481 95.1306 314.125 95.1306ZM323.599 88.5506C324.206 88.5506 324.747 88.6766 325.223 88.9286C325.709 89.1806 326.087 89.554 326.357 90.0486C326.628 90.5433 326.763 91.1406 326.763 91.8406V96.3906H325.181V92.0786C325.181 91.388 325.009 90.8606 324.663 90.4966C324.318 90.1233 323.847 89.9366 323.249 89.9366C322.652 89.9366 322.176 90.1233 321.821 90.4966C321.476 90.8606 321.303 91.388 321.303 92.0786V96.3906H319.707V88.6766H321.303V89.5586C321.565 89.2413 321.896 88.994 322.297 88.8166C322.708 88.6393 323.142 88.5506 323.599 88.5506ZM335.869 92.3446C335.869 92.634 335.85 92.8953 335.813 93.1286H329.919C329.966 93.7446 330.194 94.2393 330.605 94.6126C331.016 94.986 331.52 95.1726 332.117 95.1726C332.976 95.1726 333.582 94.8133 333.937 94.0946H335.659C335.426 94.804 335.001 95.3873 334.385 95.8446C333.778 96.2926 333.022 96.5166 332.117 96.5166C331.38 96.5166 330.717 96.3533 330.129 96.0266C329.55 95.6906 329.093 95.224 328.757 94.6266C328.43 94.02 328.267 93.32 328.267 92.5266C328.267 91.7333 328.426 91.038 328.743 90.4406C329.07 89.834 329.522 89.3673 330.101 89.0406C330.689 88.714 331.361 88.5506 332.117 88.5506C332.845 88.5506 333.494 88.7093 334.063 89.0266C334.632 89.344 335.076 89.792 335.393 90.3706C335.71 90.94 335.869 91.598 335.869 92.3446ZM334.203 91.8406C334.194 91.2526 333.984 90.7813 333.573 90.4266C333.162 90.072 332.654 89.8946 332.047 89.8946C331.496 89.8946 331.025 90.072 330.633 90.4266C330.241 90.772 330.008 91.2433 329.933 91.8406H334.203ZM351.436 88.6766L349.042 96.3906H347.362L345.808 90.6926L344.254 96.3906H342.574L340.166 88.6766H341.79L343.4 94.8786L345.038 88.6766H346.704L348.272 94.8506L349.868 88.6766H351.436ZM352.097 92.4986C352.097 91.724 352.256 91.038 352.573 90.4406C352.9 89.8433 353.338 89.3813 353.889 89.0546C354.449 88.7186 355.065 88.5506 355.737 88.5506C356.344 88.5506 356.871 88.672 357.319 88.9146C357.776 89.148 358.14 89.442 358.411 89.7966V88.6766H360.021V96.3906H358.411V95.2426C358.14 95.6066 357.772 95.91 357.305 96.1526C356.838 96.3953 356.306 96.5166 355.709 96.5166C355.046 96.5166 354.44 96.3486 353.889 96.0126C353.338 95.6673 352.9 95.1913 352.573 94.5846C352.256 93.9686 352.097 93.2733 352.097 92.4986ZM358.411 92.5266C358.411 91.9946 358.299 91.5326 358.075 91.1406C357.86 90.7486 357.576 90.45 357.221 90.2446C356.866 90.0393 356.484 89.9366 356.073 89.9366C355.662 89.9366 355.28 90.0393 354.925 90.2446C354.57 90.4406 354.281 90.7346 354.057 91.1266C353.842 91.5093 353.735 91.9666 353.735 92.4986C353.735 93.0306 353.842 93.4973 354.057 93.8986C354.281 94.3 354.57 94.608 354.925 94.8226C355.289 95.028 355.672 95.1306 356.073 95.1306C356.484 95.1306 356.866 95.028 357.221 94.8226C357.576 94.6173 357.86 94.3186 358.075 93.9266C358.299 93.5253 358.411 93.0586 358.411 92.5266ZM369.061 88.6766L364.329 100.017H362.677L364.245 96.2646L361.207 88.6766H362.985L365.155 94.5566L367.409 88.6766H369.061ZM377.795 88.5506C378.401 88.5506 378.943 88.6766 379.419 88.9286C379.904 89.1806 380.282 89.554 380.553 90.0486C380.823 90.5433 380.959 91.1406 380.959 91.8406V96.3906H379.377V92.0786C379.377 91.388 379.204 90.8606 378.859 90.4966C378.513 90.1233 378.042 89.9366 377.445 89.9366C376.847 89.9366 376.371 90.1233 376.017 90.4966C375.671 90.8606 375.499 91.388 375.499 92.0786V96.3906H373.903V88.6766H375.499V89.5586C375.76 89.2413 376.091 88.994 376.493 88.8166C376.903 88.6393 377.337 88.5506 377.795 88.5506ZM386.34 96.5166C385.612 96.5166 384.954 96.3533 384.366 96.0266C383.778 95.6906 383.316 95.224 382.98 94.6266C382.644 94.02 382.476 93.32 382.476 92.5266C382.476 91.7426 382.649 91.0473 382.994 90.4406C383.34 89.834 383.811 89.3673 384.408 89.0406C385.006 88.714 385.673 88.5506 386.41 88.5506C387.148 88.5506 387.815 88.714 388.412 89.0406C389.01 89.3673 389.481 89.834 389.826 90.4406C390.172 91.0473 390.344 91.7426 390.344 92.5266C390.344 93.3106 390.167 94.006 389.812 94.6126C389.458 95.2193 388.972 95.6906 388.356 96.0266C387.75 96.3533 387.078 96.5166 386.34 96.5166ZM386.34 95.1306C386.751 95.1306 387.134 95.0326 387.488 94.8366C387.852 94.6406 388.146 94.3466 388.37 93.9546C388.594 93.5626 388.706 93.0866 388.706 92.5266C388.706 91.9666 388.599 91.4953 388.384 91.1126C388.17 90.7206 387.885 90.4266 387.53 90.2306C387.176 90.0346 386.793 89.9366 386.382 89.9366C385.972 89.9366 385.589 90.0346 385.234 90.2306C384.889 90.4266 384.614 90.7206 384.408 91.1126C384.203 91.4953 384.1 91.9666 384.1 92.5266C384.1 93.3573 384.31 94.0013 384.73 94.4586C385.16 94.9066 385.696 95.1306 386.34 95.1306ZM402.282 88.6766L399.888 96.3906H398.208L396.654 90.6926L395.1 96.3906H393.42L391.012 88.6766H392.636L394.246 94.8786L395.884 88.6766H397.55L399.118 94.8506L400.714 88.6766H402.282ZM408.974 89.9786V94.2486C408.974 94.538 409.039 94.748 409.17 94.8786C409.31 95 409.543 95.0606 409.87 95.0606H410.85V96.3906H409.59C408.871 96.3906 408.32 96.2226 407.938 95.8866C407.555 95.5506 407.364 95.0046 407.364 94.2486V89.9786H406.454V88.6766H407.364V86.7586H408.974V88.6766H410.85V89.9786H408.974ZM415.667 96.5166C414.939 96.5166 414.281 96.3533 413.693 96.0266C413.105 95.6906 412.643 95.224 412.307 94.6266C411.971 94.02 411.803 93.32 411.803 92.5266C411.803 91.7426 411.975 91.0473 412.321 90.4406C412.666 89.834 413.137 89.3673 413.735 89.0406C414.332 88.714 414.999 88.5506 415.737 88.5506C416.474 88.5506 417.141 88.714 417.739 89.0406C418.336 89.3673 418.807 89.834 419.153 90.4406C419.498 91.0473 419.671 91.7426 419.671 92.5266C419.671 93.3106 419.493 94.006 419.139 94.6126C418.784 95.2193 418.299 95.6906 417.683 96.0266C417.076 96.3533 416.404 96.5166 415.667 96.5166ZM415.667 95.1306C416.077 95.1306 416.46 95.0326 416.815 94.8366C417.179 94.6406 417.473 94.3466 417.697 93.9546C417.921 93.5626 418.033 93.0866 418.033 92.5266C418.033 91.9666 417.925 91.4953 417.711 91.1126C417.496 90.7206 417.211 90.4266 416.857 90.2306C416.502 90.0346 416.119 89.9366 415.709 89.9366C415.298 89.9366 414.915 90.0346 414.561 90.2306C414.215 90.4266 413.94 90.7206 413.735 91.1126C413.529 91.4953 413.427 91.9666 413.427 92.5266C413.427 93.3573 413.637 94.0013 414.057 94.4586C414.486 94.9066 415.023 95.1306 415.667 95.1306ZM424.353 92.5266C424.353 91.7333 424.512 91.038 424.829 90.4406C425.156 89.834 425.604 89.3673 426.173 89.0406C426.742 88.714 427.396 88.5506 428.133 88.5506C429.066 88.5506 429.836 88.7746 430.443 89.2226C431.059 89.6613 431.474 90.2913 431.689 91.1126H429.967C429.827 90.73 429.603 90.4313 429.295 90.2166C428.987 90.002 428.6 89.8946 428.133 89.8946C427.48 89.8946 426.957 90.128 426.565 90.5946C426.182 91.052 425.991 91.696 425.991 92.5266C425.991 93.3573 426.182 94.006 426.565 94.4726C426.957 94.9393 427.48 95.1726 428.133 95.1726C429.057 95.1726 429.668 94.7666 429.967 93.9546H431.689C431.465 94.7386 431.045 95.364 430.429 95.8306C429.813 96.288 429.048 96.5166 428.133 96.5166C427.396 96.5166 426.742 96.3533 426.173 96.0266C425.604 95.6906 425.156 95.224 424.829 94.6266C424.512 94.02 424.353 93.32 424.353 92.5266ZM434.875 89.7966C435.109 89.4046 435.417 89.1013 435.799 88.8866C436.191 88.6626 436.653 88.5506 437.185 88.5506V90.2026H436.779C436.154 90.2026 435.678 90.3613 435.351 90.6786C435.034 90.996 434.875 91.5466 434.875 92.3306V96.3906H433.279V88.6766H434.875V89.7966ZM445.723 92.3446C445.723 92.634 445.704 92.8953 445.667 93.1286H439.773C439.819 93.7446 440.048 94.2393 440.459 94.6126C440.869 94.986 441.373 95.1726 441.971 95.1726C442.829 95.1726 443.436 94.8133 443.791 94.0946H445.513C445.279 94.804 444.855 95.3873 444.239 95.8446C443.632 96.2926 442.876 96.5166 441.971 96.5166C441.233 96.5166 440.571 96.3533 439.983 96.0266C439.404 95.6906 438.947 95.224 438.611 94.6266C438.284 94.02 438.121 93.32 438.121 92.5266C438.121 91.7333 438.279 91.038 438.597 90.4406C438.923 89.834 439.376 89.3673 439.955 89.0406C440.543 88.714 441.215 88.5506 441.971 88.5506C442.699 88.5506 443.347 88.7093 443.917 89.0266C444.486 89.344 444.929 89.792 445.247 90.3706C445.564 90.94 445.723 91.598 445.723 92.3446ZM444.057 91.8406C444.047 91.2526 443.837 90.7813 443.427 90.4266C443.016 90.072 442.507 89.8946 441.901 89.8946C441.35 89.8946 440.879 90.072 440.487 90.4266C440.095 90.772 439.861 91.2433 439.787 91.8406H444.057ZM446.761 92.4986C446.761 91.724 446.92 91.038 447.237 90.4406C447.564 89.8433 448.002 89.3813 448.553 89.0546C449.113 88.7186 449.729 88.5506 450.401 88.5506C451.008 88.5506 451.535 88.672 451.983 88.9146C452.44 89.148 452.804 89.442 453.075 89.7966V88.6766H454.685V96.3906H453.075V95.2426C452.804 95.6066 452.436 95.91 451.969 96.1526C451.502 96.3953 450.97 96.5166 450.373 96.5166C449.71 96.5166 449.104 96.3486 448.553 96.0126C448.002 95.6673 447.564 95.1913 447.237 94.5846C446.92 93.9686 446.761 93.2733 446.761 92.4986ZM453.075 92.5266C453.075 91.9946 452.963 91.5326 452.739 91.1406C452.524 90.7486 452.24 90.45 451.885 90.2446C451.53 90.0393 451.148 89.9366 450.737 89.9366C450.326 89.9366 449.944 90.0393 449.589 90.2446C449.234 90.4406 448.945 90.7346 448.721 91.1266C448.506 91.5093 448.399 91.9666 448.399 92.4986C448.399 93.0306 448.506 93.4973 448.721 93.8986C448.945 94.3 449.234 94.608 449.589 94.8226C449.953 95.028 450.336 95.1306 450.737 95.1306C451.148 95.1306 451.53 95.028 451.885 94.8226C452.24 94.6173 452.524 94.3186 452.739 93.9266C452.963 93.5253 453.075 93.0586 453.075 92.5266ZM458.643 89.9786V94.2486C458.643 94.538 458.709 94.748 458.839 94.8786C458.979 95 459.213 95.0606 459.539 95.0606H460.519V96.3906H459.259C458.541 96.3906 457.99 96.2226 457.607 95.8866C457.225 95.5506 457.033 95.0046 457.033 94.2486V89.9786H456.123V88.6766H457.033V86.7586H458.643V88.6766H460.519V89.9786H458.643ZM469.06 92.3446C469.06 92.634 469.042 92.8953 469.004 93.1286H463.11C463.157 93.7446 463.386 94.2393 463.796 94.6126C464.207 94.986 464.711 95.1726 465.308 95.1726C466.167 95.1726 466.774 94.8133 467.128 94.0946H468.85C468.617 94.804 468.192 95.3873 467.576 95.8446C466.97 96.2926 466.214 96.5166 465.308 96.5166C464.571 96.5166 463.908 96.3533 463.32 96.0266C462.742 95.6906 462.284 95.224 461.948 94.6266C461.622 94.02 461.458 93.32 461.458 92.5266C461.458 91.7333 461.617 91.038 461.934 90.4406C462.261 89.834 462.714 89.3673 463.292 89.0406C463.88 88.714 464.552 88.5506 465.308 88.5506C466.036 88.5506 466.685 88.7093 467.254 89.0266C467.824 89.344 468.267 89.792 468.584 90.3706C468.902 90.94 469.06 91.598 469.06 92.3446ZM467.394 91.8406C467.385 91.2526 467.175 90.7813 466.764 90.4266C466.354 90.072 465.845 89.8946 465.238 89.8946C464.688 89.8946 464.216 90.072 463.824 90.4266C463.432 90.772 463.199 91.2433 463.124 91.8406H467.394ZM481.212 88.6766L476.48 100.017H474.828L476.396 96.2646L473.358 88.6766H475.136L477.306 94.5566L479.56 88.6766H481.212ZM485.762 96.5166C485.034 96.5166 484.376 96.3533 483.788 96.0266C483.2 95.6906 482.738 95.224 482.402 94.6266C482.066 94.02 481.898 93.32 481.898 92.5266C481.898 91.7426 482.071 91.0473 482.416 90.4406C482.762 89.834 483.233 89.3673 483.83 89.0406C484.428 88.714 485.095 88.5506 485.832 88.5506C486.57 88.5506 487.237 88.714 487.834 89.0406C488.432 89.3673 488.903 89.834 489.248 90.4406C489.594 91.0473 489.766 91.7426 489.766 92.5266C489.766 93.3106 489.589 94.006 489.234 94.6126C488.88 95.2193 488.394 95.6906 487.778 96.0266C487.172 96.3533 486.5 96.5166 485.762 96.5166ZM485.762 95.1306C486.173 95.1306 486.556 95.0326 486.91 94.8366C487.274 94.6406 487.568 94.3466 487.792 93.9546C488.016 93.5626 488.128 93.0866 488.128 92.5266C488.128 91.9666 488.021 91.4953 487.806 91.1126C487.592 90.7206 487.307 90.4266 486.952 90.2306C486.598 90.0346 486.215 89.9366 485.804 89.9366C485.394 89.9366 485.011 90.0346 484.656 90.2306C484.311 90.4266 484.036 90.7206 483.83 91.1126C483.625 91.4953 483.522 91.9666 483.522 92.5266C483.522 93.3573 483.732 94.0013 484.152 94.4586C484.582 94.9066 485.118 95.1306 485.762 95.1306ZM498.33 88.6766V96.3906H496.734V95.4806C496.482 95.798 496.151 96.05 495.74 96.2366C495.339 96.414 494.909 96.5026 494.452 96.5026C493.845 96.5026 493.299 96.3766 492.814 96.1246C492.338 95.8726 491.96 95.4993 491.68 95.0046C491.409 94.51 491.274 93.9126 491.274 93.2126V88.6766H492.856V92.9746C492.856 93.6653 493.029 94.1973 493.374 94.5706C493.719 94.9346 494.191 95.1166 494.788 95.1166C495.385 95.1166 495.857 94.9346 496.202 94.5706C496.557 94.1973 496.734 93.6653 496.734 92.9746V88.6766H498.33ZM502.032 89.7966C502.265 89.4046 502.573 89.1013 502.956 88.8866C503.348 88.6626 503.81 88.5506 504.342 88.5506V90.2026H503.936C503.31 90.2026 502.834 90.3613 502.508 90.6786C502.19 90.996 502.032 91.5466 502.032 92.3306V96.3906H500.436V88.6766H502.032V89.7966ZM512.624 86.6606C513.66 86.6606 514.565 86.8613 515.34 87.2626C516.124 87.6546 516.726 88.224 517.146 88.9706C517.575 89.708 517.79 90.5713 517.79 91.5606C517.79 92.55 517.575 93.4086 517.146 94.1366C516.726 94.8646 516.124 95.4246 515.34 95.8166C514.565 96.1993 513.66 96.3906 512.624 96.3906H509.446V86.6606H512.624ZM512.624 95.0886C513.762 95.0886 514.635 94.7806 515.242 94.1646C515.848 93.5486 516.152 92.6806 516.152 91.5606C516.152 90.4313 515.848 89.5493 515.242 88.9146C514.635 88.28 513.762 87.9626 512.624 87.9626H511.042V95.0886H512.624ZM520.183 87.6546C519.894 87.6546 519.651 87.5566 519.455 87.3606C519.259 87.1646 519.161 86.922 519.161 86.6326C519.161 86.3433 519.259 86.1006 519.455 85.9046C519.651 85.7086 519.894 85.6106 520.183 85.6106C520.463 85.6106 520.701 85.7086 520.897 85.9046C521.093 86.1006 521.191 86.3433 521.191 86.6326C521.191 86.922 521.093 87.1646 520.897 87.3606C520.701 87.5566 520.463 87.6546 520.183 87.6546ZM520.967 88.6766V96.3906H519.371V88.6766H520.967ZM525.863 96.5166C525.256 96.5166 524.71 96.4093 524.225 96.1946C523.749 95.9706 523.371 95.672 523.091 95.2986C522.811 94.916 522.661 94.4913 522.643 94.0246H524.295C524.323 94.3513 524.477 94.6266 524.757 94.8506C525.046 95.0653 525.405 95.1726 525.835 95.1726C526.283 95.1726 526.628 95.0886 526.871 94.9206C527.123 94.7433 527.249 94.5193 527.249 94.2486C527.249 93.9593 527.109 93.7446 526.829 93.6046C526.558 93.4646 526.124 93.3106 525.527 93.1426C524.948 92.984 524.477 92.83 524.113 92.6806C523.749 92.5313 523.431 92.3026 523.161 91.9946C522.899 91.6866 522.769 91.2806 522.769 90.7766C522.769 90.366 522.89 89.9926 523.133 89.6566C523.375 89.3113 523.721 89.0406 524.169 88.8446C524.626 88.6486 525.149 88.5506 525.737 88.5506C526.614 88.5506 527.319 88.7746 527.851 89.2226C528.392 89.6613 528.681 90.2633 528.719 91.0286H527.123C527.095 90.6833 526.955 90.408 526.703 90.2026C526.451 89.9973 526.11 89.8946 525.681 89.8946C525.261 89.8946 524.939 89.974 524.715 90.1326C524.491 90.2913 524.379 90.5013 524.379 90.7626C524.379 90.968 524.453 91.1406 524.603 91.2806C524.752 91.4206 524.934 91.5326 525.149 91.6166C525.363 91.6913 525.681 91.7893 526.101 91.9106C526.661 92.06 527.118 92.214 527.473 92.3726C527.837 92.522 528.149 92.746 528.411 93.0446C528.672 93.3433 528.807 93.74 528.817 94.2346C528.817 94.6733 528.695 95.0653 528.453 95.4106C528.21 95.756 527.865 96.0266 527.417 96.2226C526.978 96.4186 526.46 96.5166 525.863 96.5166ZM530.009 92.5266C530.009 91.7333 530.168 91.038 530.485 90.4406C530.812 89.834 531.26 89.3673 531.829 89.0406C532.399 88.714 533.052 88.5506 533.789 88.5506C534.723 88.5506 535.493 88.7746 536.099 89.2226C536.715 89.6613 537.131 90.2913 537.345 91.1126H535.623C535.483 90.73 535.259 90.4313 534.951 90.2166C534.643 90.002 534.256 89.8946 533.789 89.8946C533.136 89.8946 532.613 90.128 532.221 90.5946C531.839 91.052 531.647 91.696 531.647 92.5266C531.647 93.3573 531.839 94.006 532.221 94.4726C532.613 94.9393 533.136 95.1726 533.789 95.1726C534.713 95.1726 535.325 94.7666 535.623 93.9546H537.345C537.121 94.7386 536.701 95.364 536.085 95.8306C535.469 96.288 534.704 96.5166 533.789 96.5166C533.052 96.5166 532.399 96.3533 531.829 96.0266C531.26 95.6906 530.812 95.224 530.485 94.6266C530.168 94.02 530.009 93.32 530.009 92.5266ZM542.282 96.5166C541.554 96.5166 540.896 96.3533 540.308 96.0266C539.72 95.6906 539.258 95.224 538.922 94.6266C538.586 94.02 538.418 93.32 538.418 92.5266C538.418 91.7426 538.59 91.0473 538.936 90.4406C539.281 89.834 539.752 89.3673 540.35 89.0406C540.947 88.714 541.614 88.5506 542.352 88.5506C543.089 88.5506 543.756 88.714 544.354 89.0406C544.951 89.3673 545.422 89.834 545.768 90.4406C546.113 91.0473 546.286 91.7426 546.286 92.5266C546.286 93.3106 546.108 94.006 545.754 94.6126C545.399 95.2193 544.914 95.6906 544.298 96.0266C543.691 96.3533 543.019 96.5166 542.282 96.5166ZM542.282 95.1306C542.692 95.1306 543.075 95.0326 543.43 94.8366C543.794 94.6406 544.088 94.3466 544.312 93.9546C544.536 93.5626 544.648 93.0866 544.648 92.5266C544.648 91.9666 544.54 91.4953 544.326 91.1126C544.111 90.7206 543.826 90.4266 543.472 90.2306C543.117 90.0346 542.734 89.9366 542.324 89.9366C541.913 89.9366 541.53 90.0346 541.176 90.2306C540.83 90.4266 540.555 90.7206 540.35 91.1126C540.144 91.4953 540.042 91.9666 540.042 92.5266C540.042 93.3573 540.252 94.0013 540.672 94.4586C541.101 94.9066 541.638 95.1306 542.282 95.1306ZM550.845 94.9626L553.029 88.6766H554.723L551.783 96.3906H549.879L546.953 88.6766H548.661L550.845 94.9626ZM563 92.3446C563 92.634 562.981 92.8953 562.944 93.1286H557.05C557.097 93.7446 557.325 94.2393 557.736 94.6126C558.147 94.986 558.651 95.1726 559.248 95.1726C560.107 95.1726 560.713 94.8133 561.068 94.0946H562.79C562.557 94.804 562.132 95.3873 561.516 95.8446C560.909 96.2926 560.153 96.5166 559.248 96.5166C558.511 96.5166 557.848 96.3533 557.26 96.0266C556.681 95.6906 556.224 95.224 555.888 94.6266C555.561 94.02 555.398 93.32 555.398 92.5266C555.398 91.7333 555.557 91.038 555.874 90.4406C556.201 89.834 556.653 89.3673 557.232 89.0406C557.82 88.714 558.492 88.5506 559.248 88.5506C559.976 88.5506 560.625 88.7093 561.194 89.0266C561.763 89.344 562.207 89.792 562.524 90.3706C562.841 90.94 563 91.598 563 92.3446ZM561.334 91.8406C561.325 91.2526 561.115 90.7813 560.704 90.4266C560.293 90.072 559.785 89.8946 559.178 89.8946C558.627 89.8946 558.156 90.072 557.764 90.4266C557.372 90.772 557.139 91.2433 557.064 91.8406H561.334ZM566.167 89.7966C566.4 89.4046 566.708 89.1013 567.091 88.8866C567.483 88.6626 567.945 88.5506 568.477 88.5506V90.2026H568.071C567.445 90.2026 566.969 90.3613 566.643 90.6786C566.325 90.996 566.167 91.5466 566.167 92.3306V96.3906H564.571V88.6766H566.167V89.7966ZM576.888 88.6766L572.156 100.017H570.504L572.072 96.2646L569.034 88.6766H570.812L572.982 94.5566L575.236 88.6766H576.888ZM584.907 86.6606C585.943 86.6606 586.848 86.8613 587.623 87.2626C588.407 87.6546 589.009 88.224 589.429 88.9706C589.858 89.708 590.073 90.5713 590.073 91.5606C590.073 92.55 589.858 93.4086 589.429 94.1366C589.009 94.8646 588.407 95.4246 587.623 95.8166C586.848 96.1993 585.943 96.3906 584.907 96.3906H581.729V86.6606H584.907ZM584.907 95.0886C586.045 95.0886 586.918 94.7806 587.525 94.1646C588.131 93.5486 588.435 92.6806 588.435 91.5606C588.435 90.4313 588.131 89.5493 587.525 88.9146C586.918 88.28 586.045 87.9626 584.907 87.9626H583.325V95.0886H584.907ZM598.724 92.3446C598.724 92.634 598.706 92.8953 598.668 93.1286H592.774C592.821 93.7446 593.05 94.2393 593.46 94.6126C593.871 94.986 594.375 95.1726 594.972 95.1726C595.831 95.1726 596.438 94.8133 596.792 94.0946H598.514C598.281 94.804 597.856 95.3873 597.24 95.8446C596.634 96.2926 595.878 96.5166 594.972 96.5166C594.235 96.5166 593.572 96.3533 592.984 96.0266C592.406 95.6906 591.948 95.224 591.612 94.6266C591.286 94.02 591.122 93.32 591.122 92.5266C591.122 91.7333 591.281 91.038 591.598 90.4406C591.925 89.834 592.378 89.3673 592.956 89.0406C593.544 88.714 594.216 88.5506 594.972 88.5506C595.7 88.5506 596.349 88.7093 596.918 89.0266C597.488 89.344 597.931 89.792 598.248 90.3706C598.566 90.94 598.724 91.598 598.724 92.3446ZM597.058 91.8406C597.049 91.2526 596.839 90.7813 596.428 90.4266C596.018 90.072 595.509 89.8946 594.902 89.8946C594.352 89.8946 593.88 90.072 593.488 90.4266C593.096 90.772 592.863 91.2433 592.788 91.8406H597.058ZM609.633 88.5506C610.24 88.5506 610.781 88.6766 611.257 88.9286C611.742 89.1806 612.12 89.554 612.391 90.0486C612.671 90.5433 612.811 91.1406 612.811 91.8406V96.3906H611.229V92.0786C611.229 91.388 611.056 90.8606 610.711 90.4966C610.366 90.1233 609.894 89.9366 609.297 89.9366C608.7 89.9366 608.224 90.1233 607.869 90.4966C607.524 90.8606 607.351 91.388 607.351 92.0786V96.3906H605.769V92.0786C605.769 91.388 605.596 90.8606 605.251 90.4966C604.906 90.1233 604.434 89.9366 603.837 89.9366C603.24 89.9366 602.764 90.1233 602.409 90.4966C602.064 90.8606 601.891 91.388 601.891 92.0786V96.3906H600.295V88.6766H601.891V89.5586C602.152 89.2413 602.484 88.994 602.885 88.8166C603.286 88.6393 603.716 88.5506 604.173 88.5506C604.789 88.5506 605.34 88.6813 605.825 88.9426C606.31 89.204 606.684 89.582 606.945 90.0766C607.178 89.61 607.542 89.2413 608.037 88.9706C608.532 88.6906 609.064 88.5506 609.633 88.5506ZM618.188 96.5166C617.46 96.5166 616.802 96.3533 616.214 96.0266C615.626 95.6906 615.164 95.224 614.828 94.6266C614.492 94.02 614.324 93.32 614.324 92.5266C614.324 91.7426 614.497 91.0473 614.842 90.4406C615.187 89.834 615.659 89.3673 616.256 89.0406C616.853 88.714 617.521 88.5506 618.258 88.5506C618.995 88.5506 619.663 88.714 620.26 89.0406C620.857 89.3673 621.329 89.834 621.674 90.4406C622.019 91.0473 622.192 91.7426 622.192 92.5266C622.192 93.3106 622.015 94.006 621.66 94.6126C621.305 95.2193 620.82 95.6906 620.204 96.0266C619.597 96.3533 618.925 96.5166 618.188 96.5166ZM618.188 95.1306C618.599 95.1306 618.981 95.0326 619.336 94.8366C619.7 94.6406 619.994 94.3466 620.218 93.9546C620.442 93.5626 620.554 93.0866 620.554 92.5266C620.554 91.9666 620.447 91.4953 620.232 91.1126C620.017 90.7206 619.733 90.4266 619.378 90.2306C619.023 90.0346 618.641 89.9366 618.23 89.9366C617.819 89.9366 617.437 90.0346 617.082 90.2306C616.737 90.4266 616.461 90.7206 616.256 91.1126C616.051 91.4953 615.948 91.9666 615.948 92.5266C615.948 93.3573 616.158 94.0013 616.578 94.4586C617.007 94.9066 617.544 95.1306 618.188 95.1306ZM624.414 96.4886C624.124 96.4886 623.882 96.3906 623.686 96.1946C623.49 95.9986 623.392 95.756 623.392 95.4666C623.392 95.1773 623.49 94.9346 623.686 94.7386C623.882 94.5426 624.124 94.4446 624.414 94.4446C624.694 94.4446 624.932 94.5426 625.128 94.7386C625.324 94.9346 625.422 95.1773 625.422 95.4666C625.422 95.756 625.324 95.9986 625.128 96.1946C624.932 96.3906 624.694 96.4886 624.414 96.4886Z" fill="black"/>
<path d="M397.956 306.017C397.209 306.017 396.537 305.853 395.94 305.527C395.343 305.191 394.871 304.719 394.526 304.113C394.19 303.506 394.022 302.806 394.022 302.013C394.022 301.219 394.195 300.519 394.54 299.913C394.895 299.306 395.375 298.839 395.982 298.513C396.589 298.177 397.265 298.009 398.012 298.009C398.759 298.009 399.435 298.177 400.042 298.513C400.649 298.839 401.125 299.306 401.47 299.913C401.825 300.519 402.002 301.219 402.002 302.013C402.002 302.806 401.82 303.506 401.456 304.113C401.101 304.719 400.616 305.191 400 305.527C399.393 305.853 398.712 306.017 397.956 306.017ZM397.956 304.309C398.311 304.309 398.642 304.225 398.95 304.057C399.267 303.879 399.519 303.618 399.706 303.273C399.893 302.927 399.986 302.507 399.986 302.013C399.986 301.275 399.79 300.711 399.398 300.319C399.015 299.917 398.544 299.717 397.984 299.717C397.424 299.717 396.953 299.917 396.57 300.319C396.197 300.711 396.01 301.275 396.01 302.013C396.01 302.75 396.192 303.319 396.556 303.721C396.929 304.113 397.396 304.309 397.956 304.309ZM405.4 299.339C405.652 298.928 405.978 298.606 406.38 298.373C406.79 298.139 407.257 298.023 407.78 298.023V300.081H407.262C406.646 300.081 406.179 300.225 405.862 300.515C405.554 300.804 405.4 301.308 405.4 302.027V305.891H403.44V298.135H405.4V299.339Z" fill="black"/>
<rect x="251.046" y="518.391" width="16" height="16" rx="4" fill="#FC6839"/>
<mask id="mask0_1470_32122" style="mask-type:alpha" maskUnits="userSpaceOnUse" x="252" y="519" width="14" height="14">
<rect x="252.647" y="519.992" width="13" height="13" fill="#D9D9D9"/>
</mask>
<g mask="url(#mask0_1470_32122)">
<path d="M257.741 529.366C257.67 529.366 257.603 529.355 257.541 529.333C257.479 529.311 257.421 529.273 257.367 529.22L255.074 526.926C254.976 526.828 254.93 526.702 254.934 526.546C254.938 526.391 254.99 526.264 255.087 526.166C255.185 526.068 255.31 526.02 255.461 526.02C255.612 526.02 255.736 526.068 255.834 526.166L257.741 528.073L262.261 523.553C262.359 523.455 262.485 523.406 262.641 523.406C262.796 523.406 262.923 523.455 263.021 523.553C263.119 523.651 263.167 523.777 263.167 523.933C263.167 524.088 263.119 524.215 263.021 524.313L258.114 529.22C258.061 529.273 258.003 529.311 257.941 529.333C257.879 529.355 257.812 529.366 257.741 529.366Z" fill="white"/>
</g>
<path d="M287.162 520.633C288.226 520.633 289.145 520.833 289.92 521.235C290.704 521.627 291.301 522.191 291.712 522.929C292.132 523.666 292.342 524.534 292.342 525.533C292.342 526.531 292.132 527.399 291.712 528.137C291.301 528.865 290.704 529.425 289.92 529.817C289.145 530.199 288.226 530.391 287.162 530.391H284.124V520.633H287.162ZM287.162 529.341C288.422 529.341 289.383 529.009 290.046 528.347C290.709 527.675 291.04 526.737 291.04 525.533C291.04 524.319 290.704 523.372 290.032 522.691C289.369 522.009 288.413 521.669 287.162 521.669H285.398V529.341H287.162ZM297.368 530.517C296.65 530.517 295.996 530.353 295.408 530.027C294.83 529.7 294.372 529.238 294.036 528.641C293.71 528.034 293.546 527.334 293.546 526.541C293.546 525.757 293.714 525.066 294.05 524.469C294.396 523.862 294.862 523.4 295.45 523.083C296.038 522.756 296.696 522.593 297.424 522.593C298.152 522.593 298.81 522.756 299.398 523.083C299.986 523.4 300.448 523.857 300.784 524.455C301.13 525.052 301.302 525.747 301.302 526.541C301.302 527.334 301.125 528.034 300.77 528.641C300.425 529.238 299.954 529.7 299.356 530.027C298.759 530.353 298.096 530.517 297.368 530.517ZM297.368 529.397C297.826 529.397 298.255 529.289 298.656 529.075C299.058 528.86 299.38 528.538 299.622 528.109C299.874 527.679 300 527.157 300 526.541C300 525.925 299.879 525.402 299.636 524.973C299.394 524.543 299.076 524.226 298.684 524.021C298.292 523.806 297.868 523.699 297.41 523.699C296.944 523.699 296.514 523.806 296.122 524.021C295.74 524.226 295.432 524.543 295.198 524.973C294.965 525.402 294.848 525.925 294.848 526.541C294.848 527.166 294.96 527.693 295.184 528.123C295.418 528.552 295.726 528.874 296.108 529.089C296.491 529.294 296.911 529.397 297.368 529.397ZM306.715 522.579C307.649 522.579 308.405 522.863 308.983 523.433C309.562 523.993 309.851 524.805 309.851 525.869V530.391H308.591V526.051C308.591 525.285 308.4 524.702 308.017 524.301C307.635 523.89 307.112 523.685 306.449 523.685C305.777 523.685 305.241 523.895 304.839 524.315C304.447 524.735 304.251 525.346 304.251 526.149V530.391H302.977V522.719H304.251V523.811C304.503 523.419 304.844 523.115 305.273 522.901C305.712 522.686 306.193 522.579 306.715 522.579ZM312.128 520.633H313.542L312.198 523.811H311.302L312.128 520.633ZM316.549 523.769V528.291C316.549 528.664 316.628 528.93 316.787 529.089C316.946 529.238 317.221 529.313 317.613 529.313H318.551V530.391H317.403C316.694 530.391 316.162 530.227 315.807 529.901C315.452 529.574 315.275 529.037 315.275 528.291V523.769H314.281V522.719H315.275V520.787H316.549V522.719H318.551V523.769H316.549ZM326.543 530.517C325.955 530.517 325.428 530.419 324.961 530.223C324.494 530.017 324.126 529.737 323.855 529.383C323.584 529.019 323.435 528.603 323.407 528.137H324.723C324.76 528.519 324.938 528.832 325.255 529.075C325.582 529.317 326.006 529.439 326.529 529.439C327.014 529.439 327.397 529.331 327.677 529.117C327.957 528.902 328.097 528.631 328.097 528.305C328.097 527.969 327.948 527.721 327.649 527.563C327.35 527.395 326.888 527.231 326.263 527.073C325.694 526.923 325.227 526.774 324.863 526.625C324.508 526.466 324.2 526.237 323.939 525.939C323.687 525.631 323.561 525.229 323.561 524.735C323.561 524.343 323.678 523.983 323.911 523.657C324.144 523.33 324.476 523.073 324.905 522.887C325.334 522.691 325.824 522.593 326.375 522.593C327.224 522.593 327.91 522.807 328.433 523.237C328.956 523.666 329.236 524.254 329.273 525.001H327.999C327.971 524.599 327.808 524.277 327.509 524.035C327.22 523.792 326.828 523.671 326.333 523.671C325.876 523.671 325.512 523.769 325.241 523.965C324.97 524.161 324.835 524.417 324.835 524.735C324.835 524.987 324.914 525.197 325.073 525.365C325.241 525.523 325.446 525.654 325.689 525.757C325.941 525.85 326.286 525.957 326.725 526.079C327.276 526.228 327.724 526.377 328.069 526.527C328.414 526.667 328.708 526.881 328.951 527.171C329.203 527.46 329.334 527.838 329.343 528.305C329.343 528.725 329.226 529.103 328.993 529.439C328.76 529.775 328.428 530.041 327.999 530.237C327.579 530.423 327.094 530.517 326.543 530.517ZM334.949 522.579C335.528 522.579 336.051 522.705 336.517 522.957C336.984 523.199 337.348 523.568 337.609 524.063C337.88 524.557 338.015 525.159 338.015 525.869V530.391H336.755V526.051C336.755 525.285 336.564 524.702 336.181 524.301C335.799 523.89 335.276 523.685 334.613 523.685C333.941 523.685 333.405 523.895 333.003 524.315C332.611 524.735 332.415 525.346 332.415 526.149V530.391H331.141V520.031H332.415V523.811C332.667 523.419 333.013 523.115 333.451 522.901C333.899 522.686 334.399 522.579 334.949 522.579ZM343.443 530.517C342.724 530.517 342.071 530.353 341.483 530.027C340.904 529.7 340.447 529.238 340.111 528.641C339.784 528.034 339.621 527.334 339.621 526.541C339.621 525.757 339.789 525.066 340.125 524.469C340.47 523.862 340.937 523.4 341.525 523.083C342.113 522.756 342.771 522.593 343.499 522.593C344.227 522.593 344.885 522.756 345.473 523.083C346.061 523.4 346.523 523.857 346.859 524.455C347.204 525.052 347.377 525.747 347.377 526.541C347.377 527.334 347.199 528.034 346.845 528.641C346.499 529.238 346.028 529.7 345.431 530.027C344.833 530.353 344.171 530.517 343.443 530.517ZM343.443 529.397C343.9 529.397 344.329 529.289 344.731 529.075C345.132 528.86 345.454 528.538 345.697 528.109C345.949 527.679 346.075 527.157 346.075 526.541C346.075 525.925 345.953 525.402 345.711 524.973C345.468 524.543 345.151 524.226 344.759 524.021C344.367 523.806 343.942 523.699 343.485 523.699C343.018 523.699 342.589 523.806 342.197 524.021C341.814 524.226 341.506 524.543 341.273 524.973C341.039 525.402 340.923 525.925 340.923 526.541C340.923 527.166 341.035 527.693 341.259 528.123C341.492 528.552 341.8 528.874 342.183 529.089C342.565 529.294 342.985 529.397 343.443 529.397ZM359.272 522.719L356.878 530.391H355.562L353.714 524.301L351.866 530.391H350.55L348.142 522.719H349.444L351.208 529.159L353.112 522.719H354.414L356.276 529.173L358.012 522.719H359.272ZM373.494 522.579C374.092 522.579 374.624 522.705 375.09 522.957C375.557 523.199 375.926 523.568 376.196 524.063C376.467 524.557 376.602 525.159 376.602 525.869V530.391H375.342V526.051C375.342 525.285 375.151 524.702 374.768 524.301C374.395 523.89 373.886 523.685 373.242 523.685C372.58 523.685 372.052 523.899 371.66 524.329C371.268 524.749 371.072 525.36 371.072 526.163V530.391H369.812V526.051C369.812 525.285 369.621 524.702 369.238 524.301C368.865 523.89 368.356 523.685 367.712 523.685C367.05 523.685 366.522 523.899 366.13 524.329C365.738 524.749 365.542 525.36 365.542 526.163V530.391H364.268V522.719H365.542V523.825C365.794 523.423 366.13 523.115 366.55 522.901C366.98 522.686 367.451 522.579 367.964 522.579C368.608 522.579 369.178 522.723 369.672 523.013C370.167 523.302 370.536 523.727 370.778 524.287C370.993 523.745 371.348 523.325 371.842 523.027C372.337 522.728 372.888 522.579 373.494 522.579ZM385.692 526.261C385.692 526.503 385.678 526.76 385.65 527.031H379.518C379.565 527.787 379.822 528.379 380.288 528.809C380.764 529.229 381.338 529.439 382.01 529.439C382.561 529.439 383.018 529.313 383.382 529.061C383.756 528.799 384.017 528.454 384.166 528.025H385.538C385.333 528.762 384.922 529.364 384.306 529.831C383.69 530.288 382.925 530.517 382.01 530.517C381.282 530.517 380.629 530.353 380.05 530.027C379.481 529.7 379.033 529.238 378.706 528.641C378.38 528.034 378.216 527.334 378.216 526.541C378.216 525.747 378.375 525.052 378.692 524.455C379.01 523.857 379.453 523.4 380.022 523.083C380.601 522.756 381.264 522.593 382.01 522.593C382.738 522.593 383.382 522.751 383.942 523.069C384.502 523.386 384.932 523.825 385.23 524.385C385.538 524.935 385.692 525.561 385.692 526.261ZM384.376 525.995C384.376 525.509 384.269 525.094 384.054 524.749C383.84 524.394 383.546 524.128 383.172 523.951C382.808 523.764 382.402 523.671 381.954 523.671C381.31 523.671 380.76 523.876 380.302 524.287C379.854 524.697 379.598 525.267 379.532 525.995H384.376ZM392.66 523.769V528.291C392.66 528.664 392.74 528.93 392.898 529.089C393.057 529.238 393.332 529.313 393.724 529.313H394.662V530.391H393.514C392.805 530.391 392.273 530.227 391.918 529.901C391.564 529.574 391.386 529.037 391.386 528.291V523.769H390.392V522.719H391.386V520.787H392.66V522.719H394.662V523.769H392.66ZM400.014 522.579C400.593 522.579 401.115 522.705 401.582 522.957C402.049 523.199 402.413 523.568 402.674 524.063C402.945 524.557 403.08 525.159 403.08 525.869V530.391H401.82V526.051C401.82 525.285 401.629 524.702 401.246 524.301C400.863 523.89 400.341 523.685 399.678 523.685C399.006 523.685 398.469 523.895 398.068 524.315C397.676 524.735 397.48 525.346 397.48 526.149V530.391H396.206V520.031H397.48V523.811C397.732 523.419 398.077 523.115 398.516 522.901C398.964 522.686 399.463 522.579 400.014 522.579ZM405.819 521.473C405.576 521.473 405.371 521.389 405.203 521.221C405.035 521.053 404.951 520.847 404.951 520.605C404.951 520.362 405.035 520.157 405.203 519.989C405.371 519.821 405.576 519.737 405.819 519.737C406.052 519.737 406.248 519.821 406.407 519.989C406.575 520.157 406.659 520.362 406.659 520.605C406.659 520.847 406.575 521.053 406.407 521.221C406.248 521.389 406.052 521.473 405.819 521.473ZM406.435 522.719V530.391H405.161V522.719H406.435ZM411.322 530.517C410.734 530.517 410.207 530.419 409.74 530.223C409.274 530.017 408.905 529.737 408.634 529.383C408.364 529.019 408.214 528.603 408.186 528.137H409.502C409.54 528.519 409.717 528.832 410.034 529.075C410.361 529.317 410.786 529.439 411.308 529.439C411.794 529.439 412.176 529.331 412.456 529.117C412.736 528.902 412.876 528.631 412.876 528.305C412.876 527.969 412.727 527.721 412.428 527.563C412.13 527.395 411.668 527.231 411.042 527.073C410.473 526.923 410.006 526.774 409.642 526.625C409.288 526.466 408.98 526.237 408.718 525.939C408.466 525.631 408.34 525.229 408.34 524.735C408.34 524.343 408.457 523.983 408.69 523.657C408.924 523.33 409.255 523.073 409.684 522.887C410.114 522.691 410.604 522.593 411.154 522.593C412.004 522.593 412.69 522.807 413.212 523.237C413.735 523.666 414.015 524.254 414.052 525.001H412.778C412.75 524.599 412.587 524.277 412.288 524.035C411.999 523.792 411.607 523.671 411.112 523.671C410.655 523.671 410.291 523.769 410.02 523.965C409.75 524.161 409.614 524.417 409.614 524.735C409.614 524.987 409.694 525.197 409.852 525.365C410.02 525.523 410.226 525.654 410.468 525.757C410.72 525.85 411.066 525.957 411.504 526.079C412.055 526.228 412.503 526.377 412.848 526.527C413.194 526.667 413.488 526.881 413.73 527.171C413.982 527.46 414.113 527.838 414.122 528.305C414.122 528.725 414.006 529.103 413.772 529.439C413.539 529.775 413.208 530.041 412.778 530.237C412.358 530.423 411.873 530.517 411.322 530.517ZM428.879 522.579C429.477 522.579 430.009 522.705 430.475 522.957C430.942 523.199 431.311 523.568 431.581 524.063C431.852 524.557 431.987 525.159 431.987 525.869V530.391H430.727V526.051C430.727 525.285 430.536 524.702 430.153 524.301C429.78 523.89 429.271 523.685 428.627 523.685C427.965 523.685 427.437 523.899 427.045 524.329C426.653 524.749 426.457 525.36 426.457 526.163V530.391H425.197V526.051C425.197 525.285 425.006 524.702 424.623 524.301C424.25 523.89 423.741 523.685 423.097 523.685C422.435 523.685 421.907 523.899 421.515 524.329C421.123 524.749 420.927 525.36 420.927 526.163V530.391H419.653V522.719H420.927V523.825C421.179 523.423 421.515 523.115 421.935 522.901C422.365 522.686 422.836 522.579 423.349 522.579C423.993 522.579 424.563 522.723 425.057 523.013C425.552 523.302 425.921 523.727 426.163 524.287C426.378 523.745 426.733 523.325 427.227 523.027C427.722 522.728 428.273 522.579 428.879 522.579ZM441.077 526.261C441.077 526.503 441.063 526.76 441.035 527.031H434.903C434.95 527.787 435.206 528.379 435.673 528.809C436.149 529.229 436.723 529.439 437.395 529.439C437.946 529.439 438.403 529.313 438.767 529.061C439.14 528.799 439.402 528.454 439.551 528.025H440.923C440.718 528.762 440.307 529.364 439.691 529.831C439.075 530.288 438.31 530.517 437.395 530.517C436.667 530.517 436.014 530.353 435.435 530.027C434.866 529.7 434.418 529.238 434.091 528.641C433.764 528.034 433.601 527.334 433.601 526.541C433.601 525.747 433.76 525.052 434.077 524.455C434.394 523.857 434.838 523.4 435.407 523.083C435.986 522.756 436.648 522.593 437.395 522.593C438.123 522.593 438.767 522.751 439.327 523.069C439.887 523.386 440.316 523.825 440.615 524.385C440.923 524.935 441.077 525.561 441.077 526.261ZM439.761 525.995C439.761 525.509 439.654 525.094 439.439 524.749C439.224 524.394 438.93 524.128 438.557 523.951C438.193 523.764 437.787 523.671 437.339 523.671C436.695 523.671 436.144 523.876 435.687 524.287C435.239 524.697 434.982 525.267 434.917 525.995H439.761ZM445.475 530.517C444.887 530.517 444.359 530.419 443.893 530.223C443.426 530.017 443.057 529.737 442.787 529.383C442.516 529.019 442.367 528.603 442.339 528.137H443.655C443.692 528.519 443.869 528.832 444.187 529.075C444.513 529.317 444.938 529.439 445.461 529.439C445.946 529.439 446.329 529.331 446.609 529.117C446.889 528.902 447.029 528.631 447.029 528.305C447.029 527.969 446.879 527.721 446.581 527.563C446.282 527.395 445.82 527.231 445.195 527.073C444.625 526.923 444.159 526.774 443.795 526.625C443.44 526.466 443.132 526.237 442.871 525.939C442.619 525.631 442.493 525.229 442.493 524.735C442.493 524.343 442.609 523.983 442.843 523.657C443.076 523.33 443.407 523.073 443.837 522.887C444.266 522.691 444.756 522.593 445.307 522.593C446.156 522.593 446.842 522.807 447.365 523.237C447.887 523.666 448.167 524.254 448.205 525.001H446.931C446.903 524.599 446.739 524.277 446.441 524.035C446.151 523.792 445.759 523.671 445.265 523.671C444.807 523.671 444.443 523.769 444.173 523.965C443.902 524.161 443.767 524.417 443.767 524.735C443.767 524.987 443.846 525.197 444.005 525.365C444.173 525.523 444.378 525.654 444.621 525.757C444.873 525.85 445.218 525.957 445.657 526.079C446.207 526.228 446.655 526.377 447.001 526.527C447.346 526.667 447.64 526.881 447.883 527.171C448.135 527.46 448.265 527.838 448.275 528.305C448.275 528.725 448.158 529.103 447.925 529.439C447.691 529.775 447.36 530.041 446.931 530.237C446.511 530.423 446.025 530.517 445.475 530.517ZM452.789 530.517C452.201 530.517 451.674 530.419 451.207 530.223C450.74 530.017 450.372 529.737 450.101 529.383C449.83 529.019 449.681 528.603 449.653 528.137H450.969C451.006 528.519 451.184 528.832 451.501 529.075C451.828 529.317 452.252 529.439 452.775 529.439C453.26 529.439 453.643 529.331 453.923 529.117C454.203 528.902 454.343 528.631 454.343 528.305C454.343 527.969 454.194 527.721 453.895 527.563C453.596 527.395 453.134 527.231 452.509 527.073C451.94 526.923 451.473 526.774 451.109 526.625C450.754 526.466 450.446 526.237 450.185 525.939C449.933 525.631 449.807 525.229 449.807 524.735C449.807 524.343 449.924 523.983 450.157 523.657C450.39 523.33 450.722 523.073 451.151 522.887C451.58 522.691 452.07 522.593 452.621 522.593C453.47 522.593 454.156 522.807 454.679 523.237C455.202 523.666 455.482 524.254 455.519 525.001H454.245C454.217 524.599 454.054 524.277 453.755 524.035C453.466 523.792 453.074 523.671 452.579 523.671C452.122 523.671 451.758 523.769 451.487 523.965C451.216 524.161 451.081 524.417 451.081 524.735C451.081 524.987 451.16 525.197 451.319 525.365C451.487 525.523 451.692 525.654 451.935 525.757C452.187 525.85 452.532 525.957 452.971 526.079C453.522 526.228 453.97 526.377 454.315 526.527C454.66 526.667 454.954 526.881 455.197 527.171C455.449 527.46 455.58 527.838 455.589 528.305C455.589 528.725 455.472 529.103 455.239 529.439C455.006 529.775 454.674 530.041 454.245 530.237C453.825 530.423 453.34 530.517 452.789 530.517ZM456.912 526.527C456.912 525.743 457.07 525.057 457.388 524.469C457.705 523.871 458.139 523.409 458.69 523.083C459.25 522.756 459.87 522.593 460.552 522.593C461.224 522.593 461.807 522.737 462.302 523.027C462.796 523.316 463.165 523.68 463.408 524.119V522.719H464.696V530.391H463.408V528.963C463.156 529.411 462.778 529.784 462.274 530.083C461.779 530.372 461.2 530.517 460.538 530.517C459.856 530.517 459.24 530.349 458.69 530.013C458.139 529.677 457.705 529.205 457.388 528.599C457.07 527.992 456.912 527.301 456.912 526.527ZM463.408 526.541C463.408 525.962 463.291 525.458 463.058 525.029C462.824 524.599 462.507 524.273 462.106 524.049C461.714 523.815 461.28 523.699 460.804 523.699C460.328 523.699 459.894 523.811 459.502 524.035C459.11 524.259 458.797 524.585 458.564 525.015C458.33 525.444 458.214 525.948 458.214 526.527C458.214 527.115 458.33 527.628 458.564 528.067C458.797 528.496 459.11 528.827 459.502 529.061C459.894 529.285 460.328 529.397 460.804 529.397C461.28 529.397 461.714 529.285 462.106 529.061C462.507 528.827 462.824 528.496 463.058 528.067C463.291 527.628 463.408 527.119 463.408 526.541ZM470.013 522.593C470.675 522.593 471.254 522.737 471.749 523.027C472.253 523.316 472.626 523.68 472.869 524.119V522.719H474.157V530.559C474.157 531.259 474.007 531.879 473.709 532.421C473.41 532.971 472.981 533.401 472.421 533.709C471.87 534.017 471.226 534.171 470.489 534.171C469.481 534.171 468.641 533.933 467.969 533.457C467.297 532.981 466.9 532.332 466.779 531.511H468.039C468.179 531.977 468.468 532.351 468.907 532.631C469.345 532.92 469.873 533.065 470.489 533.065C471.189 533.065 471.758 532.845 472.197 532.407C472.645 531.968 472.869 531.352 472.869 530.559V528.949C472.617 529.397 472.243 529.77 471.749 530.069C471.254 530.367 470.675 530.517 470.013 530.517C469.331 530.517 468.711 530.349 468.151 530.013C467.6 529.677 467.166 529.205 466.849 528.599C466.531 527.992 466.373 527.301 466.373 526.527C466.373 525.743 466.531 525.057 466.849 524.469C467.166 523.871 467.6 523.409 468.151 523.083C468.711 522.756 469.331 522.593 470.013 522.593ZM472.869 526.541C472.869 525.962 472.752 525.458 472.519 525.029C472.285 524.599 471.968 524.273 471.567 524.049C471.175 523.815 470.741 523.699 470.265 523.699C469.789 523.699 469.355 523.811 468.963 524.035C468.571 524.259 468.258 524.585 468.025 525.015C467.791 525.444 467.675 525.948 467.675 526.527C467.675 527.115 467.791 527.628 468.025 528.067C468.258 528.496 468.571 528.827 468.963 529.061C469.355 529.285 469.789 529.397 470.265 529.397C470.741 529.397 471.175 529.285 471.567 529.061C471.968 528.827 472.285 528.496 472.519 528.067C472.752 527.628 472.869 527.119 472.869 526.541ZM483.309 526.261C483.309 526.503 483.295 526.76 483.267 527.031H477.135C477.182 527.787 477.439 528.379 477.905 528.809C478.381 529.229 478.955 529.439 479.627 529.439C480.178 529.439 480.635 529.313 480.999 529.061C481.373 528.799 481.634 528.454 481.783 528.025H483.155C482.95 528.762 482.539 529.364 481.923 529.831C481.307 530.288 480.542 530.517 479.627 530.517C478.899 530.517 478.246 530.353 477.667 530.027C477.098 529.7 476.65 529.238 476.323 528.641C475.997 528.034 475.833 527.334 475.833 526.541C475.833 525.747 475.992 525.052 476.309 524.455C476.627 523.857 477.07 523.4 477.639 523.083C478.218 522.756 478.881 522.593 479.627 522.593C480.355 522.593 480.999 522.751 481.559 523.069C482.119 523.386 482.549 523.825 482.847 524.385C483.155 524.935 483.309 525.561 483.309 526.261ZM481.993 525.995C481.993 525.509 481.886 525.094 481.671 524.749C481.457 524.394 481.163 524.128 480.789 523.951C480.425 523.764 480.019 523.671 479.571 523.671C478.927 523.671 478.377 523.876 477.919 524.287C477.471 524.697 477.215 525.267 477.149 525.995H481.993ZM488.248 526.527C488.248 525.743 488.406 525.057 488.724 524.469C489.041 523.871 489.475 523.409 490.026 523.083C490.586 522.756 491.206 522.593 491.888 522.593C492.56 522.593 493.143 522.737 493.638 523.027C494.132 523.316 494.501 523.68 494.744 524.119V522.719H496.032V530.391H494.744V528.963C494.492 529.411 494.114 529.784 493.61 530.083C493.115 530.372 492.536 530.517 491.874 530.517C491.192 530.517 490.576 530.349 490.026 530.013C489.475 529.677 489.041 529.205 488.724 528.599C488.406 527.992 488.248 527.301 488.248 526.527ZM494.744 526.541C494.744 525.962 494.627 525.458 494.394 525.029C494.16 524.599 493.843 524.273 493.442 524.049C493.05 523.815 492.616 523.699 492.14 523.699C491.664 523.699 491.23 523.811 490.838 524.035C490.446 524.259 490.133 524.585 489.9 525.015C489.666 525.444 489.55 525.948 489.55 526.527C489.55 527.115 489.666 527.628 489.9 528.067C490.133 528.496 490.446 528.827 490.838 529.061C491.23 529.285 491.664 529.397 492.14 529.397C492.616 529.397 493.05 529.285 493.442 529.061C493.843 528.827 494.16 528.496 494.394 528.067C494.627 527.628 494.744 527.119 494.744 526.541ZM501.348 522.593C502.011 522.593 502.59 522.737 503.084 523.027C503.588 523.316 503.962 523.68 504.204 524.119V522.719H505.492V530.559C505.492 531.259 505.343 531.879 505.044 532.421C504.746 532.971 504.316 533.401 503.756 533.709C503.206 534.017 502.562 534.171 501.824 534.171C500.816 534.171 499.976 533.933 499.304 533.457C498.632 532.981 498.236 532.332 498.114 531.511H499.374C499.514 531.977 499.804 532.351 500.242 532.631C500.681 532.92 501.208 533.065 501.824 533.065C502.524 533.065 503.094 532.845 503.532 532.407C503.98 531.968 504.204 531.352 504.204 530.559V528.949C503.952 529.397 503.579 529.77 503.084 530.069C502.59 530.367 502.011 530.517 501.348 530.517C500.667 530.517 500.046 530.349 499.486 530.013C498.936 529.677 498.502 529.205 498.184 528.599C497.867 527.992 497.708 527.301 497.708 526.527C497.708 525.743 497.867 525.057 498.184 524.469C498.502 523.871 498.936 523.409 499.486 523.083C500.046 522.756 500.667 522.593 501.348 522.593ZM504.204 526.541C504.204 525.962 504.088 525.458 503.854 525.029C503.621 524.599 503.304 524.273 502.902 524.049C502.51 523.815 502.076 523.699 501.6 523.699C501.124 523.699 500.69 523.811 500.298 524.035C499.906 524.259 499.594 524.585 499.36 525.015C499.127 525.444 499.01 525.948 499.01 526.527C499.01 527.115 499.127 527.628 499.36 528.067C499.594 528.496 499.906 528.827 500.298 529.061C500.69 529.285 501.124 529.397 501.6 529.397C502.076 529.397 502.51 529.285 502.902 529.061C503.304 528.827 503.621 528.496 503.854 528.067C504.088 527.628 504.204 527.119 504.204 526.541ZM507.169 526.527C507.169 525.743 507.328 525.057 507.645 524.469C507.963 523.871 508.397 523.409 508.947 523.083C509.507 522.756 510.128 522.593 510.809 522.593C511.481 522.593 512.065 522.737 512.559 523.027C513.054 523.316 513.423 523.68 513.665 524.119V522.719H514.953V530.391H513.665V528.963C513.413 529.411 513.035 529.784 512.531 530.083C512.037 530.372 511.458 530.517 510.795 530.517C510.114 530.517 509.498 530.349 508.947 530.013C508.397 529.677 507.963 529.205 507.645 528.599C507.328 527.992 507.169 527.301 507.169 526.527ZM513.665 526.541C513.665 525.962 513.549 525.458 513.315 525.029C513.082 524.599 512.765 524.273 512.363 524.049C511.971 523.815 511.537 523.699 511.061 523.699C510.585 523.699 510.151 523.811 509.759 524.035C509.367 524.259 509.055 524.585 508.821 525.015C508.588 525.444 508.471 525.948 508.471 526.527C508.471 527.115 508.588 527.628 508.821 528.067C509.055 528.496 509.367 528.827 509.759 529.061C510.151 529.285 510.585 529.397 511.061 529.397C511.537 529.397 511.971 529.285 512.363 529.061C512.765 528.827 513.082 528.496 513.315 528.067C513.549 527.628 513.665 527.119 513.665 526.541ZM517.764 521.473C517.522 521.473 517.316 521.389 517.148 521.221C516.98 521.053 516.896 520.847 516.896 520.605C516.896 520.362 516.98 520.157 517.148 519.989C517.316 519.821 517.522 519.737 517.764 519.737C517.998 519.737 518.194 519.821 518.352 519.989C518.52 520.157 518.604 520.362 518.604 520.605C518.604 520.847 518.52 521.053 518.352 521.221C518.194 521.389 517.998 521.473 517.764 521.473ZM518.38 522.719V530.391H517.106V522.719H518.38ZM524.29 522.579C525.223 522.579 525.979 522.863 526.558 523.433C527.136 523.993 527.426 524.805 527.426 525.869V530.391H526.166V526.051C526.166 525.285 525.974 524.702 525.592 524.301C525.209 523.89 524.686 523.685 524.024 523.685C523.352 523.685 522.815 523.895 522.414 524.315C522.022 524.735 521.826 525.346 521.826 526.149V530.391H520.552V522.719H521.826V523.811C522.078 523.419 522.418 523.115 522.848 522.901C523.286 522.686 523.767 522.579 524.29 522.579ZM529.913 530.475C529.67 530.475 529.465 530.391 529.297 530.223C529.129 530.055 529.045 529.849 529.045 529.607C529.045 529.364 529.129 529.159 529.297 528.991C529.465 528.823 529.67 528.739 529.913 528.739C530.146 528.739 530.342 528.823 530.501 528.991C530.669 529.159 530.753 529.364 530.753 529.607C530.753 529.849 530.669 530.055 530.501 530.223C530.342 530.391 530.146 530.475 529.913 530.475Z" fill="#172537"/>
</g>
<defs>
<filter id="filter0_d_1470_32122" x="0" y="0" width="811" height="587" filterUnits="userSpaceOnUse" color-interpolation-filters="sRGB">
<feFlood flood-opacity="0" result="BackgroundImageFix"/>
<feColorMatrix in="SourceAlpha" type="matrix" values="0 0 0 0 0 0 0 0 0 0 0 0 0 0 0 0 0 0 127 0" result="hardAlpha"/>
<feMorphology radius="15" operator="erode" in="SourceAlpha" result="effect1_dropShadow_1470_32122"/>
<feOffset dy="15"/>
<feGaussianBlur stdDeviation="7.5"/>
<feComposite in2="hardAlpha" operator="out"/>
<feColorMatrix type="matrix" values="0 0 0 0 0.188235 0 0 0 0 0.160784 0 0 0 0 0.129412 0 0 0 0.25 0"/>
<feBlend mode="normal" in2="BackgroundImageFix" result="effect1_dropShadow_1470_32122"/>
<feBlend mode="normal" in="SourceGraphic" in2="effect1_dropShadow_1470_32122" result="shape"/>
</filter>
</defs>
</svg>
