<svg width="32" height="32" viewBox="0 0 32 32" fill="none" xmlns="http://www.w3.org/2000/svg">
<rect width="32" height="32" rx="6" fill="#FFDFCF"/>
<mask id="mask0_310_9226" style="mask-type:alpha" maskUnits="userSpaceOnUse" x="8" y="8" width="16" height="16">
<rect x="8" y="8" width="16" height="16" fill="#D9D9D9"/>
</mask>
<g mask="url(#mask0_310_9226)">
<path d="M13.334 10.6667C13.1451 10.6667 12.9867 10.6027 12.8587 10.4747C12.7311 10.3471 12.6673 10.1889 12.6673 10C12.6673 9.81111 12.7311 9.65267 12.8587 9.52467C12.9867 9.39711 13.1451 9.33334 13.334 9.33334H18.6673C18.8562 9.33334 19.0144 9.39711 19.142 9.52467C19.27 9.65267 19.334 9.81111 19.334 10C19.334 10.1889 19.27 10.3471 19.142 10.4747C19.0144 10.6027 18.8562 10.6667 18.6673 10.6667H13.334ZM11.334 12.6667C11.1451 12.6667 10.9867 12.6029 10.8587 12.4753C10.7311 12.3473 10.6673 12.1889 10.6673 12C10.6673 11.8111 10.7311 11.6527 10.8587 11.5247C10.9867 11.3971 11.1451 11.3333 11.334 11.3333H20.6673C20.8562 11.3333 21.0144 11.3971 21.142 11.5247C21.27 11.6527 21.334 11.8111 21.334 12C21.334 12.1889 21.27 12.3473 21.142 12.4753C21.0144 12.6029 20.8562 12.6667 20.6673 12.6667H11.334ZM10.6673 22.6667C10.3007 22.6667 9.98687 22.5362 9.72598 22.2753C9.46465 22.014 9.33398 21.7 9.33398 21.3333V14.6667C9.33398 14.3 9.46465 13.986 9.72598 13.7247C9.98687 13.4638 10.3007 13.3333 10.6673 13.3333H21.334C21.7007 13.3333 22.0147 13.4638 22.276 13.7247C22.5369 13.986 22.6673 14.3 22.6673 14.6667V21.3333C22.6673 21.7 22.5369 22.014 22.276 22.2753C22.0147 22.5362 21.7007 22.6667 21.334 22.6667H10.6673ZM10.6673 21.3333H21.334V14.6667H10.6673V21.3333ZM15.7007 19.9833L17.834 18.55C18.034 18.4167 18.134 18.2333 18.134 18C18.134 17.7667 18.034 17.5833 17.834 17.45L15.7007 16.0167C15.4784 15.8611 15.2507 15.85 15.0173 15.9833C14.784 16.1167 14.6673 16.3167 14.6673 16.5833V19.4167C14.6673 19.6833 14.784 19.8833 15.0173 20.0167C15.2507 20.15 15.4784 20.1389 15.7007 19.9833Z" fill="#172537"/>
</g>
</svg>
