<svg width="32" height="32" viewBox="0 0 32 32" fill="none" xmlns="http://www.w3.org/2000/svg">
<rect width="32" height="32" rx="6" fill="#FFDFCF"/>
<path d="M20.9092 13.7275C21.5091 13.7277 22 14.2185 22 14.8184C21.9998 15.6089 21.2144 16.0509 20.6309 15.8711L18.6895 17.8066C18.8749 18.3956 18.4273 19.1813 17.6367 19.1816C16.8404 19.1816 16.3985 18.3903 16.584 17.8066L15.1924 16.416C15.0288 16.465 14.7885 16.4651 14.625 16.416L12.1436 18.9033C12.3236 19.4869 11.8817 20.2725 11.0908 20.2725C10.491 20.2724 10.0001 19.7815 10 19.1816C10 18.3908 10.7855 17.9489 11.3691 18.1289L13.8564 15.6475C13.671 15.0584 14.1183 14.2725 14.9092 14.2725C15.7055 14.2725 16.1474 15.0639 15.9619 15.6475L17.3525 17.0381C17.5162 16.989 17.7563 16.989 17.9199 17.0381L19.8564 15.0957C19.6767 14.5121 20.1185 13.7275 20.9092 13.7275ZM11.6367 13.7275L12.7275 14L11.6367 14.2725L11.3633 15.3633L11.0908 14.2725L10 14L11.0908 13.7275L11.3633 12.6367L11.6367 13.7275ZM18.1494 12.1289L19.2725 12.6367L18.1494 13.1436L17.6367 14.2725L17.1348 13.1436L16 12.6367L17.1348 12.1289L17.6367 11L18.1494 12.1289Z" fill="#172537"/>
</svg>
