<svg width="32" height="32" viewBox="0 0 32 32" fill="none" xmlns="http://www.w3.org/2000/svg">
<rect width="32" height="32" rx="6" fill="#C3EBD8"/>
<mask id="mask0_310_9220" style="mask-type:alpha" maskUnits="userSpaceOnUse" x="8" y="8" width="16" height="16">
<rect x="8" y="8" width="16" height="16" fill="#D9D9D9"/>
</mask>
<g mask="url(#mask0_310_9220)">
<path d="M15.3673 18.3333L18.134 16.5667C18.3451 16.4444 18.4507 16.2556 18.4507 16C18.4507 15.7444 18.3451 15.5556 18.134 15.4333L15.3673 13.6667C15.1451 13.5222 14.9173 13.5111 14.684 13.6333C14.4507 13.7556 14.334 13.95 14.334 14.2167V17.7833C14.334 18.05 14.4507 18.2444 14.684 18.3667C14.9173 18.4889 15.1451 18.4778 15.3673 18.3333ZM10.6673 21.3333C10.3007 21.3333 9.98687 21.2029 9.72598 20.942C9.46465 20.6807 9.33398 20.3667 9.33398 20V12C9.33398 11.6333 9.46465 11.3196 9.72598 11.0587C9.98687 10.7973 10.3007 10.6667 10.6673 10.6667H21.334C21.7007 10.6667 22.0147 10.7973 22.276 11.0587C22.5369 11.3196 22.6673 11.6333 22.6673 12V20C22.6673 20.3667 22.5369 20.6807 22.276 20.942C22.0147 21.2029 21.7007 21.3333 21.334 21.3333H10.6673ZM10.6673 20H21.334V12H10.6673V20Z" fill="#172537"/>
</g>
</svg>
