<svg width="428" height="327" viewBox="0 0 428 327" fill="none" xmlns="http://www.w3.org/2000/svg">
<g filter="url(#filter0_d_1392_32048)">
<rect x="8" width="411.891" height="306.585" rx="8" fill="white"/>
<rect x="8.5" y="0.5" width="410.891" height="305.585" rx="7.5" stroke="#FC6839"/>
</g>
<path d="M62.5553 32.6716C63.4673 32.6716 64.2553 32.8436 64.9193 33.1876C65.5913 33.5236 66.1033 34.0076 66.4553 34.6396C66.8153 35.2716 66.9953 36.0156 66.9953 36.8716C66.9953 37.7276 66.8153 38.4716 66.4553 39.1036C66.1033 39.7276 65.5913 40.2076 64.9193 40.5436C64.2553 40.8716 63.4673 41.0356 62.5553 41.0356H59.9513V32.6716H62.5553ZM62.5553 40.1356C63.6353 40.1356 64.4593 39.8516 65.0273 39.2836C65.5953 38.7076 65.8793 37.9036 65.8793 36.8716C65.8793 35.8316 65.5913 35.0196 65.0153 34.4356C64.4473 33.8516 63.6273 33.5596 62.5553 33.5596H61.0433V40.1356H62.5553ZM68.9997 33.3916C68.7917 33.3916 68.6157 33.3196 68.4717 33.1756C68.3277 33.0316 68.2557 32.8556 68.2557 32.6476C68.2557 32.4396 68.3277 32.2636 68.4717 32.1196C68.6157 31.9756 68.7917 31.9036 68.9997 31.9036C69.1997 31.9036 69.3677 31.9756 69.5037 32.1196C69.6477 32.2636 69.7197 32.4396 69.7197 32.6476C69.7197 32.8556 69.6477 33.0316 69.5037 33.1756C69.3677 33.3196 69.1997 33.3916 68.9997 33.3916ZM69.5277 34.4596V41.0356H68.4357V34.4596H69.5277ZM73.7168 41.1436C73.2128 41.1436 72.7608 41.0596 72.3608 40.8916C71.9608 40.7156 71.6448 40.4756 71.4128 40.1716C71.1808 39.8596 71.0528 39.5036 71.0288 39.1036H72.1568C72.1888 39.4316 72.3408 39.6996 72.6128 39.9076C72.8928 40.1156 73.2568 40.2196 73.7048 40.2196C74.1208 40.2196 74.4488 40.1276 74.6888 39.9436C74.9288 39.7596 75.0488 39.5276 75.0488 39.2476C75.0488 38.9596 74.9208 38.7476 74.6648 38.6116C74.4088 38.4676 74.0128 38.3276 73.4768 38.1916C72.9888 38.0636 72.5888 37.9356 72.2768 37.8076C71.9728 37.6716 71.7088 37.4756 71.4848 37.2196C71.2688 36.9556 71.1608 36.6116 71.1608 36.1876C71.1608 35.8516 71.2608 35.5436 71.4608 35.2636C71.6608 34.9836 71.9448 34.7636 72.3128 34.6036C72.6808 34.4356 73.1008 34.3516 73.5728 34.3516C74.3008 34.3516 74.8888 34.5356 75.3368 34.9036C75.7848 35.2716 76.0248 35.7756 76.0568 36.4156H74.9648C74.9408 36.0716 74.8008 35.7956 74.5448 35.5876C74.2968 35.3796 73.9608 35.2756 73.5368 35.2756C73.1448 35.2756 72.8328 35.3596 72.6008 35.5276C72.3688 35.6956 72.2528 35.9156 72.2528 36.1876C72.2528 36.4036 72.3208 36.5836 72.4568 36.7276C72.6008 36.8636 72.7768 36.9756 72.9848 37.0636C73.2008 37.1436 73.4968 37.2356 73.8728 37.3396C74.3448 37.4676 74.7288 37.5956 75.0248 37.7236C75.3208 37.8436 75.5728 38.0276 75.7808 38.2756C75.9968 38.5236 76.1088 38.8476 76.1168 39.2476C76.1168 39.6076 76.0168 39.9316 75.8168 40.2196C75.6168 40.5076 75.3328 40.7356 74.9648 40.9036C74.6048 41.0636 74.1888 41.1436 73.7168 41.1436ZM77.2504 37.7356C77.2504 37.0556 77.3864 36.4636 77.6584 35.9596C77.9304 35.4476 78.3064 35.0516 78.7864 34.7716C79.2744 34.4916 79.8304 34.3516 80.4544 34.3516C81.2624 34.3516 81.9264 34.5476 82.4464 34.9396C82.9744 35.3316 83.3224 35.8756 83.4904 36.5716H82.3144C82.2024 36.1716 81.9824 35.8556 81.6544 35.6236C81.3344 35.3916 80.9344 35.2756 80.4544 35.2756C79.8304 35.2756 79.3264 35.4916 78.9424 35.9236C78.5584 36.3476 78.3664 36.9516 78.3664 37.7356C78.3664 38.5276 78.5584 39.1396 78.9424 39.5716C79.3264 40.0036 79.8304 40.2196 80.4544 40.2196C80.9344 40.2196 81.3344 40.1076 81.6544 39.8836C81.9744 39.6596 82.1944 39.3396 82.3144 38.9236H83.4904C83.3144 39.5956 82.9624 40.1356 82.4344 40.5436C81.9064 40.9436 81.2464 41.1436 80.4544 41.1436C79.8304 41.1436 79.2744 41.0036 78.7864 40.7236C78.3064 40.4436 77.9304 40.0476 77.6584 39.5356C77.3864 39.0236 77.2504 38.4236 77.2504 37.7356ZM87.8154 41.1436C87.1994 41.1436 86.6394 41.0036 86.1354 40.7236C85.6394 40.4436 85.2474 40.0476 84.9594 39.5356C84.6794 39.0156 84.5394 38.4156 84.5394 37.7356C84.5394 37.0636 84.6834 36.4716 84.9714 35.9596C85.2674 35.4396 85.6674 35.0436 86.1714 34.7716C86.6754 34.4916 87.2394 34.3516 87.8634 34.3516C88.4874 34.3516 89.0514 34.4916 89.5554 34.7716C90.0594 35.0436 90.4554 35.4356 90.7434 35.9476C91.0394 36.4596 91.1874 37.0556 91.1874 37.7356C91.1874 38.4156 91.0354 39.0156 90.7314 39.5356C90.4354 40.0476 90.0314 40.4436 89.5194 40.7236C89.0074 41.0036 88.4394 41.1436 87.8154 41.1436ZM87.8154 40.1836C88.2074 40.1836 88.5754 40.0916 88.9194 39.9076C89.2634 39.7236 89.5394 39.4476 89.7474 39.0796C89.9634 38.7116 90.0714 38.2636 90.0714 37.7356C90.0714 37.2076 89.9674 36.7596 89.7594 36.3916C89.5514 36.0236 89.2794 35.7516 88.9434 35.5756C88.6074 35.3916 88.2434 35.2996 87.8514 35.2996C87.4514 35.2996 87.0834 35.3916 86.7474 35.5756C86.4194 35.7516 86.1554 36.0236 85.9554 36.3916C85.7554 36.7596 85.6554 37.2076 85.6554 37.7356C85.6554 38.2716 85.7514 38.7236 85.9434 39.0916C86.1434 39.4596 86.4074 39.7356 86.7354 39.9196C87.0634 40.0956 87.4234 40.1836 87.8154 40.1836ZM95.0712 40.0276L97.1112 34.4596H98.2752L95.6952 41.0356H94.4232L91.8432 34.4596H93.0192L95.0712 40.0276ZM105.35 37.4956C105.35 37.7036 105.338 37.9236 105.314 38.1556H100.058C100.098 38.8036 100.318 39.3116 100.718 39.6796C101.126 40.0396 101.618 40.2196 102.194 40.2196C102.666 40.2196 103.058 40.1116 103.37 39.8956C103.69 39.6716 103.914 39.3756 104.042 39.0076H105.218C105.042 39.6396 104.69 40.1556 104.162 40.5556C103.634 40.9476 102.978 41.1436 102.194 41.1436C101.57 41.1436 101.01 41.0036 100.514 40.7236C100.026 40.4436 99.6418 40.0476 99.3618 39.5356C99.0818 39.0156 98.9418 38.4156 98.9418 37.7356C98.9418 37.0556 99.0778 36.4596 99.3498 35.9476C99.6218 35.4356 100.002 35.0436 100.49 34.7716C100.986 34.4916 101.554 34.3516 102.194 34.3516C102.818 34.3516 103.37 34.4876 103.85 34.7596C104.33 35.0316 104.698 35.4076 104.954 35.8876C105.218 36.3596 105.35 36.8956 105.35 37.4956ZM104.222 37.2676C104.222 36.8516 104.13 36.4956 103.946 36.1996C103.762 35.8956 103.51 35.6676 103.19 35.5156C102.878 35.3556 102.53 35.2756 102.146 35.2756C101.594 35.2756 101.122 35.4516 100.73 35.8036C100.346 36.1556 100.126 36.6436 100.07 37.2676H104.222ZM107.883 35.5276C108.075 35.1516 108.347 34.8596 108.699 34.6516C109.059 34.4436 109.495 34.3396 110.007 34.3396V35.4676H109.719C108.495 35.4676 107.883 36.1316 107.883 37.4596V41.0356H106.791V34.4596H107.883V35.5276ZM116.932 34.4596L112.972 44.1316H111.844L113.14 40.9636L110.488 34.4596H111.7L113.764 39.7876L115.804 34.4596H116.932ZM120.821 37.7236C120.821 37.0516 120.957 36.4636 121.229 35.9596C121.501 35.4476 121.873 35.0516 122.345 34.7716C122.825 34.4916 123.361 34.3516 123.953 34.3516C124.521 34.3516 125.017 34.4796 125.441 34.7356C125.873 34.9836 126.189 35.2916 126.389 35.6596V34.4596H127.493V44.1556H126.389V39.8236C126.181 40.1916 125.861 40.5036 125.429 40.7596C124.997 41.0156 124.493 41.1436 123.917 41.1436C123.341 41.1436 122.817 40.9996 122.345 40.7116C121.873 40.4236 121.501 40.0196 121.229 39.4996C120.957 38.9796 120.821 38.3876 120.821 37.7236ZM126.389 37.7356C126.389 37.2396 126.289 36.8076 126.089 36.4396C125.889 36.0716 125.617 35.7916 125.273 35.5996C124.937 35.3996 124.565 35.2996 124.157 35.2996C123.749 35.2996 123.377 35.3956 123.041 35.5876C122.705 35.7796 122.437 36.0596 122.237 36.4276C122.037 36.7956 121.937 37.2276 121.937 37.7236C121.937 38.2276 122.037 38.6676 122.237 39.0436C122.437 39.4116 122.705 39.6956 123.041 39.8956C123.377 40.0876 123.749 40.1836 124.157 40.1836C124.565 40.1836 124.937 40.0876 125.273 39.8956C125.617 39.6956 125.889 39.4116 126.089 39.0436C126.289 38.6676 126.389 38.2316 126.389 37.7356ZM135.17 34.4596V41.0356H134.078V40.0636C133.87 40.3996 133.578 40.6636 133.202 40.8556C132.834 41.0396 132.426 41.1316 131.978 41.1316C131.466 41.1316 131.006 41.0276 130.598 40.8196C130.19 40.6036 129.866 40.2836 129.626 39.8596C129.394 39.4356 129.278 38.9196 129.278 38.3116V34.4596H130.358V38.1676C130.358 38.8156 130.522 39.3156 130.85 39.6676C131.178 40.0116 131.626 40.1836 132.194 40.1836C132.778 40.1836 133.238 40.0036 133.574 39.6436C133.91 39.2836 134.078 38.7596 134.078 38.0716V34.4596H135.17ZM143.014 37.4956C143.014 37.7036 143.002 37.9236 142.978 38.1556H137.722C137.762 38.8036 137.982 39.3116 138.382 39.6796C138.79 40.0396 139.282 40.2196 139.858 40.2196C140.33 40.2196 140.722 40.1116 141.034 39.8956C141.354 39.6716 141.578 39.3756 141.706 39.0076H142.882C142.706 39.6396 142.354 40.1556 141.826 40.5556C141.298 40.9476 140.642 41.1436 139.858 41.1436C139.234 41.1436 138.674 41.0036 138.178 40.7236C137.69 40.4436 137.306 40.0476 137.026 39.5356C136.746 39.0156 136.606 38.4156 136.606 37.7356C136.606 37.0556 136.742 36.4596 137.014 35.9476C137.286 35.4356 137.666 35.0436 138.154 34.7716C138.65 34.4916 139.218 34.3516 139.858 34.3516C140.482 34.3516 141.034 34.4876 141.514 34.7596C141.994 35.0316 142.362 35.4076 142.618 35.8876C142.882 36.3596 143.014 36.8956 143.014 37.4956ZM141.886 37.2676C141.886 36.8516 141.794 36.4956 141.61 36.1996C141.426 35.8956 141.174 35.6676 140.854 35.5156C140.542 35.3556 140.194 35.2756 139.81 35.2756C139.258 35.2756 138.786 35.4516 138.394 35.8036C138.01 36.1556 137.79 36.6436 137.734 37.2676H141.886ZM146.783 41.1436C146.279 41.1436 145.827 41.0596 145.427 40.8916C145.027 40.7156 144.711 40.4756 144.479 40.1716C144.247 39.8596 144.119 39.5036 144.095 39.1036H145.223C145.255 39.4316 145.407 39.6996 145.679 39.9076C145.959 40.1156 146.323 40.2196 146.771 40.2196C147.187 40.2196 147.515 40.1276 147.755 39.9436C147.995 39.7596 148.115 39.5276 148.115 39.2476C148.115 38.9596 147.987 38.7476 147.731 38.6116C147.475 38.4676 147.079 38.3276 146.543 38.1916C146.055 38.0636 145.655 37.9356 145.343 37.8076C145.039 37.6716 144.775 37.4756 144.551 37.2196C144.335 36.9556 144.227 36.6116 144.227 36.1876C144.227 35.8516 144.327 35.5436 144.527 35.2636C144.727 34.9836 145.011 34.7636 145.379 34.6036C145.747 34.4356 146.167 34.3516 146.639 34.3516C147.367 34.3516 147.955 34.5356 148.403 34.9036C148.851 35.2716 149.091 35.7756 149.123 36.4156H148.031C148.007 36.0716 147.867 35.7956 147.611 35.5876C147.363 35.3796 147.027 35.2756 146.603 35.2756C146.211 35.2756 145.899 35.3596 145.667 35.5276C145.435 35.6956 145.319 35.9156 145.319 36.1876C145.319 36.4036 145.387 36.5836 145.523 36.7276C145.667 36.8636 145.843 36.9756 146.051 37.0636C146.267 37.1436 146.563 37.2356 146.939 37.3396C147.411 37.4676 147.795 37.5956 148.091 37.7236C148.387 37.8436 148.639 38.0276 148.847 38.2756C149.063 38.5236 149.175 38.8476 149.183 39.2476C149.183 39.6076 149.083 39.9316 148.883 40.2196C148.683 40.5076 148.399 40.7356 148.031 40.9036C147.671 41.0636 147.255 41.1436 146.783 41.1436ZM152.057 35.3596V39.2356C152.057 39.5556 152.125 39.7836 152.261 39.9196C152.397 40.0476 152.633 40.1116 152.969 40.1116H153.773V41.0356H152.789C152.181 41.0356 151.725 40.8956 151.421 40.6156C151.117 40.3356 150.965 39.8756 150.965 39.2356V35.3596H150.113V34.4596H150.965V32.8036H152.057V34.4596H153.773V35.3596H152.057ZM155.66 33.3916C155.452 33.3916 155.276 33.3196 155.132 33.1756C154.988 33.0316 154.916 32.8556 154.916 32.6476C154.916 32.4396 154.988 32.2636 155.132 32.1196C155.276 31.9756 155.452 31.9036 155.66 31.9036C155.86 31.9036 156.028 31.9756 156.164 32.1196C156.308 32.2636 156.38 32.4396 156.38 32.6476C156.38 32.8556 156.308 33.0316 156.164 33.1756C156.028 33.3196 155.86 33.3916 155.66 33.3916ZM156.188 34.4596V41.0356H155.096V34.4596H156.188ZM160.917 41.1436C160.301 41.1436 159.741 41.0036 159.237 40.7236C158.741 40.4436 158.349 40.0476 158.061 39.5356C157.781 39.0156 157.641 38.4156 157.641 37.7356C157.641 37.0636 157.785 36.4716 158.073 35.9596C158.369 35.4396 158.769 35.0436 159.273 34.7716C159.777 34.4916 160.341 34.3516 160.965 34.3516C161.589 34.3516 162.153 34.4916 162.657 34.7716C163.161 35.0436 163.557 35.4356 163.845 35.9476C164.141 36.4596 164.289 37.0556 164.289 37.7356C164.289 38.4156 164.137 39.0156 163.833 39.5356C163.537 40.0476 163.133 40.4436 162.621 40.7236C162.109 41.0036 161.541 41.1436 160.917 41.1436ZM160.917 40.1836C161.309 40.1836 161.677 40.0916 162.021 39.9076C162.365 39.7236 162.641 39.4476 162.849 39.0796C163.065 38.7116 163.173 38.2636 163.173 37.7356C163.173 37.2076 163.069 36.7596 162.861 36.3916C162.653 36.0236 162.381 35.7516 162.045 35.5756C161.709 35.3916 161.345 35.2996 160.953 35.2996C160.553 35.2996 160.185 35.3916 159.849 35.5756C159.521 35.7516 159.257 36.0236 159.057 36.3916C158.857 36.7596 158.757 37.2076 158.757 37.7356C158.757 38.2716 158.853 38.7236 159.045 39.0916C159.245 39.4596 159.509 39.7356 159.837 39.9196C160.165 40.0956 160.525 40.1836 160.917 40.1836ZM168.929 34.3396C169.729 34.3396 170.377 34.5836 170.873 35.0716C171.369 35.5516 171.617 36.2476 171.617 37.1596V41.0356H170.537V37.3156C170.537 36.6596 170.373 36.1596 170.045 35.8156C169.717 35.4636 169.269 35.2876 168.701 35.2876C168.125 35.2876 167.665 35.4676 167.321 35.8276C166.985 36.1876 166.817 36.7116 166.817 37.3996V41.0356H165.725V34.4596H166.817V35.3956C167.033 35.0596 167.325 34.7996 167.693 34.6156C168.069 34.4316 168.481 34.3396 168.929 34.3396Z" fill="#343434"/>
<path opacity="0.72" d="M52.6513 102.126L52.3713 103.666H49.7813L48.3253 111.898H46.3513L47.8073 103.666H45.2033L45.4833 102.126H52.6513ZM55.0194 104.142L56.0554 109.56L59.0654 104.142H61.1514L54.3334 115.566H52.2474L54.5994 111.702L52.8214 104.142H55.0194ZM63.972 105.262C64.2893 104.908 64.686 104.614 65.162 104.38C65.6473 104.138 66.1747 104.016 66.744 104.016C67.3227 104.016 67.8313 104.142 68.27 104.394C68.718 104.637 69.0633 104.992 69.306 105.458C69.5487 105.925 69.67 106.471 69.67 107.096C69.67 107.386 69.642 107.684 69.586 107.992C69.446 108.786 69.166 109.49 68.746 110.106C68.326 110.713 67.8173 111.184 67.22 111.52C66.6227 111.856 65.9973 112.024 65.344 112.024C64.7747 112.024 64.2893 111.908 63.888 111.674C63.496 111.441 63.1973 111.147 62.992 110.792L62.152 115.594H60.178L62.194 104.142H64.168L63.972 105.262ZM67.584 107.992C67.612 107.806 67.626 107.638 67.626 107.488C67.626 106.938 67.4673 106.508 67.15 106.2C66.8327 105.892 66.4267 105.738 65.932 105.738C65.5773 105.738 65.2273 105.832 64.882 106.018C64.5367 106.196 64.238 106.457 63.986 106.802C63.734 107.148 63.566 107.554 63.482 108.02C63.4447 108.263 63.426 108.44 63.426 108.552C63.426 109.103 63.5847 109.532 63.902 109.84C64.2287 110.148 64.6347 110.302 65.12 110.302C65.484 110.302 65.8387 110.209 66.184 110.022C66.5293 109.836 66.828 109.57 67.08 109.224C67.332 108.879 67.5 108.468 67.584 107.992ZM75.0983 104.016C76.0876 104.016 76.8716 104.292 77.4503 104.842C78.0289 105.384 78.3183 106.116 78.3183 107.04C78.3183 107.339 78.2949 107.605 78.2483 107.838C78.1923 108.118 78.1316 108.361 78.0663 108.566H72.3963C72.3869 108.632 72.3823 108.725 72.3823 108.846C72.3823 109.332 72.5223 109.714 72.8023 109.994C73.0916 110.265 73.4696 110.4 73.9363 110.4C74.3283 110.4 74.6643 110.316 74.9443 110.148C75.2336 109.971 75.4669 109.742 75.6443 109.462H77.7583C77.4129 110.209 76.8763 110.825 76.1483 111.31C75.4296 111.786 74.6129 112.024 73.6983 112.024C72.7089 112.024 71.9156 111.744 71.3183 111.184C70.7209 110.624 70.4223 109.864 70.4223 108.902C70.4223 108.622 70.4503 108.328 70.5063 108.02C70.6463 107.218 70.9309 106.513 71.3603 105.906C71.7989 105.3 72.3403 104.833 72.9843 104.506C73.6283 104.18 74.3329 104.016 75.0983 104.016ZM76.3023 107.376C76.3209 107.227 76.3303 107.12 76.3303 107.054C76.3303 106.606 76.1856 106.256 75.8963 106.004C75.6069 105.752 75.2289 105.626 74.7623 105.626C74.2676 105.626 73.8243 105.785 73.4323 106.102C73.0403 106.41 72.7649 106.835 72.6063 107.376H76.3023ZM85.371 104.142L86.407 109.56L89.417 104.142H91.503L84.685 115.566H82.599L84.951 111.702L83.173 104.142H85.371ZM94.6455 112.024C93.9829 112.024 93.3949 111.889 92.8815 111.618C92.3775 111.348 91.9855 110.965 91.7055 110.47C91.4255 109.976 91.2855 109.406 91.2855 108.762C91.2855 107.885 91.4909 107.087 91.9015 106.368C92.3215 105.64 92.8909 105.066 93.6095 104.646C94.3375 104.226 95.1449 104.016 96.0315 104.016C96.6942 104.016 97.2822 104.156 97.7955 104.436C98.3182 104.707 98.7195 105.09 98.9995 105.584C99.2889 106.079 99.4335 106.648 99.4335 107.292C99.4335 108.179 99.2235 108.982 98.8035 109.7C98.3835 110.419 97.8049 110.988 97.0675 111.408C96.3395 111.819 95.5322 112.024 94.6455 112.024ZM94.9115 110.344C95.3782 110.344 95.8029 110.209 96.1855 109.938C96.5682 109.668 96.8669 109.308 97.0815 108.86C97.2962 108.412 97.4035 107.941 97.4035 107.446C97.4035 106.886 97.2449 106.457 96.9275 106.158C96.6195 105.85 96.2275 105.696 95.7515 105.696C95.2755 105.696 94.8509 105.832 94.4775 106.102C94.1135 106.373 93.8289 106.737 93.6235 107.194C93.4182 107.642 93.3155 108.118 93.3155 108.622C93.3155 109.173 93.4602 109.598 93.7495 109.896C94.0482 110.195 94.4355 110.344 94.9115 110.344ZM108.795 104.142L107.423 111.898H105.463L105.631 110.918C105.333 111.254 104.964 111.52 104.525 111.716C104.087 111.903 103.625 111.996 103.139 111.996C102.337 111.996 101.702 111.782 101.235 111.352C100.769 110.914 100.535 110.293 100.535 109.49C100.535 109.192 100.559 108.926 100.605 108.692L101.403 104.142H103.363L102.607 108.412C102.579 108.58 102.565 108.744 102.565 108.902C102.565 109.36 102.691 109.714 102.943 109.966C103.195 110.209 103.55 110.33 104.007 110.33C104.539 110.33 104.992 110.167 105.365 109.84C105.739 109.504 105.977 109.028 106.079 108.412L106.835 104.142H108.795ZM112.465 105.514C112.801 105.048 113.193 104.684 113.641 104.422C114.089 104.161 114.574 104.03 115.097 104.03L114.733 106.088H114.215C113.636 106.088 113.17 106.214 112.815 106.466C112.47 106.718 112.218 107.148 112.059 107.754L111.331 111.898H109.357L110.729 104.142H112.703L112.465 105.514ZM118.945 108.006C119.085 107.232 119.37 106.546 119.799 105.948C120.229 105.342 120.747 104.87 121.353 104.534C121.969 104.198 122.609 104.03 123.271 104.03C123.822 104.03 124.293 104.138 124.685 104.352C125.077 104.558 125.367 104.824 125.553 105.15L125.735 104.142H127.709L125.693 115.594H123.719L124.545 110.834C124.228 111.17 123.831 111.45 123.355 111.674C122.889 111.898 122.375 112.01 121.815 112.01C121.246 112.01 120.737 111.88 120.289 111.618C119.841 111.357 119.491 110.988 119.239 110.512C118.987 110.036 118.861 109.486 118.861 108.86C118.861 108.58 118.889 108.296 118.945 108.006ZM125.049 108.02C125.077 107.834 125.091 107.661 125.091 107.502C125.091 106.942 124.928 106.508 124.601 106.2C124.284 105.892 123.887 105.738 123.411 105.738C123.066 105.738 122.721 105.827 122.375 106.004C122.03 106.182 121.727 106.443 121.465 106.788C121.213 107.124 121.045 107.53 120.961 108.006C120.933 108.184 120.919 108.356 120.919 108.524C120.919 109.075 121.083 109.509 121.409 109.826C121.736 110.144 122.133 110.302 122.599 110.302C122.954 110.302 123.299 110.214 123.635 110.036C123.981 109.859 124.279 109.598 124.531 109.252C124.793 108.907 124.965 108.496 125.049 108.02ZM136.946 104.142L135.574 111.898H133.614L133.782 110.918C133.483 111.254 133.114 111.52 132.676 111.716C132.237 111.903 131.775 111.996 131.29 111.996C130.487 111.996 129.852 111.782 129.386 111.352C128.919 110.914 128.686 110.293 128.686 109.49C128.686 109.192 128.709 108.926 128.756 108.692L129.554 104.142H131.514L130.758 108.412C130.73 108.58 130.716 108.744 130.716 108.902C130.716 109.36 130.842 109.714 131.094 109.966C131.346 110.209 131.7 110.33 132.158 110.33C132.69 110.33 133.142 110.167 133.516 109.84C133.889 109.504 134.127 109.028 134.23 108.412L134.986 104.142H136.946ZM142.296 104.016C143.285 104.016 144.069 104.292 144.648 104.842C145.226 105.384 145.516 106.116 145.516 107.04C145.516 107.339 145.492 107.605 145.446 107.838C145.39 108.118 145.329 108.361 145.264 108.566H139.594C139.584 108.632 139.58 108.725 139.58 108.846C139.58 109.332 139.72 109.714 140 109.994C140.289 110.265 140.667 110.4 141.134 110.4C141.526 110.4 141.862 110.316 142.142 110.148C142.431 109.971 142.664 109.742 142.842 109.462H144.956C144.61 110.209 144.074 110.825 143.346 111.31C142.627 111.786 141.81 112.024 140.896 112.024C139.906 112.024 139.113 111.744 138.516 111.184C137.918 110.624 137.62 109.864 137.62 108.902C137.62 108.622 137.648 108.328 137.704 108.02C137.844 107.218 138.128 106.513 138.558 105.906C138.996 105.3 139.538 104.833 140.182 104.506C140.826 104.18 141.53 104.016 142.296 104.016ZM143.5 107.376C143.518 107.227 143.528 107.12 143.528 107.054C143.528 106.606 143.383 106.256 143.094 106.004C142.804 105.752 142.426 105.626 141.96 105.626C141.465 105.626 141.022 105.785 140.63 106.102C140.238 106.41 139.962 106.835 139.804 107.376H143.5ZM149.186 112.024C148.617 112.024 148.099 111.931 147.632 111.744C147.175 111.548 146.811 111.282 146.54 110.946C146.279 110.601 146.148 110.209 146.148 109.77C146.148 109.705 146.157 109.598 146.176 109.448H148.08C148.052 109.775 148.15 110.041 148.374 110.246C148.598 110.442 148.915 110.54 149.326 110.54C149.699 110.54 150.007 110.475 150.25 110.344C150.502 110.204 150.628 110.004 150.628 109.742C150.628 109.509 150.511 109.322 150.278 109.182C150.054 109.042 149.695 108.884 149.2 108.706C148.705 108.529 148.295 108.356 147.968 108.188C147.641 108.02 147.361 107.787 147.128 107.488C146.895 107.19 146.778 106.812 146.778 106.354C146.778 105.897 146.909 105.491 147.17 105.136C147.441 104.782 147.814 104.506 148.29 104.31C148.766 104.114 149.312 104.016 149.928 104.016C150.516 104.016 151.034 104.114 151.482 104.31C151.93 104.506 152.275 104.782 152.518 105.136C152.77 105.482 152.896 105.878 152.896 106.326C152.896 106.438 152.891 106.522 152.882 106.578H151.062C151.09 106.252 150.997 105.99 150.782 105.794C150.567 105.598 150.255 105.5 149.844 105.5C149.508 105.5 149.233 105.575 149.018 105.724C148.803 105.864 148.696 106.056 148.696 106.298C148.696 106.541 148.817 106.742 149.06 106.9C149.303 107.05 149.676 107.218 150.18 107.404C150.684 107.6 151.085 107.782 151.384 107.95C151.692 108.109 151.958 108.333 152.182 108.622C152.406 108.902 152.518 109.257 152.518 109.686C152.518 110.162 152.373 110.578 152.084 110.932C151.795 111.287 151.398 111.558 150.894 111.744C150.39 111.931 149.821 112.024 149.186 112.024ZM156.493 109.504C156.484 109.56 156.479 109.635 156.479 109.728C156.479 109.915 156.53 110.05 156.633 110.134C156.745 110.209 156.927 110.246 157.179 110.246H158.103L157.809 111.898H156.563C155.163 111.898 154.463 111.315 154.463 110.148C154.463 109.924 154.482 109.705 154.519 109.49L155.177 105.752H154.253L154.533 104.142H155.471L155.807 102.224H157.781L157.445 104.142H159.167L158.887 105.752H157.151L156.493 109.504ZM161.739 103.218C161.431 103.218 161.183 103.13 160.997 102.952C160.81 102.775 160.717 102.551 160.717 102.28C160.717 101.907 160.857 101.59 161.137 101.328C161.426 101.058 161.762 100.922 162.145 100.922C162.443 100.922 162.686 101.011 162.873 101.188C163.059 101.366 163.153 101.59 163.153 101.86C163.153 102.234 163.013 102.556 162.733 102.826C162.453 103.088 162.121 103.218 161.739 103.218ZM162.551 104.142L161.179 111.898H159.205L160.577 104.142H162.551ZM166.573 112.024C165.911 112.024 165.323 111.889 164.809 111.618C164.305 111.348 163.913 110.965 163.633 110.47C163.353 109.976 163.213 109.406 163.213 108.762C163.213 107.885 163.419 107.087 163.829 106.368C164.249 105.64 164.819 105.066 165.537 104.646C166.265 104.226 167.073 104.016 167.959 104.016C168.622 104.016 169.21 104.156 169.723 104.436C170.246 104.707 170.647 105.09 170.927 105.584C171.217 106.079 171.361 106.648 171.361 107.292C171.361 108.179 171.151 108.982 170.731 109.7C170.311 110.419 169.733 110.988 168.995 111.408C168.267 111.819 167.46 112.024 166.573 112.024ZM166.839 110.344C167.306 110.344 167.731 110.209 168.113 109.938C168.496 109.668 168.795 109.308 169.009 108.86C169.224 108.412 169.331 107.941 169.331 107.446C169.331 106.886 169.173 106.457 168.855 106.158C168.547 105.85 168.155 105.696 167.679 105.696C167.203 105.696 166.779 105.832 166.405 106.102C166.041 106.373 165.757 106.737 165.551 107.194C165.346 107.642 165.243 108.118 165.243 108.622C165.243 109.173 165.388 109.598 165.677 109.896C165.976 110.195 166.363 110.344 166.839 110.344ZM177.713 104.03C178.516 104.03 179.146 104.25 179.603 104.688C180.07 105.118 180.303 105.734 180.303 106.536C180.303 106.835 180.28 107.106 180.233 107.348L179.421 111.898H177.475L178.231 107.614C178.259 107.446 178.273 107.283 178.273 107.124C178.273 106.658 178.147 106.303 177.895 106.06C177.652 105.818 177.302 105.696 176.845 105.696C176.322 105.696 175.874 105.855 175.501 106.172C175.137 106.48 174.894 106.928 174.773 107.516L174.003 111.898H172.029L173.401 104.142H175.375L175.207 105.094C175.524 104.768 175.902 104.511 176.341 104.324C176.78 104.128 177.237 104.03 177.713 104.03ZM190.799 104.03C191.564 104.03 192.171 104.25 192.619 104.688C193.076 105.127 193.305 105.743 193.305 106.536C193.305 106.835 193.282 107.106 193.235 107.348L192.423 111.898H190.477L191.233 107.614C191.261 107.446 191.275 107.283 191.275 107.124C191.275 106.658 191.149 106.303 190.897 106.06C190.654 105.818 190.304 105.696 189.847 105.696C189.324 105.696 188.881 105.855 188.517 106.172C188.153 106.48 187.91 106.924 187.789 107.502L187.005 111.898H185.031L186.865 101.538H188.839L188.209 105.094C188.526 104.768 188.909 104.511 189.357 104.324C189.814 104.128 190.295 104.03 190.799 104.03ZM199.075 104.016C200.064 104.016 200.848 104.292 201.427 104.842C202.005 105.384 202.295 106.116 202.295 107.04C202.295 107.339 202.271 107.605 202.225 107.838C202.169 108.118 202.108 108.361 202.043 108.566H196.373C196.363 108.632 196.359 108.725 196.359 108.846C196.359 109.332 196.499 109.714 196.779 109.994C197.068 110.265 197.446 110.4 197.913 110.4C198.305 110.4 198.641 110.316 198.921 110.148C199.21 109.971 199.443 109.742 199.621 109.462H201.735C201.389 110.209 200.853 110.825 200.125 111.31C199.406 111.786 198.589 112.024 197.675 112.024C196.685 112.024 195.892 111.744 195.295 111.184C194.697 110.624 194.399 109.864 194.399 108.902C194.399 108.622 194.427 108.328 194.483 108.02C194.623 107.218 194.907 106.513 195.337 105.906C195.775 105.3 196.317 104.833 196.961 104.506C197.605 104.18 198.309 104.016 199.075 104.016ZM200.279 107.376C200.297 107.227 200.307 107.12 200.307 107.054C200.307 106.606 200.162 106.256 199.873 106.004C199.583 105.752 199.205 105.626 198.739 105.626C198.244 105.626 197.801 105.785 197.409 106.102C197.017 106.41 196.741 106.835 196.583 107.376H200.279ZM206.035 105.514C206.371 105.048 206.763 104.684 207.211 104.422C207.659 104.161 208.145 104.03 208.667 104.03L208.303 106.088H207.785C207.207 106.088 206.74 106.214 206.385 106.466C206.04 106.718 205.788 107.148 205.629 107.754L204.901 111.898H202.927L204.299 104.142H206.273L206.035 105.514ZM213.376 104.016C214.365 104.016 215.149 104.292 215.728 104.842C216.306 105.384 216.596 106.116 216.596 107.04C216.596 107.339 216.572 107.605 216.526 107.838C216.47 108.118 216.409 108.361 216.344 108.566H210.674C210.664 108.632 210.66 108.725 210.66 108.846C210.66 109.332 210.8 109.714 211.08 109.994C211.369 110.265 211.747 110.4 212.214 110.4C212.606 110.4 212.942 110.316 213.222 110.148C213.511 109.971 213.744 109.742 213.922 109.462H216.036C215.69 110.209 215.154 110.825 214.426 111.31C213.707 111.786 212.89 112.024 211.976 112.024C210.986 112.024 210.193 111.744 209.596 111.184C208.998 110.624 208.7 109.864 208.7 108.902C208.7 108.622 208.728 108.328 208.784 108.02C208.924 107.218 209.208 106.513 209.638 105.906C210.076 105.3 210.618 104.833 211.262 104.506C211.906 104.18 212.61 104.016 213.376 104.016ZM214.58 107.376C214.598 107.227 214.608 107.12 214.608 107.054C214.608 106.606 214.463 106.256 214.174 106.004C213.884 105.752 213.506 105.626 213.04 105.626C212.545 105.626 212.102 105.785 211.71 106.102C211.318 106.41 211.042 106.835 210.884 107.376H214.58Z" fill="#172537"/>
<path d="M48.1113 163.625V164.661H45.4513V173.383H44.1773V164.661H41.5033V163.625H48.1113ZM56.2876 165.711L51.6676 176.995H50.3516L51.8636 173.299L48.7696 165.711H50.1836L52.5916 171.927L54.9716 165.711H56.2876ZM58.8422 167.125C59.0942 166.686 59.4676 166.322 59.9622 166.033C60.4662 165.734 61.0496 165.585 61.7122 165.585C62.3936 165.585 63.0096 165.748 63.5602 166.075C64.1202 166.401 64.5589 166.863 64.8762 167.461C65.1936 168.049 65.3522 168.735 65.3522 169.519C65.3522 170.293 65.1936 170.984 64.8762 171.591C64.5589 172.197 64.1202 172.669 63.5602 173.005C63.0096 173.341 62.3936 173.509 61.7122 173.509C61.0589 173.509 60.4802 173.364 59.9762 173.075C59.4816 172.776 59.1036 172.407 58.8422 171.969V177.023H57.5682V165.711H58.8422V167.125ZM64.0502 169.519C64.0502 168.94 63.9336 168.436 63.7002 168.007C63.4669 167.577 63.1496 167.251 62.7482 167.027C62.3562 166.803 61.9222 166.691 61.4462 166.691C60.9796 166.691 60.5456 166.807 60.1442 167.041C59.7522 167.265 59.4349 167.596 59.1922 168.035C58.9589 168.464 58.8422 168.963 58.8422 169.533C58.8422 170.111 58.9589 170.62 59.1922 171.059C59.4349 171.488 59.7522 171.819 60.1442 172.053C60.5456 172.277 60.9796 172.389 61.4462 172.389C61.9222 172.389 62.3562 172.277 62.7482 172.053C63.1496 171.819 63.4669 171.488 63.7002 171.059C63.9336 170.62 64.0502 170.107 64.0502 169.519ZM74.0292 169.253C74.0292 169.495 74.0152 169.752 73.9872 170.023H67.8552C67.9018 170.779 68.1585 171.371 68.6252 171.801C69.1012 172.221 69.6752 172.431 70.3472 172.431C70.8978 172.431 71.3552 172.305 71.7192 172.053C72.0925 171.791 72.3538 171.446 72.5032 171.017H73.8752C73.6698 171.754 73.2592 172.356 72.6432 172.823C72.0272 173.28 71.2618 173.509 70.3472 173.509C69.6192 173.509 68.9658 173.345 68.3872 173.019C67.8178 172.692 67.3698 172.23 67.0432 171.633C66.7165 171.026 66.5532 170.326 66.5532 169.533C66.5532 168.739 66.7118 168.044 67.0292 167.447C67.3465 166.849 67.7898 166.392 68.3592 166.075C68.9378 165.748 69.6005 165.585 70.3472 165.585C71.0752 165.585 71.7192 165.743 72.2792 166.061C72.8392 166.378 73.2685 166.817 73.5672 167.377C73.8752 167.927 74.0292 168.553 74.0292 169.253ZM72.7132 168.987C72.7132 168.501 72.6058 168.086 72.3912 167.741C72.1765 167.386 71.8825 167.12 71.5092 166.943C71.1452 166.756 70.7392 166.663 70.2912 166.663C69.6472 166.663 69.0965 166.868 68.6392 167.279C68.1912 167.689 67.9345 168.259 67.8692 168.987H72.7132ZM86.0512 165.711L81.4312 176.995H80.1152L81.6272 173.299L78.5332 165.711H79.9472L82.3552 171.927L84.7352 165.711H86.0512ZM90.6779 173.509C89.9592 173.509 89.3059 173.345 88.7179 173.019C88.1392 172.692 87.6819 172.23 87.3459 171.633C87.0192 171.026 86.8559 170.326 86.8559 169.533C86.8559 168.749 87.0239 168.058 87.3599 167.461C87.7052 166.854 88.1719 166.392 88.7599 166.075C89.3479 165.748 90.0059 165.585 90.7339 165.585C91.4619 165.585 92.1199 165.748 92.7079 166.075C93.2959 166.392 93.7579 166.849 94.0939 167.447C94.4392 168.044 94.6119 168.739 94.6119 169.533C94.6119 170.326 94.4346 171.026 94.0799 171.633C93.7346 172.23 93.2632 172.692 92.6659 173.019C92.0686 173.345 91.4059 173.509 90.6779 173.509ZM90.6779 172.389C91.1352 172.389 91.5646 172.281 91.9659 172.067C92.3672 171.852 92.6892 171.53 92.9319 171.101C93.1839 170.671 93.3099 170.149 93.3099 169.533C93.3099 168.917 93.1886 168.394 92.9459 167.965C92.7032 167.535 92.3859 167.218 91.9939 167.013C91.6019 166.798 91.1772 166.691 90.7199 166.691C90.2532 166.691 89.8239 166.798 89.4319 167.013C89.0492 167.218 88.7412 167.535 88.5079 167.965C88.2746 168.394 88.1579 168.917 88.1579 169.533C88.1579 170.158 88.2699 170.685 88.4939 171.115C88.7272 171.544 89.0352 171.866 89.4179 172.081C89.8006 172.286 90.2206 172.389 90.6779 172.389ZM103.091 165.711V173.383H101.817V172.249C101.574 172.641 101.234 172.949 100.795 173.173C100.366 173.387 99.8897 173.495 99.367 173.495C98.7697 173.495 98.233 173.373 97.757 173.131C97.281 172.879 96.903 172.505 96.623 172.011C96.3523 171.516 96.217 170.914 96.217 170.205V165.711H97.477V170.037C97.477 170.793 97.6683 171.376 98.051 171.787C98.4337 172.188 98.9563 172.389 99.619 172.389C100.3 172.389 100.837 172.179 101.229 171.759C101.621 171.339 101.817 170.727 101.817 169.925V165.711H103.091ZM106.516 166.957C106.74 166.518 107.057 166.177 107.468 165.935C107.888 165.692 108.397 165.571 108.994 165.571V166.887H108.658C107.23 166.887 106.516 167.661 106.516 169.211V173.383H105.242V165.711H106.516V166.957ZM116.913 173.509C116.325 173.509 115.798 173.411 115.331 173.215C114.864 173.009 114.496 172.729 114.225 172.375C113.954 172.011 113.805 171.595 113.777 171.129H115.093C115.13 171.511 115.308 171.824 115.625 172.067C115.952 172.309 116.376 172.431 116.899 172.431C117.384 172.431 117.767 172.323 118.047 172.109C118.327 171.894 118.467 171.623 118.467 171.297C118.467 170.961 118.318 170.713 118.019 170.555C117.72 170.387 117.258 170.223 116.633 170.065C116.064 169.915 115.597 169.766 115.233 169.617C114.878 169.458 114.57 169.229 114.309 168.931C114.057 168.623 113.931 168.221 113.931 167.727C113.931 167.335 114.048 166.975 114.281 166.649C114.514 166.322 114.846 166.065 115.275 165.879C115.704 165.683 116.194 165.585 116.745 165.585C117.594 165.585 118.28 165.799 118.803 166.229C119.326 166.658 119.606 167.246 119.643 167.993H118.369C118.341 167.591 118.178 167.269 117.879 167.027C117.59 166.784 117.198 166.663 116.703 166.663C116.246 166.663 115.882 166.761 115.611 166.957C115.34 167.153 115.205 167.409 115.205 167.727C115.205 167.979 115.284 168.189 115.443 168.357C115.611 168.515 115.816 168.646 116.059 168.749C116.311 168.842 116.656 168.949 117.095 169.071C117.646 169.22 118.094 169.369 118.439 169.519C118.784 169.659 119.078 169.873 119.321 170.163C119.573 170.452 119.704 170.83 119.713 171.297C119.713 171.717 119.596 172.095 119.363 172.431C119.13 172.767 118.798 173.033 118.369 173.229C117.949 173.415 117.464 173.509 116.913 173.509ZM125.32 165.571C125.898 165.571 126.421 165.697 126.888 165.949C127.354 166.191 127.718 166.56 127.98 167.055C128.25 167.549 128.386 168.151 128.386 168.861V173.383H127.126V169.043C127.126 168.277 126.934 167.694 126.552 167.293C126.169 166.882 125.646 166.677 124.984 166.677C124.312 166.677 123.775 166.887 123.374 167.307C122.982 167.727 122.786 168.338 122.786 169.141V173.383H121.512V163.023H122.786V166.803C123.038 166.411 123.383 166.107 123.822 165.893C124.27 165.678 124.769 165.571 125.32 165.571ZM133.813 173.509C133.094 173.509 132.441 173.345 131.853 173.019C131.274 172.692 130.817 172.23 130.481 171.633C130.154 171.026 129.991 170.326 129.991 169.533C129.991 168.749 130.159 168.058 130.495 167.461C130.84 166.854 131.307 166.392 131.895 166.075C132.483 165.748 133.141 165.585 133.869 165.585C134.597 165.585 135.255 165.748 135.843 166.075C136.431 166.392 136.893 166.849 137.229 167.447C137.574 168.044 137.747 168.739 137.747 169.533C137.747 170.326 137.569 171.026 137.215 171.633C136.869 172.23 136.398 172.692 135.801 173.019C135.203 173.345 134.541 173.509 133.813 173.509ZM133.813 172.389C134.27 172.389 134.699 172.281 135.101 172.067C135.502 171.852 135.824 171.53 136.067 171.101C136.319 170.671 136.445 170.149 136.445 169.533C136.445 168.917 136.323 168.394 136.081 167.965C135.838 167.535 135.521 167.218 135.129 167.013C134.737 166.798 134.312 166.691 133.855 166.691C133.388 166.691 132.959 166.798 132.567 167.013C132.184 167.218 131.876 167.535 131.643 167.965C131.409 168.394 131.293 168.917 131.293 169.533C131.293 170.158 131.405 170.685 131.629 171.115C131.862 171.544 132.17 171.866 132.553 172.081C132.935 172.286 133.355 172.389 133.813 172.389ZM140.696 166.957C140.92 166.518 141.237 166.177 141.648 165.935C142.068 165.692 142.576 165.571 143.174 165.571V166.887H142.838C141.41 166.887 140.696 167.661 140.696 169.211V173.383H139.422V165.711H140.696V166.957ZM146.198 166.761V171.283C146.198 171.656 146.278 171.922 146.436 172.081C146.595 172.23 146.87 172.305 147.262 172.305H148.2V173.383H147.052C146.343 173.383 145.811 173.219 145.456 172.893C145.102 172.566 144.924 172.029 144.924 171.283V166.761H143.93V165.711H144.924V163.779H146.198V165.711H148.2V166.761H146.198ZM153 169.519C153 168.735 153.159 168.049 153.476 167.461C153.794 166.863 154.228 166.401 154.778 166.075C155.338 165.748 155.959 165.585 156.64 165.585C157.312 165.585 157.896 165.729 158.39 166.019C158.885 166.308 159.254 166.672 159.496 167.111V165.711H160.784V173.383H159.496V171.955C159.244 172.403 158.866 172.776 158.362 173.075C157.868 173.364 157.289 173.509 156.626 173.509C155.945 173.509 155.329 173.341 154.778 173.005C154.228 172.669 153.794 172.197 153.476 171.591C153.159 170.984 153 170.293 153 169.519ZM159.496 169.533C159.496 168.954 159.38 168.45 159.146 168.021C158.913 167.591 158.596 167.265 158.194 167.041C157.802 166.807 157.368 166.691 156.892 166.691C156.416 166.691 155.982 166.803 155.59 167.027C155.198 167.251 154.886 167.577 154.652 168.007C154.419 168.436 154.302 168.94 154.302 169.519C154.302 170.107 154.419 170.62 154.652 171.059C154.886 171.488 155.198 171.819 155.59 172.053C155.982 172.277 156.416 172.389 156.892 172.389C157.368 172.389 157.802 172.277 158.194 172.053C158.596 171.819 158.913 171.488 159.146 171.059C159.38 170.62 159.496 170.111 159.496 169.533ZM166.675 165.571C167.609 165.571 168.365 165.855 168.943 166.425C169.522 166.985 169.811 167.797 169.811 168.861V173.383H168.551V169.043C168.551 168.277 168.36 167.694 167.977 167.293C167.595 166.882 167.072 166.677 166.409 166.677C165.737 166.677 165.201 166.887 164.799 167.307C164.407 167.727 164.211 168.338 164.211 169.141V173.383H162.937V165.711H164.211V166.803C164.463 166.411 164.804 166.107 165.233 165.893C165.672 165.678 166.153 165.571 166.675 165.571ZM174.608 173.509C174.02 173.509 173.493 173.411 173.026 173.215C172.56 173.009 172.191 172.729 171.92 172.375C171.65 172.011 171.5 171.595 171.472 171.129H172.788C172.826 171.511 173.003 171.824 173.32 172.067C173.647 172.309 174.072 172.431 174.594 172.431C175.08 172.431 175.462 172.323 175.742 172.109C176.022 171.894 176.162 171.623 176.162 171.297C176.162 170.961 176.013 170.713 175.714 170.555C175.416 170.387 174.954 170.223 174.328 170.065C173.759 169.915 173.292 169.766 172.928 169.617C172.574 169.458 172.266 169.229 172.004 168.931C171.752 168.623 171.626 168.221 171.626 167.727C171.626 167.335 171.743 166.975 171.976 166.649C172.21 166.322 172.541 166.065 172.97 165.879C173.4 165.683 173.89 165.585 174.44 165.585C175.29 165.585 175.976 165.799 176.498 166.229C177.021 166.658 177.301 167.246 177.338 167.993H176.064C176.036 167.591 175.873 167.269 175.574 167.027C175.285 166.784 174.893 166.663 174.398 166.663C173.941 166.663 173.577 166.761 173.306 166.957C173.036 167.153 172.9 167.409 172.9 167.727C172.9 167.979 172.98 168.189 173.138 168.357C173.306 168.515 173.512 168.646 173.754 168.749C174.006 168.842 174.352 168.949 174.79 169.071C175.341 169.22 175.789 169.369 176.134 169.519C176.48 169.659 176.774 169.873 177.016 170.163C177.268 170.452 177.399 170.83 177.408 171.297C177.408 171.717 177.292 172.095 177.058 172.431C176.825 172.767 176.494 173.033 176.064 173.229C175.644 173.415 175.159 173.509 174.608 173.509ZM189.427 165.711L187.033 173.383H185.717L183.869 167.293L182.021 173.383H180.705L178.297 165.711H179.599L181.363 172.151L183.267 165.711H184.569L186.431 172.165L188.167 165.711H189.427ZM197.691 169.253C197.691 169.495 197.677 169.752 197.649 170.023H191.517C191.564 170.779 191.821 171.371 192.287 171.801C192.763 172.221 193.337 172.431 194.009 172.431C194.56 172.431 195.017 172.305 195.381 172.053C195.755 171.791 196.016 171.446 196.165 171.017H197.537C197.332 171.754 196.921 172.356 196.305 172.823C195.689 173.28 194.924 173.509 194.009 173.509C193.281 173.509 192.628 173.345 192.049 173.019C191.48 172.692 191.032 172.23 190.705 171.633C190.379 171.026 190.215 170.326 190.215 169.533C190.215 168.739 190.374 168.044 190.691 167.447C191.009 166.849 191.452 166.392 192.021 166.075C192.6 165.748 193.263 165.585 194.009 165.585C194.737 165.585 195.381 165.743 195.941 166.061C196.501 166.378 196.931 166.817 197.229 167.377C197.537 167.927 197.691 168.553 197.691 169.253ZM196.375 168.987C196.375 168.501 196.268 168.086 196.053 167.741C195.839 167.386 195.545 167.12 195.171 166.943C194.807 166.756 194.401 166.663 193.953 166.663C193.309 166.663 192.759 166.868 192.301 167.279C191.853 167.689 191.597 168.259 191.531 168.987H196.375ZM200.647 166.957C200.871 166.518 201.188 166.177 201.599 165.935C202.019 165.692 202.528 165.571 203.125 165.571V166.887H202.789C201.361 166.887 200.647 167.661 200.647 169.211V173.383H199.373V165.711H200.647V166.957ZM212.136 165.571C212.715 165.571 213.237 165.697 213.704 165.949C214.171 166.191 214.535 166.56 214.796 167.055C215.067 167.549 215.202 168.151 215.202 168.861V173.383H213.942V169.043C213.942 168.277 213.751 167.694 213.368 167.293C212.985 166.882 212.463 166.677 211.8 166.677C211.128 166.677 210.591 166.887 210.19 167.307C209.798 167.727 209.602 168.338 209.602 169.141V173.383H208.328V163.023H209.602V166.803C209.854 166.411 210.199 166.107 210.638 165.893C211.086 165.678 211.585 165.571 212.136 165.571ZM224.283 169.253C224.283 169.495 224.269 169.752 224.241 170.023H218.109C218.156 170.779 218.412 171.371 218.879 171.801C219.355 172.221 219.929 172.431 220.601 172.431C221.152 172.431 221.609 172.305 221.973 172.053C222.346 171.791 222.608 171.446 222.757 171.017H224.129C223.924 171.754 223.513 172.356 222.897 172.823C222.281 173.28 221.516 173.509 220.601 173.509C219.873 173.509 219.22 173.345 218.641 173.019C218.072 172.692 217.624 172.23 217.297 171.633C216.97 171.026 216.807 170.326 216.807 169.533C216.807 168.739 216.966 168.044 217.283 167.447C217.6 166.849 218.044 166.392 218.613 166.075C219.192 165.748 219.854 165.585 220.601 165.585C221.329 165.585 221.973 165.743 222.533 166.061C223.093 166.378 223.522 166.817 223.821 167.377C224.129 167.927 224.283 168.553 224.283 169.253ZM222.967 168.987C222.967 168.501 222.86 168.086 222.645 167.741C222.43 167.386 222.136 167.12 221.763 166.943C221.399 166.756 220.993 166.663 220.545 166.663C219.901 166.663 219.35 166.868 218.893 167.279C218.445 167.689 218.188 168.259 218.123 168.987H222.967ZM227.239 166.957C227.463 166.518 227.78 166.177 228.191 165.935C228.611 165.692 229.119 165.571 229.717 165.571V166.887H229.381C227.953 166.887 227.239 167.661 227.239 169.211V173.383H225.965V165.711H227.239V166.957ZM238.187 169.253C238.187 169.495 238.173 169.752 238.145 170.023H232.013C232.06 170.779 232.317 171.371 232.783 171.801C233.259 172.221 233.833 172.431 234.505 172.431C235.056 172.431 235.513 172.305 235.877 172.053C236.251 171.791 236.512 171.446 236.661 171.017H238.033C237.828 171.754 237.417 172.356 236.801 172.823C236.185 173.28 235.42 173.509 234.505 173.509C233.777 173.509 233.124 173.345 232.545 173.019C231.976 172.692 231.528 172.23 231.201 171.633C230.875 171.026 230.711 170.326 230.711 169.533C230.711 168.739 230.87 168.044 231.187 167.447C231.505 166.849 231.948 166.392 232.517 166.075C233.096 165.748 233.759 165.585 234.505 165.585C235.233 165.585 235.877 165.743 236.437 166.061C236.997 166.378 237.427 166.817 237.725 167.377C238.033 167.927 238.187 168.553 238.187 169.253ZM236.871 168.987C236.871 168.501 236.764 168.086 236.549 167.741C236.335 167.386 236.041 167.12 235.667 166.943C235.303 166.756 234.897 166.663 234.449 166.663C233.805 166.663 233.255 166.868 232.797 167.279C232.349 167.689 232.093 168.259 232.027 168.987H236.871Z" fill="#172537"/>
<path d="M47.0993 195.417V196.305H44.8193V203.781H43.7273V196.305H41.4353V195.417H47.0993ZM54.1075 197.205L50.1475 206.877H49.0195L50.3155 203.709L47.6635 197.205H48.8755L50.9395 202.533L52.9795 197.205H54.1075ZM56.2973 198.417C56.5133 198.041 56.8333 197.729 57.2573 197.481C57.6893 197.225 58.1893 197.097 58.7573 197.097C59.3413 197.097 59.8693 197.237 60.3412 197.517C60.8212 197.797 61.1973 198.193 61.4693 198.705C61.7413 199.209 61.8773 199.797 61.8773 200.469C61.8773 201.133 61.7413 201.725 61.4693 202.245C61.1973 202.765 60.8212 203.169 60.3412 203.457C59.8693 203.745 59.3413 203.889 58.7573 203.889C58.1973 203.889 57.7013 203.765 57.2693 203.517C56.8453 203.261 56.5213 202.945 56.2973 202.569V206.901H55.2053V197.205H56.2973V198.417ZM60.7613 200.469C60.7613 199.973 60.6613 199.541 60.4613 199.173C60.2613 198.805 59.9893 198.525 59.6453 198.333C59.3093 198.141 58.9373 198.045 58.5293 198.045C58.1293 198.045 57.7573 198.145 57.4133 198.345C57.0773 198.537 56.8053 198.821 56.5973 199.197C56.3973 199.565 56.2973 199.993 56.2973 200.481C56.2973 200.977 56.3973 201.413 56.5973 201.789C56.8053 202.157 57.0773 202.441 57.4133 202.641C57.7573 202.833 58.1293 202.929 58.5293 202.929C58.9373 202.929 59.3093 202.833 59.6453 202.641C59.9893 202.441 60.2613 202.157 60.4613 201.789C60.6613 201.413 60.7613 200.973 60.7613 200.469ZM69.3146 200.241C69.3146 200.449 69.3026 200.669 69.2786 200.901H64.0226C64.0626 201.549 64.2826 202.057 64.6826 202.425C65.0906 202.785 65.5826 202.965 66.1586 202.965C66.6306 202.965 67.0226 202.857 67.3346 202.641C67.6546 202.417 67.8786 202.121 68.0066 201.753H69.1826C69.0066 202.385 68.6546 202.901 68.1266 203.301C67.5986 203.693 66.9426 203.889 66.1586 203.889C65.5346 203.889 64.9746 203.749 64.4786 203.469C63.9906 203.189 63.6066 202.793 63.3266 202.281C63.0466 201.761 62.9066 201.161 62.9066 200.481C62.9066 199.801 63.0426 199.205 63.3146 198.693C63.5866 198.181 63.9666 197.789 64.4546 197.517C64.9506 197.237 65.5186 197.097 66.1586 197.097C66.7826 197.097 67.3346 197.233 67.8146 197.505C68.2946 197.777 68.6626 198.153 68.9186 198.633C69.1826 199.105 69.3146 199.641 69.3146 200.241ZM68.1866 200.013C68.1866 199.597 68.0946 199.241 67.9106 198.945C67.7266 198.641 67.4746 198.413 67.1546 198.261C66.8426 198.101 66.4946 198.021 66.1106 198.021C65.5586 198.021 65.0866 198.197 64.6946 198.549C64.3106 198.901 64.0906 199.389 64.0346 200.013H68.1866ZM79.6193 197.205L75.6593 206.877H74.5312L75.8273 203.709L73.1753 197.205H74.3873L76.4513 202.533L78.4913 197.205H79.6193ZM83.585 203.889C82.969 203.889 82.409 203.749 81.905 203.469C81.409 203.189 81.017 202.793 80.729 202.281C80.449 201.761 80.309 201.161 80.309 200.481C80.309 199.809 80.453 199.217 80.741 198.705C81.037 198.185 81.437 197.789 81.941 197.517C82.445 197.237 83.009 197.097 83.633 197.097C84.257 197.097 84.821 197.237 85.325 197.517C85.829 197.789 86.225 198.181 86.513 198.693C86.809 199.205 86.957 199.801 86.957 200.481C86.957 201.161 86.805 201.761 86.501 202.281C86.205 202.793 85.801 203.189 85.289 203.469C84.777 203.749 84.209 203.889 83.585 203.889ZM83.585 202.929C83.977 202.929 84.345 202.837 84.689 202.653C85.033 202.469 85.309 202.193 85.517 201.825C85.733 201.457 85.841 201.009 85.841 200.481C85.841 199.953 85.737 199.505 85.529 199.137C85.321 198.769 85.049 198.497 84.713 198.321C84.377 198.137 84.013 198.045 83.621 198.045C83.221 198.045 82.853 198.137 82.517 198.321C82.189 198.497 81.925 198.769 81.725 199.137C81.525 199.505 81.425 199.953 81.425 200.481C81.425 201.017 81.521 201.469 81.713 201.837C81.913 202.205 82.177 202.481 82.505 202.665C82.833 202.841 83.193 202.929 83.585 202.929ZM94.2248 197.205V203.781H93.1328V202.809C92.9248 203.145 92.6328 203.409 92.2568 203.601C91.8888 203.785 91.4808 203.877 91.0328 203.877C90.5208 203.877 90.0608 203.773 89.6528 203.565C89.2448 203.349 88.9208 203.029 88.6808 202.605C88.4488 202.181 88.3328 201.665 88.3328 201.057V197.205H89.4128V200.913C89.4128 201.561 89.5768 202.061 89.9048 202.413C90.2328 202.757 90.6808 202.929 91.2488 202.929C91.8328 202.929 92.2928 202.749 92.6288 202.389C92.9648 202.029 93.1328 201.505 93.1328 200.817V197.205H94.2248ZM97.1605 198.273C97.3525 197.897 97.6245 197.605 97.9765 197.397C98.3365 197.189 98.7725 197.085 99.2845 197.085V198.213H98.9965C97.7725 198.213 97.1605 198.877 97.1605 200.205V203.781H96.0685V197.205H97.1605V198.273ZM103.336 200.469C103.336 199.797 103.472 199.209 103.744 198.705C104.016 198.193 104.388 197.797 104.86 197.517C105.34 197.237 105.876 197.097 106.468 197.097C106.98 197.097 107.456 197.217 107.896 197.457C108.336 197.689 108.672 197.997 108.904 198.381V194.901H110.008V203.781H108.904V202.545C108.688 202.937 108.368 203.261 107.944 203.517C107.52 203.765 107.024 203.889 106.456 203.889C105.872 203.889 105.34 203.745 104.86 203.457C104.388 203.169 104.016 202.765 103.744 202.245C103.472 201.725 103.336 201.133 103.336 200.469ZM108.904 200.481C108.904 199.985 108.804 199.553 108.604 199.185C108.404 198.817 108.132 198.537 107.788 198.345C107.452 198.145 107.08 198.045 106.672 198.045C106.264 198.045 105.892 198.141 105.556 198.333C105.22 198.525 104.952 198.805 104.752 199.173C104.552 199.541 104.452 199.973 104.452 200.469C104.452 200.973 104.552 201.413 104.752 201.789C104.952 202.157 105.22 202.441 105.556 202.641C105.892 202.833 106.264 202.929 106.672 202.929C107.08 202.929 107.452 202.833 107.788 202.641C108.132 202.441 108.404 202.157 108.604 201.789C108.804 201.413 108.904 200.977 108.904 200.481ZM117.854 200.241C117.854 200.449 117.842 200.669 117.818 200.901H112.562C112.602 201.549 112.822 202.057 113.222 202.425C113.63 202.785 114.122 202.965 114.698 202.965C115.17 202.965 115.562 202.857 115.874 202.641C116.194 202.417 116.418 202.121 116.546 201.753H117.722C117.546 202.385 117.194 202.901 116.666 203.301C116.138 203.693 115.482 203.889 114.698 203.889C114.074 203.889 113.514 203.749 113.018 203.469C112.53 203.189 112.146 202.793 111.866 202.281C111.586 201.761 111.446 201.161 111.446 200.481C111.446 199.801 111.582 199.205 111.854 198.693C112.126 198.181 112.506 197.789 112.994 197.517C113.49 197.237 114.058 197.097 114.698 197.097C115.322 197.097 115.874 197.233 116.354 197.505C116.834 197.777 117.202 198.153 117.458 198.633C117.722 199.105 117.854 199.641 117.854 200.241ZM116.726 200.013C116.726 199.597 116.634 199.241 116.45 198.945C116.266 198.641 116.014 198.413 115.694 198.261C115.382 198.101 115.034 198.021 114.65 198.021C114.098 198.021 113.626 198.197 113.234 198.549C112.85 198.901 112.63 199.389 112.574 200.013H116.726ZM121.623 203.889C121.119 203.889 120.667 203.805 120.267 203.637C119.867 203.461 119.551 203.221 119.319 202.917C119.087 202.605 118.959 202.249 118.935 201.849H120.063C120.095 202.177 120.247 202.445 120.519 202.653C120.799 202.861 121.163 202.965 121.611 202.965C122.027 202.965 122.355 202.873 122.595 202.689C122.835 202.505 122.955 202.273 122.955 201.993C122.955 201.705 122.827 201.493 122.571 201.357C122.315 201.213 121.919 201.073 121.383 200.937C120.895 200.809 120.495 200.681 120.183 200.553C119.879 200.417 119.615 200.221 119.391 199.965C119.175 199.701 119.067 199.357 119.067 198.933C119.067 198.597 119.167 198.289 119.367 198.009C119.567 197.729 119.851 197.509 120.219 197.349C120.587 197.181 121.007 197.097 121.479 197.097C122.207 197.097 122.795 197.281 123.243 197.649C123.691 198.017 123.931 198.521 123.963 199.161H122.871C122.847 198.817 122.707 198.541 122.451 198.333C122.203 198.125 121.867 198.021 121.443 198.021C121.051 198.021 120.739 198.105 120.507 198.273C120.275 198.441 120.159 198.661 120.159 198.933C120.159 199.149 120.227 199.329 120.363 199.473C120.507 199.609 120.683 199.721 120.891 199.809C121.107 199.889 121.403 199.981 121.779 200.085C122.251 200.213 122.635 200.341 122.931 200.469C123.227 200.589 123.479 200.773 123.687 201.021C123.903 201.269 124.015 201.593 124.023 201.993C124.023 202.353 123.923 202.677 123.723 202.965C123.523 203.253 123.239 203.481 122.871 203.649C122.511 203.809 122.095 203.889 121.623 203.889ZM125.157 200.481C125.157 199.801 125.293 199.209 125.565 198.705C125.837 198.193 126.213 197.797 126.693 197.517C127.181 197.237 127.737 197.097 128.361 197.097C129.169 197.097 129.833 197.293 130.353 197.685C130.881 198.077 131.229 198.621 131.397 199.317H130.221C130.109 198.917 129.889 198.601 129.561 198.369C129.241 198.137 128.841 198.021 128.361 198.021C127.737 198.021 127.233 198.237 126.849 198.669C126.465 199.093 126.273 199.697 126.273 200.481C126.273 201.273 126.465 201.885 126.849 202.317C127.233 202.749 127.737 202.965 128.361 202.965C128.841 202.965 129.241 202.853 129.561 202.629C129.881 202.405 130.101 202.085 130.221 201.669H131.397C131.221 202.341 130.869 202.881 130.341 203.289C129.813 203.689 129.153 203.889 128.361 203.889C127.737 203.889 127.181 203.749 126.693 203.469C126.213 203.189 125.837 202.793 125.565 202.281C125.293 201.769 125.157 201.169 125.157 200.481ZM133.946 198.273C134.138 197.897 134.41 197.605 134.762 197.397C135.122 197.189 135.558 197.085 136.07 197.085V198.213H135.782C134.558 198.213 133.946 198.877 133.946 200.205V203.781H132.854V197.205H133.946V198.273ZM137.894 196.137C137.686 196.137 137.51 196.065 137.366 195.921C137.222 195.777 137.15 195.601 137.15 195.393C137.15 195.185 137.222 195.009 137.366 194.865C137.51 194.721 137.686 194.649 137.894 194.649C138.094 194.649 138.262 194.721 138.398 194.865C138.542 195.009 138.614 195.185 138.614 195.393C138.614 195.601 138.542 195.777 138.398 195.921C138.262 196.065 138.094 196.137 137.894 196.137ZM138.422 197.205V203.781H137.33V197.205H138.422ZM141.375 198.417C141.591 198.041 141.911 197.729 142.335 197.481C142.767 197.225 143.267 197.097 143.835 197.097C144.419 197.097 144.947 197.237 145.419 197.517C145.899 197.797 146.275 198.193 146.547 198.705C146.819 199.209 146.955 199.797 146.955 200.469C146.955 201.133 146.819 201.725 146.547 202.245C146.275 202.765 145.899 203.169 145.419 203.457C144.947 203.745 144.419 203.889 143.835 203.889C143.275 203.889 142.779 203.765 142.347 203.517C141.923 203.261 141.599 202.945 141.375 202.569V206.901H140.283V197.205H141.375V198.417ZM145.839 200.469C145.839 199.973 145.739 199.541 145.539 199.173C145.339 198.805 145.067 198.525 144.723 198.333C144.387 198.141 144.015 198.045 143.607 198.045C143.207 198.045 142.835 198.145 142.491 198.345C142.155 198.537 141.883 198.821 141.675 199.197C141.475 199.565 141.375 199.993 141.375 200.481C141.375 200.977 141.475 201.413 141.675 201.789C141.883 202.157 142.155 202.441 142.491 202.641C142.835 202.833 143.207 202.929 143.607 202.929C144.015 202.929 144.387 202.833 144.723 202.641C145.067 202.441 145.339 202.157 145.539 201.789C145.739 201.413 145.839 200.973 145.839 200.469ZM149.725 198.105V201.981C149.725 202.301 149.793 202.529 149.929 202.665C150.065 202.793 150.301 202.857 150.637 202.857H151.441V203.781H150.457C149.849 203.781 149.393 203.641 149.089 203.361C148.785 203.081 148.633 202.621 148.633 201.981V198.105H147.781V197.205H148.633V195.549H149.725V197.205H151.441V198.105H149.725ZM153.328 196.137C153.12 196.137 152.944 196.065 152.8 195.921C152.656 195.777 152.584 195.601 152.584 195.393C152.584 195.185 152.656 195.009 152.8 194.865C152.944 194.721 153.12 194.649 153.328 194.649C153.528 194.649 153.696 194.721 153.832 194.865C153.976 195.009 154.048 195.185 154.048 195.393C154.048 195.601 153.976 195.777 153.832 195.921C153.696 196.065 153.528 196.137 153.328 196.137ZM153.856 197.205V203.781H152.764V197.205H153.856ZM158.585 203.889C157.969 203.889 157.409 203.749 156.905 203.469C156.409 203.189 156.017 202.793 155.729 202.281C155.449 201.761 155.309 201.161 155.309 200.481C155.309 199.809 155.453 199.217 155.741 198.705C156.037 198.185 156.437 197.789 156.941 197.517C157.445 197.237 158.009 197.097 158.633 197.097C159.257 197.097 159.821 197.237 160.325 197.517C160.829 197.789 161.225 198.181 161.513 198.693C161.809 199.205 161.957 199.801 161.957 200.481C161.957 201.161 161.805 201.761 161.501 202.281C161.205 202.793 160.801 203.189 160.289 203.469C159.777 203.749 159.209 203.889 158.585 203.889ZM158.585 202.929C158.977 202.929 159.345 202.837 159.689 202.653C160.033 202.469 160.309 202.193 160.517 201.825C160.733 201.457 160.841 201.009 160.841 200.481C160.841 199.953 160.737 199.505 160.529 199.137C160.321 198.769 160.049 198.497 159.713 198.321C159.377 198.137 159.013 198.045 158.621 198.045C158.221 198.045 157.853 198.137 157.517 198.321C157.189 198.497 156.925 198.769 156.725 199.137C156.525 199.505 156.425 199.953 156.425 200.481C156.425 201.017 156.521 201.469 156.713 201.837C156.913 202.205 157.177 202.481 157.505 202.665C157.833 202.841 158.193 202.929 158.585 202.929ZM166.597 197.085C167.397 197.085 168.045 197.329 168.541 197.817C169.037 198.297 169.285 198.993 169.285 199.905V203.781H168.205V200.061C168.205 199.405 168.041 198.905 167.713 198.561C167.385 198.209 166.937 198.033 166.369 198.033C165.793 198.033 165.333 198.213 164.989 198.573C164.653 198.933 164.485 199.457 164.485 200.145V203.781H163.393V197.205H164.485V198.141C164.701 197.805 164.993 197.545 165.361 197.361C165.737 197.177 166.149 197.085 166.597 197.085ZM177.532 197.085C178.028 197.085 178.476 197.193 178.876 197.409C179.276 197.617 179.588 197.933 179.812 198.357C180.044 198.781 180.16 199.297 180.16 199.905V203.781H179.08V200.061C179.08 199.405 178.916 198.905 178.588 198.561C178.26 198.209 177.812 198.033 177.244 198.033C176.668 198.033 176.208 198.213 175.864 198.573C175.528 198.933 175.36 199.457 175.36 200.145V203.781H174.268V194.901H175.36V198.141C175.576 197.805 175.872 197.545 176.248 197.361C176.632 197.177 177.06 197.085 177.532 197.085ZM187.944 200.241C187.944 200.449 187.932 200.669 187.908 200.901H182.652C182.692 201.549 182.912 202.057 183.312 202.425C183.72 202.785 184.212 202.965 184.788 202.965C185.26 202.965 185.652 202.857 185.964 202.641C186.284 202.417 186.508 202.121 186.636 201.753H187.812C187.636 202.385 187.284 202.901 186.756 203.301C186.228 203.693 185.572 203.889 184.788 203.889C184.164 203.889 183.604 203.749 183.108 203.469C182.62 203.189 182.236 202.793 181.956 202.281C181.676 201.761 181.536 201.161 181.536 200.481C181.536 199.801 181.672 199.205 181.944 198.693C182.216 198.181 182.596 197.789 183.084 197.517C183.58 197.237 184.148 197.097 184.788 197.097C185.412 197.097 185.964 197.233 186.444 197.505C186.924 197.777 187.292 198.153 187.548 198.633C187.812 199.105 187.944 199.641 187.944 200.241ZM186.816 200.013C186.816 199.597 186.724 199.241 186.54 198.945C186.356 198.641 186.104 198.413 185.784 198.261C185.472 198.101 185.124 198.021 184.74 198.021C184.188 198.021 183.716 198.197 183.324 198.549C182.94 198.901 182.72 199.389 182.664 200.013H186.816ZM190.477 198.273C190.669 197.897 190.941 197.605 191.293 197.397C191.653 197.189 192.089 197.085 192.601 197.085V198.213H192.313C191.089 198.213 190.477 198.877 190.477 200.205V203.781H189.385V197.205H190.477V198.273ZM199.862 200.241C199.862 200.449 199.85 200.669 199.826 200.901H194.57C194.61 201.549 194.83 202.057 195.23 202.425C195.638 202.785 196.13 202.965 196.706 202.965C197.178 202.965 197.57 202.857 197.882 202.641C198.202 202.417 198.426 202.121 198.554 201.753H199.73C199.554 202.385 199.202 202.901 198.674 203.301C198.146 203.693 197.49 203.889 196.706 203.889C196.082 203.889 195.522 203.749 195.026 203.469C194.538 203.189 194.154 202.793 193.874 202.281C193.594 201.761 193.454 201.161 193.454 200.481C193.454 199.801 193.59 199.205 193.862 198.693C194.134 198.181 194.514 197.789 195.002 197.517C195.498 197.237 196.066 197.097 196.706 197.097C197.33 197.097 197.882 197.233 198.362 197.505C198.842 197.777 199.21 198.153 199.466 198.633C199.73 199.105 199.862 199.641 199.862 200.241ZM198.734 200.013C198.734 199.597 198.642 199.241 198.458 198.945C198.274 198.641 198.022 198.413 197.702 198.261C197.39 198.101 197.042 198.021 196.658 198.021C196.106 198.021 195.634 198.197 195.242 198.549C194.858 198.901 194.638 199.389 194.582 200.013H198.734ZM207.31 206.013C206.542 205.261 205.942 204.305 205.51 203.145C205.086 201.985 204.874 200.733 204.874 199.389C204.874 198.013 205.098 196.729 205.546 195.537C206.002 194.337 206.65 193.349 207.49 192.573H208.63V192.681C207.734 193.521 207.058 194.533 206.602 195.717C206.154 196.893 205.93 198.117 205.93 199.389C205.93 200.629 206.142 201.813 206.566 202.941C206.998 204.069 207.626 205.057 208.45 205.905V206.013H207.31ZM212.819 203.889C212.203 203.889 211.643 203.749 211.139 203.469C210.643 203.189 210.251 202.793 209.963 202.281C209.683 201.761 209.543 201.161 209.543 200.481C209.543 199.809 209.687 199.217 209.975 198.705C210.271 198.185 210.671 197.789 211.175 197.517C211.679 197.237 212.243 197.097 212.867 197.097C213.491 197.097 214.055 197.237 214.559 197.517C215.063 197.789 215.459 198.181 215.747 198.693C216.043 199.205 216.191 199.801 216.191 200.481C216.191 201.161 216.039 201.761 215.735 202.281C215.439 202.793 215.035 203.189 214.523 203.469C214.011 203.749 213.443 203.889 212.819 203.889ZM212.819 202.929C213.211 202.929 213.579 202.837 213.923 202.653C214.267 202.469 214.543 202.193 214.751 201.825C214.967 201.457 215.075 201.009 215.075 200.481C215.075 199.953 214.971 199.505 214.763 199.137C214.555 198.769 214.283 198.497 213.947 198.321C213.611 198.137 213.247 198.045 212.855 198.045C212.455 198.045 212.087 198.137 211.751 198.321C211.423 198.497 211.159 198.769 210.959 199.137C210.759 199.505 210.659 199.953 210.659 200.481C210.659 201.017 210.755 201.469 210.947 201.837C211.147 202.205 211.411 202.481 211.739 202.665C212.067 202.841 212.427 202.929 212.819 202.929ZM218.719 198.417C218.935 198.041 219.255 197.729 219.679 197.481C220.111 197.225 220.611 197.097 221.179 197.097C221.763 197.097 222.291 197.237 222.763 197.517C223.243 197.797 223.619 198.193 223.891 198.705C224.163 199.209 224.299 199.797 224.299 200.469C224.299 201.133 224.163 201.725 223.891 202.245C223.619 202.765 223.243 203.169 222.763 203.457C222.291 203.745 221.763 203.889 221.179 203.889C220.619 203.889 220.123 203.765 219.691 203.517C219.267 203.261 218.943 202.945 218.719 202.569V206.901H217.627V197.205H218.719V198.417ZM223.183 200.469C223.183 199.973 223.083 199.541 222.883 199.173C222.683 198.805 222.411 198.525 222.067 198.333C221.731 198.141 221.359 198.045 220.951 198.045C220.551 198.045 220.179 198.145 219.835 198.345C219.499 198.537 219.227 198.821 219.019 199.197C218.819 199.565 218.719 199.993 218.719 200.481C218.719 200.977 218.819 201.413 219.019 201.789C219.227 202.157 219.499 202.441 219.835 202.641C220.179 202.833 220.551 202.929 220.951 202.929C221.359 202.929 221.731 202.833 222.067 202.641C222.411 202.441 222.683 202.157 222.883 201.789C223.083 201.413 223.183 200.973 223.183 200.469ZM227.069 198.105V201.981C227.069 202.301 227.137 202.529 227.273 202.665C227.409 202.793 227.645 202.857 227.98 202.857H228.785V203.781H227.801C227.193 203.781 226.737 203.641 226.433 203.361C226.129 203.081 225.977 202.621 225.977 201.981V198.105H225.125V197.205H225.977V195.549H227.069V197.205H228.785V198.105H227.069ZM230.672 196.137C230.464 196.137 230.288 196.065 230.144 195.921C230 195.777 229.928 195.601 229.928 195.393C229.928 195.185 230 195.009 230.144 194.865C230.288 194.721 230.464 194.649 230.672 194.649C230.872 194.649 231.04 194.721 231.176 194.865C231.32 195.009 231.392 195.185 231.392 195.393C231.392 195.601 231.32 195.777 231.176 195.921C231.04 196.065 230.872 196.137 230.672 196.137ZM231.2 197.205V203.781H230.108V197.205H231.2ZM235.929 203.889C235.313 203.889 234.753 203.749 234.249 203.469C233.753 203.189 233.361 202.793 233.073 202.281C232.793 201.761 232.653 201.161 232.653 200.481C232.653 199.809 232.797 199.217 233.085 198.705C233.381 198.185 233.781 197.789 234.285 197.517C234.789 197.237 235.353 197.097 235.977 197.097C236.601 197.097 237.165 197.237 237.669 197.517C238.173 197.789 238.569 198.181 238.857 198.693C239.153 199.205 239.301 199.801 239.301 200.481C239.301 201.161 239.149 201.761 238.845 202.281C238.549 202.793 238.145 203.189 237.633 203.469C237.121 203.749 236.553 203.889 235.929 203.889ZM235.929 202.929C236.321 202.929 236.689 202.837 237.033 202.653C237.377 202.469 237.653 202.193 237.861 201.825C238.077 201.457 238.185 201.009 238.185 200.481C238.185 199.953 238.081 199.505 237.873 199.137C237.665 198.769 237.393 198.497 237.057 198.321C236.721 198.137 236.357 198.045 235.965 198.045C235.565 198.045 235.197 198.137 234.861 198.321C234.533 198.497 234.269 198.769 234.069 199.137C233.869 199.505 233.769 199.953 233.769 200.481C233.769 201.017 233.865 201.469 234.057 201.837C234.257 202.205 234.521 202.481 234.849 202.665C235.177 202.841 235.537 202.929 235.929 202.929ZM243.941 197.085C244.741 197.085 245.389 197.329 245.885 197.817C246.381 198.297 246.629 198.993 246.629 199.905V203.781H245.549V200.061C245.549 199.405 245.385 198.905 245.057 198.561C244.729 198.209 244.281 198.033 243.713 198.033C243.137 198.033 242.677 198.213 242.333 198.573C241.997 198.933 241.829 199.457 241.829 200.145V203.781H240.737V197.205H241.829V198.141C242.045 197.805 242.337 197.545 242.705 197.361C243.081 197.177 243.493 197.085 243.941 197.085ZM248.004 200.469C248.004 199.797 248.14 199.209 248.412 198.705C248.684 198.193 249.056 197.797 249.528 197.517C250.008 197.237 250.54 197.097 251.124 197.097C251.7 197.097 252.2 197.221 252.624 197.469C253.048 197.717 253.364 198.029 253.572 198.405V197.205H254.676V203.781H253.572V202.557C253.356 202.941 253.032 203.261 252.6 203.517C252.176 203.765 251.68 203.889 251.112 203.889C250.528 203.889 250 203.745 249.528 203.457C249.056 203.169 248.684 202.765 248.412 202.245C248.14 201.725 248.004 201.133 248.004 200.469ZM253.572 200.481C253.572 199.985 253.472 199.553 253.272 199.185C253.072 198.817 252.8 198.537 252.456 198.345C252.12 198.145 251.748 198.045 251.34 198.045C250.932 198.045 250.56 198.141 250.224 198.333C249.888 198.525 249.62 198.805 249.42 199.173C249.22 199.541 249.12 199.973 249.12 200.469C249.12 200.973 249.22 201.413 249.42 201.789C249.62 202.157 249.888 202.441 250.224 202.641C250.56 202.833 250.932 202.929 251.34 202.929C251.748 202.929 252.12 202.833 252.456 202.641C252.8 202.441 253.072 202.157 253.272 201.789C253.472 201.413 253.572 200.977 253.572 200.481ZM257.614 194.901V203.781H256.522V194.901H257.614ZM259.127 206.013V205.905C259.951 205.057 260.575 204.069 260.999 202.941C261.431 201.813 261.647 200.629 261.647 199.389C261.647 198.117 261.419 196.893 260.963 195.717C260.515 194.533 259.843 193.521 258.947 192.681V192.573H260.087C260.927 193.349 261.571 194.337 262.019 195.537C262.475 196.729 262.703 198.013 262.703 199.389C262.703 200.733 262.487 201.985 262.055 203.145C261.631 204.305 261.035 205.261 260.267 206.013H259.127Z" fill="#172537"/>
<path d="M45.0646 31.3456C46.2886 31.3456 47.2666 31.6816 47.9986 32.3536C48.7426 33.0256 49.1146 33.9436 49.1146 35.1076C49.1146 36.3196 48.7306 37.2316 47.9626 37.8436C47.1946 38.4556 46.1746 38.7616 44.9026 38.7616L44.8306 40.1836H43.0486L42.9586 37.3576H43.5526C44.7166 37.3576 45.6046 37.2016 46.2166 36.8896C46.8406 36.5776 47.1526 35.9836 47.1526 35.1076C47.1526 34.4716 46.9666 33.9736 46.5946 33.6136C46.2346 33.2536 45.7306 33.0736 45.0826 33.0736C44.4346 33.0736 43.9246 33.2476 43.5526 33.5956C43.1806 33.9436 42.9946 34.4296 42.9946 35.0536H41.0686C41.0686 34.3336 41.2306 33.6916 41.5546 33.1276C41.8786 32.5636 42.3406 32.1256 42.9406 31.8136C43.5526 31.5016 44.2606 31.3456 45.0646 31.3456ZM43.9126 44.1616C43.5406 44.1616 43.2286 44.0356 42.9766 43.7836C42.7246 43.5316 42.5986 43.2196 42.5986 42.8476C42.5986 42.4756 42.7246 42.1636 42.9766 41.9116C43.2286 41.6596 43.5406 41.5336 43.9126 41.5336C44.2726 41.5336 44.5786 41.6596 44.8306 41.9116C45.0826 42.1636 45.2086 42.4756 45.2086 42.8476C45.2086 43.2196 45.0826 43.5316 44.8306 43.7836C44.5786 44.0356 44.2726 44.1616 43.9126 44.1616Z" fill="#61B08B"/>
<circle cx="8" cy="159.793" r="7" fill="#FC6839" stroke="white" stroke-width="2"/>
<circle cx="419.891" cy="168.383" r="7" fill="#FC6839" stroke="white" stroke-width="2"/>
<path d="M45.8546 256.989H42.5186L41.9666 258.585H40.2026L43.2146 250.197H45.1706L48.1826 258.585H46.4066L45.8546 256.989ZM45.3986 255.645L44.1866 252.141L42.9746 255.645H45.3986ZM48.8765 255.237C48.8765 254.565 49.0085 253.969 49.2725 253.449C49.5445 252.929 49.9125 252.529 50.3765 252.249C50.8405 251.969 51.3565 251.829 51.9245 251.829C52.3565 251.829 52.7685 251.925 53.1605 252.117C53.5525 252.301 53.8645 252.549 54.0965 252.861V249.705H55.8005V258.585H54.0965V257.601C53.8885 257.929 53.5965 258.193 53.2205 258.393C52.8445 258.593 52.4085 258.693 51.9125 258.693C51.3525 258.693 50.8405 258.549 50.3765 258.261C49.9125 257.973 49.5445 257.569 49.2725 257.049C49.0085 256.521 48.8765 255.917 48.8765 255.237ZM54.1085 255.261C54.1085 254.853 54.0285 254.505 53.8685 254.217C53.7085 253.921 53.4925 253.697 53.2205 253.545C52.9485 253.385 52.6565 253.305 52.3445 253.305C52.0325 253.305 51.7445 253.381 51.4805 253.533C51.2165 253.685 51.0005 253.909 50.8325 254.205C50.6725 254.493 50.5925 254.837 50.5925 255.237C50.5925 255.637 50.6725 255.989 50.8325 256.293C51.0005 256.589 51.2165 256.817 51.4805 256.977C51.7525 257.137 52.0405 257.217 52.3445 257.217C52.6565 257.217 52.9485 257.141 53.2205 256.989C53.4925 256.829 53.7085 256.605 53.8685 256.317C54.0285 256.021 54.1085 255.669 54.1085 255.261ZM57.0093 255.237C57.0093 254.565 57.1413 253.969 57.4053 253.449C57.6773 252.929 58.0453 252.529 58.5093 252.249C58.9733 251.969 59.4893 251.829 60.0573 251.829C60.4893 251.829 60.9013 251.925 61.2933 252.117C61.6853 252.301 61.9973 252.549 62.2293 252.861V249.705H63.9333V258.585H62.2293V257.601C62.0213 257.929 61.7293 258.193 61.3533 258.393C60.9773 258.593 60.5413 258.693 60.0453 258.693C59.4853 258.693 58.9733 258.549 58.5093 258.261C58.0453 257.973 57.6773 257.569 57.4053 257.049C57.1413 256.521 57.0093 255.917 57.0093 255.237ZM62.2413 255.261C62.2413 254.853 62.1613 254.505 62.0013 254.217C61.8413 253.921 61.6253 253.697 61.3533 253.545C61.0813 253.385 60.7893 253.305 60.4773 253.305C60.1653 253.305 59.8773 253.381 59.6133 253.533C59.3493 253.685 59.1333 253.909 58.9653 254.205C58.8053 254.493 58.7253 254.837 58.7253 255.237C58.7253 255.637 58.8053 255.989 58.9653 256.293C59.1333 256.589 59.3493 256.817 59.6133 256.977C59.8853 257.137 60.1733 257.217 60.4773 257.217C60.7893 257.217 61.0813 257.141 61.3533 256.989C61.6253 256.829 61.8413 256.605 62.0013 256.317C62.1613 256.021 62.2413 255.669 62.2413 255.261ZM73.5695 256.989H70.2335L69.6815 258.585H67.9175L70.9295 250.197H72.8855L75.8975 258.585H74.1215L73.5695 256.989ZM73.1135 255.645L71.9015 252.141L70.6895 255.645H73.1135ZM80.7073 251.841C81.4993 251.841 82.1393 252.093 82.6273 252.597C83.1153 253.093 83.3593 253.789 83.3593 254.685V258.585H81.6793V254.913C81.6793 254.385 81.5473 253.981 81.2833 253.701C81.0193 253.413 80.6593 253.269 80.2033 253.269C79.7393 253.269 79.3713 253.413 79.0993 253.701C78.8353 253.981 78.7033 254.385 78.7033 254.913V258.585H77.0233V251.937H78.7033V252.765C78.9273 252.477 79.2113 252.253 79.5553 252.093C79.9073 251.925 80.2913 251.841 80.7073 251.841ZM87.5009 258.693C86.9569 258.693 86.4689 258.597 86.0369 258.405C85.6049 258.205 85.2609 257.937 85.0049 257.601C84.7569 257.265 84.6209 256.893 84.5969 256.485H86.2889C86.3209 256.741 86.4449 256.953 86.6609 257.121C86.8849 257.289 87.1609 257.373 87.4889 257.373C87.8089 257.373 88.0569 257.309 88.2329 257.181C88.4169 257.053 88.5089 256.889 88.5089 256.689C88.5089 256.473 88.3969 256.313 88.1729 256.209C87.9569 256.097 87.6089 255.977 87.1289 255.849C86.6329 255.729 86.2249 255.605 85.9049 255.477C85.5929 255.349 85.3209 255.153 85.0889 254.889C84.8649 254.625 84.7529 254.269 84.7529 253.821C84.7529 253.453 84.8569 253.117 85.0649 252.813C85.2809 252.509 85.5849 252.269 85.9769 252.093C86.3769 251.917 86.8449 251.829 87.3809 251.829C88.1729 251.829 88.8049 252.029 89.2769 252.429C89.7489 252.821 90.0089 253.353 90.0569 254.025H88.4489C88.4249 253.761 88.3129 253.553 88.1129 253.401C87.9209 253.241 87.6609 253.161 87.3329 253.161C87.0289 253.161 86.7929 253.217 86.6249 253.329C86.4649 253.441 86.3849 253.597 86.3849 253.797C86.3849 254.021 86.4969 254.193 86.7209 254.313C86.9449 254.425 87.2929 254.541 87.7649 254.661C88.2449 254.781 88.6409 254.905 88.9529 255.033C89.2649 255.161 89.5329 255.361 89.7569 255.633C89.9889 255.897 90.1089 256.249 90.1169 256.689C90.1169 257.073 90.0089 257.417 89.7929 257.721C89.5849 258.025 89.2809 258.265 88.8809 258.441C88.4889 258.609 88.0289 258.693 87.5009 258.693ZM100.712 251.937L98.768 258.585H96.956L95.744 253.941L94.532 258.585H92.708L90.752 251.937H92.456L93.632 257.001L94.904 251.937H96.68L97.928 256.989L99.104 251.937H100.712ZM107.801 255.117C107.801 255.357 107.785 255.573 107.753 255.765H102.893C102.933 256.245 103.101 256.621 103.397 256.893C103.693 257.165 104.057 257.301 104.489 257.301C105.113 257.301 105.557 257.033 105.821 256.497H107.633C107.441 257.137 107.073 257.665 106.529 258.081C105.985 258.489 105.317 258.693 104.525 258.693C103.885 258.693 103.309 258.553 102.797 258.273C102.293 257.985 101.897 257.581 101.609 257.061C101.329 256.541 101.189 255.941 101.189 255.261C101.189 254.573 101.329 253.969 101.609 253.449C101.889 252.929 102.281 252.529 102.785 252.249C103.289 251.969 103.869 251.829 104.525 251.829C105.157 251.829 105.721 251.965 106.217 252.237C106.721 252.509 107.109 252.897 107.381 253.401C107.661 253.897 107.801 254.469 107.801 255.117ZM106.061 254.637C106.053 254.205 105.897 253.861 105.593 253.605C105.289 253.341 104.917 253.209 104.477 253.209C104.061 253.209 103.709 253.337 103.421 253.593C103.141 253.841 102.969 254.189 102.905 254.637H106.061ZM110.707 252.969C110.923 252.617 111.203 252.341 111.547 252.141C111.899 251.941 112.299 251.841 112.747 251.841V253.605H112.303C111.775 253.605 111.375 253.729 111.103 253.977C110.839 254.225 110.707 254.657 110.707 255.273V258.585H109.027V251.937H110.707V252.969Z" fill="#FC6839"/>
<mask id="mask0_1392_32048" style="mask-type:alpha" maskUnits="userSpaceOnUse" x="121" y="246" width="17" height="17">
<rect x="121.891" y="246.585" width="16" height="16" fill="#D9D9D9"/>
</mask>
<g mask="url(#mask0_1392_32048)">
<path d="M129.891 259.252C129.702 259.252 129.544 259.188 129.417 259.06C129.289 258.932 129.225 258.774 129.225 258.585V255.252H125.891C125.702 255.252 125.544 255.188 125.416 255.06C125.288 254.932 125.225 254.774 125.225 254.585C125.225 254.396 125.288 254.238 125.416 254.11C125.544 253.982 125.702 253.919 125.891 253.919H129.225V250.585C129.225 250.396 129.289 250.238 129.417 250.11C129.544 249.982 129.702 249.919 129.891 249.919C130.08 249.919 130.239 249.982 130.367 250.11C130.494 250.238 130.558 250.396 130.558 250.585V253.919H133.891C134.08 253.919 134.238 253.982 134.366 254.11C134.494 254.238 134.558 254.396 134.558 254.585C134.558 254.774 134.494 254.932 134.366 255.06C134.238 255.188 134.08 255.252 133.891 255.252H130.558V258.585C130.558 258.774 130.494 258.932 130.367 259.06C130.239 259.188 130.08 259.252 129.891 259.252Z" fill="#FC6839"/>
</g>
<mask id="mask1_1392_32048" style="mask-type:alpha" maskUnits="userSpaceOnUse" x="317" y="30" width="19" height="19">
<rect x="317.891" y="30.1819" width="18" height="18" fill="#D9D9D9"/>
</mask>
<g mask="url(#mask1_1392_32048)">
<path d="M324.641 43.6819C324.228 43.6819 323.875 43.5351 323.582 43.2416C323.288 42.9476 323.141 42.5944 323.141 42.1819V33.1819C323.141 32.7694 323.288 32.4161 323.582 32.1221C323.875 31.8286 324.228 31.6819 324.641 31.6819H331.391C331.803 31.6819 332.156 31.8286 332.45 32.1221C332.744 32.4161 332.891 32.7694 332.891 33.1819V42.1819C332.891 42.5944 332.744 42.9476 332.45 43.2416C332.156 43.5351 331.803 43.6819 331.391 43.6819H324.641ZM324.641 42.1819H331.391V33.1819H324.641V42.1819ZM321.641 46.6819C321.228 46.6819 320.875 46.5351 320.581 46.2416C320.287 45.9476 320.141 45.5944 320.141 45.1819V35.4319C320.141 35.2194 320.213 35.0411 320.357 34.8971C320.5 34.7536 320.678 34.6819 320.891 34.6819C321.103 34.6819 321.281 34.7536 321.425 34.8971C321.569 35.0411 321.641 35.2194 321.641 35.4319V45.1819H329.141C329.353 45.1819 329.531 45.2539 329.675 45.3979C329.819 45.5414 329.891 45.7194 329.891 45.9319C329.891 46.1444 329.819 46.3224 329.675 46.4659C329.531 46.6099 329.353 46.6819 329.141 46.6819H321.641Z" fill="#293748"/>
</g>
<mask id="mask2_1392_32048" style="mask-type:alpha" maskUnits="userSpaceOnUse" x="275" y="30" width="19" height="19">
<rect x="275.891" y="30.1819" width="18" height="18" fill="#D9D9D9"/>
</mask>
<g mask="url(#mask2_1392_32048)">
<path d="M284.89 42.1819C285.828 42.1819 286.625 41.8539 287.281 41.1979C287.937 40.5414 288.265 39.7444 288.265 38.8069C288.265 37.8694 287.937 37.0724 287.281 36.4159C286.625 35.7599 285.828 35.4319 284.89 35.4319C283.953 35.4319 283.156 35.7599 282.499 36.4159C281.843 37.0724 281.515 37.8694 281.515 38.8069C281.515 39.7444 281.843 40.5414 282.499 41.1979C283.156 41.8539 283.953 42.1819 284.89 42.1819ZM284.89 40.8319C284.328 40.8319 283.85 40.6349 283.456 40.2409C283.062 39.8474 282.865 39.3694 282.865 38.8069C282.865 38.2444 283.062 37.7661 283.456 37.3721C283.85 36.9786 284.328 36.7819 284.89 36.7819C285.453 36.7819 285.931 36.9786 286.325 37.3721C286.718 37.7661 286.915 38.2444 286.915 38.8069C286.915 39.3694 286.718 39.8474 286.325 40.2409C285.931 40.6349 285.453 40.8319 284.89 40.8319ZM284.89 44.4319C283.153 44.4319 281.565 43.9726 280.128 43.0541C278.69 42.1351 277.603 40.8944 276.865 39.3319C276.828 39.2694 276.803 39.1911 276.79 39.0971C276.778 39.0036 276.771 38.9069 276.771 38.8069C276.771 38.7069 276.778 38.6099 276.79 38.5159C276.803 38.4224 276.828 38.3444 276.865 38.2819C277.603 36.7194 278.69 35.4789 280.128 34.5604C281.565 33.6414 283.153 33.1819 284.89 33.1819C286.628 33.1819 288.215 33.6414 289.653 34.5604C291.09 35.4789 292.178 36.7194 292.915 38.2819C292.953 38.3444 292.978 38.4224 292.99 38.5159C293.003 38.6099 293.009 38.7069 293.009 38.8069C293.009 38.9069 293.003 39.0036 292.99 39.0971C292.978 39.1911 292.953 39.2694 292.915 39.3319C292.178 40.8944 291.09 42.1351 289.653 43.0541C288.215 43.9726 286.628 44.4319 284.89 44.4319ZM284.89 42.9319C286.303 42.9319 287.6 42.5599 288.781 41.8159C289.962 41.0724 290.865 40.0694 291.49 38.8069C290.865 37.5444 289.962 36.5411 288.781 35.7971C287.6 35.0536 286.303 34.6819 284.89 34.6819C283.478 34.6819 282.181 35.0536 280.999 35.7971C279.818 36.5411 278.915 37.5444 278.29 38.8069C278.915 40.0694 279.818 41.0724 280.999 41.8159C282.181 42.5599 283.478 42.9319 284.89 42.9319Z" fill="#293748"/>
</g>
<rect x="352.891" y="24.1819" width="32" height="31" rx="15.5" fill="white"/>
<mask id="mask3_1392_32048" style="mask-type:alpha" maskUnits="userSpaceOnUse" x="359" y="30" width="19" height="19">
<rect x="359.891" y="30.6819" width="18" height="18" fill="#D9D9D9"/>
</mask>
<g mask="url(#mask3_1392_32048)">
<path d="M365.141 46.4319C364.728 46.4319 364.375 46.2851 364.082 45.9916C363.788 45.6976 363.641 45.3444 363.641 44.9319V35.1819C363.428 35.1819 363.25 35.1101 363.106 34.9666C362.962 34.8226 362.891 34.6444 362.891 34.4319C362.891 34.2194 362.962 34.0411 363.106 33.8971C363.25 33.7536 363.428 33.6819 363.641 33.6819H366.641C366.641 33.4694 366.713 33.2911 366.857 33.1471C367 33.0036 367.178 32.9319 367.391 32.9319H370.391C370.603 32.9319 370.781 33.0036 370.925 33.1471C371.069 33.2911 371.141 33.4694 371.141 33.6819H374.141C374.353 33.6819 374.531 33.7536 374.675 33.8971C374.819 34.0411 374.891 34.2194 374.891 34.4319C374.891 34.6444 374.819 34.8226 374.675 34.9666C374.531 35.1101 374.353 35.1819 374.141 35.1819V44.9319C374.141 45.3444 373.994 45.6976 373.7 45.9916C373.406 46.2851 373.053 46.4319 372.641 46.4319H365.141ZM365.141 35.1819V44.9319H372.641V35.1819H365.141ZM366.641 42.6819C366.641 42.8944 366.713 43.0724 366.857 43.2159C367 43.3599 367.178 43.4319 367.391 43.4319C367.603 43.4319 367.781 43.3599 367.925 43.2159C368.069 43.0724 368.141 42.8944 368.141 42.6819V37.4319C368.141 37.2194 368.069 37.0411 367.925 36.8971C367.781 36.7536 367.603 36.6819 367.391 36.6819C367.178 36.6819 367 36.7536 366.857 36.8971C366.713 37.0411 366.641 37.2194 366.641 37.4319V42.6819ZM369.641 42.6819C369.641 42.8944 369.713 43.0724 369.857 43.2159C370 43.3599 370.178 43.4319 370.391 43.4319C370.603 43.4319 370.781 43.3599 370.925 43.2159C371.069 43.0724 371.141 42.8944 371.141 42.6819V37.4319C371.141 37.2194 371.069 37.0411 370.925 36.8971C370.781 36.7536 370.603 36.6819 370.391 36.6819C370.178 36.6819 370 36.7536 369.857 36.8971C369.713 37.0411 369.641 37.2194 369.641 37.4319V42.6819Z" fill="#172537"/>
</g>
<rect x="27.3906" y="87.249" width="368" height="41" rx="8.5" stroke="#FF7A4A" stroke-dasharray="2 2"/>
<defs>
<filter id="filter0_d_1392_32048" x="8" y="0" width="411.891" height="326.585" filterUnits="userSpaceOnUse" color-interpolation-filters="sRGB">
<feFlood flood-opacity="0" result="BackgroundImageFix"/>
<feColorMatrix in="SourceAlpha" type="matrix" values="0 0 0 0 0 0 0 0 0 0 0 0 0 0 0 0 0 0 127 0" result="hardAlpha"/>
<feMorphology radius="20" operator="erode" in="SourceAlpha" result="effect1_dropShadow_1392_32048"/>
<feOffset dy="20"/>
<feGaussianBlur stdDeviation="10"/>
<feComposite in2="hardAlpha" operator="out"/>
<feColorMatrix type="matrix" values="0 0 0 0 0.188235 0 0 0 0 0.160784 0 0 0 0 0.129412 0 0 0 0.25 0"/>
<feBlend mode="normal" in2="BackgroundImageFix" result="effect1_dropShadow_1392_32048"/>
<feBlend mode="normal" in="SourceGraphic" in2="effect1_dropShadow_1392_32048" result="shape"/>
</filter>
</defs>
</svg>
